{
DisplayStrings = (
"JKQAUMWWIXYE\012ARTSZYTZZdd",
"O0/Placeholder IXK/Placeholder F120E/Placeholder GF1223456789"
);
date = "2014-09-22 02:04:12 +0000";
familyName = "League Spartan";
featurePrefixes = (
{
automatic = 1;
code = "languagesystem DFLT dflt;\012";
name = Languagesystems;
}
);
features = (
{
automatic = 1;
code = "feature sups;\012feature frac;\012feature ordn;\012";
name = aalt;
},
{
automatic = 1;
code = "sub one by onesuperior;\012sub two by twosuperior;\012sub three by threesuperior;\012";
name = sups;
},
{
automatic = 1;
code = "sub one slash four by onequarter;\012sub one slash two by onehalf;\012sub three slash four by threequarters;\012";
name = frac;
},
{
automatic = 1;
code = "sub [zero one two three four five six seven eight nine] [A a]' by ordfeminine;\012sub [zero one two three four five six seven eight nine] [O o]' by ordmasculine;\012";
name = ordn;
},
{
automatic = 1;
code = "sub f f j by f_f_j;\012sub f f t by f_f_t;\012sub f j by f_j;\012sub f t by f_t;\012";
name = dlig;
},
{
automatic = 1;
code = "sub f f l by f_f_l;\012sub f f i by f_f_i;\012sub f i by fi;\012sub f f by f_f;\012sub f l by fl;\012";
name = liga;
}
);
fontMaster = (
{
alignmentZones = (
"{900, 16}",
"{825, 16}",
"{750, 15}",
"{513, 16}",
"{0, -15}",
"{-250, -15}",
"{-350, -16}"
);
ascender = 900;
capHeight = 825;
customParameters = (
{
name = typoAscender;
value = 750;
},
{
name = typoDescender;
value = "-250";
},
{
name = typoLineGap;
value = 0;
}
);
descender = -350;
horizontalStems = (
188,
177
);
id = "A4E552E4-62BE-43BB-A58F-34F0EE3B77B8";
verticalStems = (
860,
825,
513
);
weight = Bold;
weightValue = 177;
widthValue = 5;
xHeight = 513;
},
{
alignmentZones = (
"{900, 16}",
"{825, 16}",
"{800, 16}",
"{700, 16}",
"{500, 16}",
"{0, -16}",
"{-200, -16}",
"{-350, -16}"
);
ascender = 900;
capHeight = 825;
customParameters = (
{
name = typoAscender;
value = "750";
},
{
name = typoDescender;
value = "-250";
},
{
name = typoLineGap;
value = "0";
}
);
descender = -350;

glyphs = (
{
glyphname = A;
lastChange = "2016-01-31 21:40:30 +0000";
layers = (
{
layerId = "A4E552E4-62BE-43BB-A58F-34F0EE3B77B8";
name = Bold;
paths = (
{
closed = 1;
nodes = (
"-28 0 LINE",
"174 0 LINE",
"235 165 LINE",
"549 165 LINE",
"610 0 LINE",
"812 0 LINE",
"479 825 LINE",
"305 825 LINE"
);
},
{
closed = 1;
nodes = (
"391 570 LINE",
"393 570 LINE",
"485 330 LINE",
"299 330 LINE"
);
}
);
width = 784;
},
{
layerId = "2A961F25-8D0E-4F3D-9AC7-EA5E11B6DCD4";
name = Regular;
paths = (
{
closed = 1;
nodes = (
"-12 0 LINE",
"90 0 LINE",
"163 192 LINE",
"553 192 LINE",
"627 0 LINE",
"729 0 LINE",
"412 825 LINE",
"304 825 LINE"
);
},
{
closed = 1;
nodes = (
"357 725 LINE",
"359 725 LINE",
"520 275 LINE",
"195 273 LINE"
);
}
);
width = 717;
}
);
leftKerningGroup = A;
rightKerningGroup = d;
unicode = 0041;
},
{
glyphname = Aacute;
lastChange = "2015-12-23 09:57:27 +0000";
layers = (
{
layerId = "A4E552E4-62BE-43BB-A58F-34F0EE3B77B8";
name = Bold;
paths = (
{
closed = 1;
nodes = (
"-28 0 LINE",
"174 0 LINE",
"235 165 LINE",
"549 165 LINE",
"610 0 LINE",
"812 0 LINE",
"479 825 LINE",
"305 825 LINE"
);
},
{
closed = 1;
nodes = (
"391 570 LINE",
"393 570 LINE",
"485 330 LINE",
"299 330 LINE"
);
},
{
closed = 1;
nodes = (
"627 1037 LINE",
"536 1152 LINE",
"333 976 LINE",
"389 899 LINE"
);
}
);
width = 784;
},
{
layerId = "2A961F25-8D0E-4F3D-9AC7-EA5E11B6DCD4";
name = Regular;
width = 600;
}
);
leftKerningGroup = A;
rightKerningGroup = d;
unicode = 00C1;
},
{
glyphname = Abreve;
lastChange = "2015-12-23 09:57:27 +0000";
layers = (
{
layerId = "A4E552E4-62BE-43BB-A58F-34F0EE3B77B8";
name = Bold;
paths = (
{
closed = 1;
nodes = (
"-28 0 LINE",
"174 0 LINE",
"235 165 LINE",
"549 165 LINE",
"610 0 LINE",
"812 0 LINE",
"479 825 LINE",
"305 825 LINE"
);
},
{
closed = 1;
nodes = (
"391 570 LINE",
"393 570 LINE",
"485 330 LINE",
"299 330 LINE"
);
},
{
closed = 1;
nodes = (
"497 1152 LINE",
"497 1152 OFFCURVE",
"486 1049 OFFCURVE",
"392 1049 CURVE SMOOTH",
"298 1049 OFFCURVE",
"287 1152 OFFCURVE",
"287 1152 CURVE",
"161 1121 LINE",
"173 1014 OFFCURVE",
"263 940 OFFCURVE",
"392 940 CURVE SMOOTH",
"521 940 OFFCURVE",
"611 1014 OFFCURVE",
"623 1121 CURVE"
);
}
);
width = 784;
},
{
layerId = "2A961F25-8D0E-4F3D-9AC7-EA5E11B6DCD4";
name = Regular;
width = 600;
}
);
leftKerningGroup = A;
rightKerningGroup = d;
unicode = 0102;
},
{
glyphname = Acircumflex;
lastChange = "2015-12-23 09:57:27 +0000";
layers = (
{
layerId = "A4E552E4-62BE-43BB-A58F-34F0EE3B77B8";
name = Bold;
paths = (
{
closed = 1;
nodes = (
"-28 0 LINE",
"174 0 LINE",
"235 165 LINE",
"549 165 LINE",
"610 0 LINE",
"812 0 LINE",
"479 825 LINE",
"305 825 LINE"
);
},
{
closed = 1;
nodes = (
"391 570 LINE",
"393 570 LINE",
"485 330 LINE",
"299 330 LINE"
);
},
{
closed = 1;
nodes = (
"392 1011 LINE",
"545 899 LINE",
"613 990 LINE",
"392 1152 LINE",
"171 990 LINE",
"239 899 LINE"
);
}
);
width = 784;
},
{
layerId = "2A961F25-8D0E-4F3D-9AC7-EA5E11B6DCD4";
name = Regular;
width = 600;
}
);
leftKerningGroup = A;
rightKerningGroup = d;
unicode = 00C2;
},
{
glyphname = Adieresis;
lastChange = "2015-12-23 09:57:27 +0000";
layers = (
{
layerId = "A4E552E4-62BE-43BB-A58F-34F0EE3B77B8";
name = Bold;
paths = (
{
closed = 1;
nodes = (
"-28 0 LINE",
"174 0 LINE",
"235 165 LINE",
"549 165 LINE",
"610 0 LINE",
"812 0 LINE",
"479 825 LINE",
"305 825 LINE"
);
},
{
closed = 1;
nodes = (
"391 570 LINE",
"393 570 LINE",
"485 330 LINE",
"299 330 LINE"
);
},
{
closed = 1;
nodes = (
"222 1103 OFFCURVE",
"181 1062 OFFCURVE",
"181 1011 CURVE SMOOTH",
"181 960 OFFCURVE",
"222 919 OFFCURVE",
"273 919 CURVE SMOOTH",
"324 919 OFFCURVE",
"365 960 OFFCURVE",
"365 1011 CURVE SMOOTH",
"365 1062 OFFCURVE",
"324 1103 OFFCURVE",
"273 1103 CURVE SMOOTH"
);
},
{
closed = 1;
nodes = (
"459 1103 OFFCURVE",
"418 1062 OFFCURVE",
"418 1011 CURVE SMOOTH",
"418 960 OFFCURVE",
"459 919 OFFCURVE",
"510 919 CURVE SMOOTH",
"561 919 OFFCURVE",
"602 960 OFFCURVE",
"602 1011 CURVE SMOOTH",
"602 1062 OFFCURVE",
"561 1103 OFFCURVE",
"510 1103 CURVE SMOOTH"
);
}
);
width = 784;
},
{
layerId = "2A961F25-8D0E-4F3D-9AC7-EA5E11B6DCD4";
name = Regular;
width = 600;
}
);
leftKerningGroup = A;
rightKerningGroup = d;
unicode = 00C4;
},
{
glyphname = Agrave;
lastChange = "2015-12-23 09:57:27 +0000";
layers = (
{
layerId = "A4E552E4-62BE-43BB-A58F-34F0EE3B77B8";
name = Bold;
paths = (
{
closed = 1;
nodes = (
"-28 0 LINE",
"174 0 LINE",
"235 165 LINE",
"549 165 LINE",
"610 0 LINE",
"812 0 LINE",
"479 825 LINE",
"305 825 LINE"
);
},
{
closed = 1;
nodes = (
"391 570 LINE",
"393 570 LINE",
"485 330 LINE",
"299 330 LINE"
);
},
{
closed = 1;
nodes = (
"394 899 LINE",
"450 976 LINE",
"247 1152 LINE",
"156 1037 LINE"
);
}
);
width = 784;
},
{
layerId = "2A961F25-8D0E-4F3D-9AC7-EA5E11B6DCD4";
name = Regular;
width = 600;
}
);
leftKerningGroup = A;
rightKerningGroup = d;
unicode = 00C0;
},
{
glyphname = Amacron;
lastChange = "2015-12-23 09:57:27 +0000";
layers = (
{
layerId = "A4E552E4-62BE-43BB-A58F-34F0EE3B77B8";
name = Bold;
paths = (
{
closed = 1;
nodes = (
"-28 0 LINE",
"174 0 LINE",
"235 165 LINE",
"549 165 LINE",
"610 0 LINE",
"812 0 LINE",
"479 825 LINE",
"305 825 LINE"
);
},
{
closed = 1;
nodes = (
"391 570 LINE",
"393 570 LINE",
"485 330 LINE",
"299 330 LINE"
);
},
{
closed = 1;
nodes = (
"596 946 LINE",
"596 1066 LINE",
"188 1066 LINE",
"188 946 LINE"
);
}
);
width = 784;
},
{
layerId = "2A961F25-8D0E-4F3D-9AC7-EA5E11B6DCD4";
name = Regular;
width = 600;
}
);
leftKerningGroup = A;
rightKerningGroup = d;
unicode = 0100;
},
{
glyphname = Aogonek;
lastChange = "2015-12-23 09:57:27 +0000";
layers = (
{
layerId = "A4E552E4-62BE-43BB-A58F-34F0EE3B77B8";
name = Bold;
paths = (
{
closed = 1;
nodes = (
"549 -245 OFFCURVE",
"623 -275 OFFCURVE",
"675 -275 CURVE SMOOTH",
"767 -275 OFFCURVE",
"812 -203 OFFCURVE",
"812 -203 CURVE",
"740 -149 LINE",
"740 -149 OFFCURVE",
"720 -179 OFFCURVE",
"689 -179 CURVE SMOOTH",
"672 -179 OFFCURVE",
"652 -165 OFFCURVE",
"652 -140 CURVE SMOOTH",
"652 -70 OFFCURVE",
"711 0 OFFCURVE",
"711 0 CURVE",
"812 0 LINE",
"479 825 LINE",
"305 825 LINE",
"-28 0 LINE",
"174 0 LINE",
"235 165 LINE",
"549 165 LINE",
"610 0 LINE",
"629 0 LINE",
"599 -36 OFFCURVE",
"549 -103 OFFCURVE",
"549 -158 CURVE SMOOTH"
);
},
{
closed = 1;
nodes = (
"391 570 LINE",
"393 570 LINE",
"485 330 LINE",
"299 330 LINE"
);
}
);
width = 784;
},
{
layerId = "2A961F25-8D0E-4F3D-9AC7-EA5E11B6DCD4";
name = Regular;
width = 600;
}
);
leftKerningGroup = A;
rightKerningGroup = d;
unicode = 0104;
},
{
glyphname = Aring;
lastChange = "2015-12-23 09:57:27 +0000";
layers = (
{
layerId = "A4E552E4-62BE-43BB-A58F-34F0EE3B77B8";
name = Bold;
paths = (
{
closed = 1;
nodes = (
"-28 0 LINE",
"174 0 LINE",
"235 165 LINE",
"549 165 LINE",
"610 0 LINE",
"812 0 LINE",
"479 825 LINE",
"305 825 LINE"
);
},
{
closed = 1;
nodes = (
"391 570 LINE",
"393 570 LINE",
"485 330 LINE",
"299 330 LINE"
);
},
{
closed = 1;
nodes = (
"231 961 OFFCURVE",
"296 902 OFFCURVE",
"392 902 CURVE SMOOTH",
"486 902 OFFCURVE",
"553 961 OFFCURVE",
"553 1045 CURVE SMOOTH",
"553 1128 OFFCURVE",
"483 1187 OFFCURVE",
"392 1187 CURVE SMOOTH",
"302 1187 OFFCURVE",
"231 1128 OFFCURVE",
"231 1045 CURVE SMOOTH"
);
},
{
closed = 1;
nodes = (
"331 1079 OFFCURVE",
"359 1107 OFFCURVE",
"392 1107 CURVE SMOOTH",
"426 1107 OFFCURVE",
"453 1079 OFFCURVE",
"453 1045 CURVE SMOOTH",
"453 1010 OFFCURVE",
"427 981 OFFCURVE",
"392 981 CURVE SMOOTH",
"356 981 OFFCURVE",
"331 1010 OFFCURVE",
"331 1045 CURVE SMOOTH"
);
}
);
width = 784;
},
{
layerId = "2A961F25-8D0E-4F3D-9AC7-EA5E11B6DCD4";
name = Regular;
width = 600;
}
);
leftKerningGroup = A;
rightKerningGroup = d;
unicode = 00C5;
},
{
glyphname = Atilde;
lastChange = "2015-12-23 09:57:27 +0000";
layers = (
{
layerId = "A4E552E4-62BE-43BB-A58F-34F0EE3B77B8";
name = Bold;
paths = (
{
closed = 1;
nodes = (
"-28 0 LINE",
"174 0 LINE",
"235 165 LINE",
"549 165 LINE",
"610 0 LINE",
"812 0 LINE",
"479 825 LINE",
"305 825 LINE"
);
},
{
closed = 1;
nodes = (
"391 570 LINE",
"393 570 LINE",
"485 330 LINE",
"299 330 LINE"
);
},
{
closed = 1;
nodes = (
"383 954 OFFCURVE",
"448 927 OFFCURVE",
"487 927 CURVE SMOOTH",
"597 927 OFFCURVE",
"623 1099 OFFCURVE",
"623 1099 CURVE SMOOTH",
"522 1099 LINE SMOOTH",
"522 1099 OFFCURVE",
"509 1053 OFFCURVE",
"477 1053 CURVE SMOOTH",
"441 1053 OFFCURVE",
"401 1072 OFFCURVE",
"401 1072 CURVE SMOOTH",
"401 1072 OFFCURVE",
"336 1099 OFFCURVE",
"297 1099 CURVE SMOOTH",
"187 1099 OFFCURVE",
"161 927 OFFCURVE",
"161 927 CURVE",
"262 927 LINE",
"262 927 OFFCURVE",
"275 973 OFFCURVE",
"307 973 CURVE SMOOTH",
"343 973 OFFCURVE",
"383 954 OFFCURVE",
"383 954 CURVE SMOOTH"
);
}
);
width = 784;
},
{
layerId = "2A961F25-8D0E-4F3D-9AC7-EA5E11B6DCD4";
name = Regular;
width = 600;
}
);
leftKerningGroup = A;
rightKerningGroup = d;
unicode = 00C3;
},
{
glyphname = AE;
lastChange = "2015-12-23 09:57:27 +0000";
layers = (
{
layerId = "A4E552E4-62BE-43BB-A58F-34F0EE3B77B8";
name = Bold;
paths = (
{
closed = 1;
nodes = (
"460 0 LINE",
"932 0 LINE",
"932 165 LINE",
"648 165 LINE",
"648 331 LINE",
"920 331 LINE",
"920 496 LINE",
"648 496 LINE",
"648 660 LINE",
"932 660 LINE",
"932 825 LINE",
"372 825 LINE",
"-5 0 LINE",
"197 0 LINE",
"267 165 LINE",
"460 165 LINE"
);
},
{
closed = 1;
nodes = (
"458 632 LINE",
"460 632 LINE",
"460 330 LINE",
"333 330 LINE"
);
}
);
width = 980;
},
{
layerId = "2A961F25-8D0E-4F3D-9AC7-EA5E11B6DCD4";
name = Regular;
width = 600;
}
);
rightKerningGroup = d;
unicode = 00C6;
},
{
glyphname = B;
lastChange = "2016-02-10 23:52:19 +0000";
layers = (
{
layerId = "A4E552E4-62BE-43BB-A58F-34F0EE3B77B8";
name = Bold;
paths = (
{
closed = 1;
nodes = (
"60 0 LINE",
"373 0 LINE SMOOTH",
"544 0 OFFCURVE",
"643 94 OFFCURVE",
"643 230 CURVE SMOOTH",
"643 363 OFFCURVE",
"570 420 OFFCURVE",
"467 438 CURVE",
"537 474 OFFCURVE",
"570 539 OFFCURVE",
"570 615 CURVE SMOOTH",
"570 772 OFFCURVE",
"458 825 OFFCURVE",
"316 825 CURVE SMOOTH",
"60 825 LINE"
);
},
{
closed = 1;
nodes = (
"248 340 LINE",
"307 340 LINE SMOOTH",
"396 340 OFFCURVE",
"445 313 OFFCURVE",
"445 237 CURVE SMOOTH",
"445 172 OFFCURVE",
"396 145 OFFCURVE",
"307 145 CURVE SMOOTH",
"248 145 LINE"
);
},
{
closed = 1;
nodes = (
"248 680 LINE",
"263 680 LINE SMOOTH",
"345 680 OFFCURVE",
"388 655 OFFCURVE",
"388 596 CURVE SMOOTH",
"388 527 OFFCURVE",
"344 502 OFFCURVE",
"263 502 CURVE SMOOTH",
"248 502 LINE"
);
}
);
width = 678;
},
{
layerId = "2A961F25-8D0E-4F3D-9AC7-EA5E11B6DCD4";
name = Regular;
paths = (
{
closed = 1;
nodes = (
"65 0 LINE",
"312 0 LINE SMOOTH",
"463 0 OFFCURVE",
"572 98 OFFCURVE",
"572 232 CURVE SMOOTH",
"572 355 OFFCURVE",
"479 427 OFFCURVE",
"407.864 441.146 CURVE",
"469 483 OFFCURVE",
"505 536 OFFCURVE",
"505 615 CURVE SMOOTH",
"505 748 OFFCURVE",
"402 825 OFFCURVE",
"251 825 CURVE SMOOTH",
"65 825 LINE"
);
},
{
closed = 1;
nodes = (
"157 380 LINE",
"295 380 LINE SMOOTH",
"410 380 OFFCURVE",
"474 329 OFFCURVE",
"474 228 CURVE SMOOTH",
"474 127 OFFCURVE",
"410 83 OFFCURVE",
"295 83 CURVE SMOOTH",
"157 83 LINE"
);
},
{
closed = 1;
nodes = (
"157 742 LINE",
"248 742 LINE SMOOTH",
"326 742 OFFCURVE",
"407 709 OFFCURVE",
"407 613 CURVE SMOOTH",
"407 515 OFFCURVE",
"323 462 OFFCURVE",
"248 462 CURVE SMOOTH",
"157 462 LINE"
);
}
);
width = 612;
}
);
leftMetricsKey = "=H";
rightKerningGroup = d;
rightMetricsKey = "=E";
unicode = 0042;
},
{
glyphname = C;
lastChange = "2016-02-10 23:52:19 +0000";
layers = (
{
layerId = "A4E552E4-62BE-43BB-A58F-34F0EE3B77B8";
name = Bold;
paths = (
{
closed = 1;
nodes = (
"325 170 OFFCURVE",
"242 302 OFFCURVE",
"242 413 CURVE SMOOTH",
"242 523 OFFCURVE",
"325 655 OFFCURVE",
"514 655 CURVE SMOOTH",
"610 655 OFFCURVE",
"676 604 OFFCURVE",
"676 604 CURVE",
"756 764 LINE",
"756 764 OFFCURVE",
"664 840 OFFCURVE",
"485 840 CURVE SMOOTH",
"251 840 OFFCURVE",
"38 648 OFFCURVE",
"38 411 CURVE SMOOTH",
"38 175 OFFCURVE",
"252 -15 OFFCURVE",
"485 -15 CURVE SMOOTH",
"664 -15 OFFCURVE",
"756 61 OFFCURVE",
"756 61 CURVE",
"676 221 LINE",
"676 221 OFFCURVE",
"610 170 OFFCURVE",
"514 170 CURVE SMOOTH"
);
}
);
width = 786;
},
{
layerId = "2A961F25-8D0E-4F3D-9AC7-EA5E11B6DCD4";
name = Regular;
paths = (
{
closed = 1;
nodes = (
"312 67 OFFCURVE",
"143 210 OFFCURVE",
"143 412 CURVE SMOOTH",
"143 617 OFFCURVE",
"318 758 OFFCURVE",
"489 758 CURVE SMOOTH",
"614 758 OFFCURVE",
"684 690 OFFCURVE",
"684 690 CURVE",
"732 759 LINE",
"732 759 OFFCURVE",
"643 840 OFFCURVE",
"496 840 CURVE SMOOTH",
"231 840 OFFCURVE",
"45 648 OFFCURVE",
"45 411 CURVE SMOOTH",
"45 180 OFFCURVE",
"222 -15 OFFCURVE",
"481 -15 CURVE SMOOTH",
"635 -15 OFFCURVE",
"729 68 OFFCURVE",
"729 68 CURVE",
"685 138 LINE",
"685 138 OFFCURVE",
"604 67 OFFCURVE",
"490 67 CURVE SMOOTH"
);
}
);
width = 767;
}
);
leftKerningGroup = C;
leftMetricsKey = "=O";
rightKerningGroup = C;
rightMetricsKey = "=E-5";
unicode = 0043;
},
{
glyphname = Cacute;
lastChange = "2015-12-23 09:57:27 +0000";
layers = (
{
layerId = "A4E552E4-62BE-43BB-A58F-34F0EE3B77B8";
name = Bold;
paths = (
{
closed = 1;
nodes = (
"595 170 OFFCURVE",
"661 221 OFFCURVE",
"661 221 CURVE",
"741 61 LINE",
"741 61 OFFCURVE",
"649 -15 OFFCURVE",
"470 -15 CURVE SMOOTH",
"237 -15 OFFCURVE",
"23 175 OFFCURVE",
"23 411 CURVE SMOOTH",
"23 648 OFFCURVE",
"236 840 OFFCURVE",
"470 840 CURVE SMOOTH",
"649 840 OFFCURVE",
"741 764 OFFCURVE",
"741 764 CURVE",
"661 604 LINE",
"661 604 OFFCURVE",
"595 655 OFFCURVE",
"499 655 CURVE SMOOTH",
"310 655 OFFCURVE",
"227 523 OFFCURVE",
"227 413 CURVE SMOOTH",
"227 302 OFFCURVE",
"310 170 OFFCURVE",
"499 170 CURVE SMOOTH"
);
},
{
closed = 1;
nodes = (
"565 1037 LINE",
"474 1152 LINE",
"271 976 LINE",
"327 899 LINE"
);
}
);
width = 753;
},
{
layerId = "2A961F25-8D0E-4F3D-9AC7-EA5E11B6DCD4";
name = Regular;
width = 600;
}
);
leftKerningGroup = C;
rightKerningGroup = C;
unicode = 0106;
},
{
glyphname = Ccaron;
lastChange = "2015-12-23 09:57:27 +0000";
layers = (
{
layerId = "A4E552E4-62BE-43BB-A58F-34F0EE3B77B8";
name = Bold;
paths = (
{
closed = 1;
nodes = (
"595 170 OFFCURVE",
"661 221 OFFCURVE",
"661 221 CURVE",
"741 61 LINE",
"741 61 OFFCURVE",
"649 -15 OFFCURVE",
"470 -15 CURVE SMOOTH",
"237 -15 OFFCURVE",
"23 175 OFFCURVE",
"23 411 CURVE SMOOTH",
"23 648 OFFCURVE",
"236 840 OFFCURVE",
"470 840 CURVE SMOOTH",
"649 840 OFFCURVE",
"741 764 OFFCURVE",
"741 764 CURVE",
"661 604 LINE",
"661 604 OFFCURVE",
"595 655 OFFCURVE",
"499 655 CURVE SMOOTH",
"310 655 OFFCURVE",
"227 523 OFFCURVE",
"227 413 CURVE SMOOTH",
"227 302 OFFCURVE",
"310 170 OFFCURVE",
"499 170 CURVE SMOOTH"
);
},
{
closed = 1;
nodes = (
"441 899 LINE",
"662 1061 LINE",
"594 1152 LINE",
"441 1040 LINE",
"288 1152 LINE",
"220 1061 LINE"
);
}
);
width = 753;
},
{
layerId = "2A961F25-8D0E-4F3D-9AC7-EA5E11B6DCD4";
name = Regular;
width = 600;
}
);
leftKerningGroup = C;
rightKerningGroup = C;
unicode = 010C;
},
{
glyphname = Ccedilla;
lastChange = "2015-12-23 09:57:27 +0000";
layers = (
{
layerId = "A4E552E4-62BE-43BB-A58F-34F0EE3B77B8";
name = Bold;
paths = (
{
closed = 1;
nodes = (
"310 170 OFFCURVE",
"227 302 OFFCURVE",
"227 413 CURVE SMOOTH",
"227 523 OFFCURVE",
"310 655 OFFCURVE",
"499 655 CURVE SMOOTH",
"595 655 OFFCURVE",
"661 604 OFFCURVE",
"661 604 CURVE",
"741 764 LINE",
"741 764 OFFCURVE",
"649 840 OFFCURVE",
"470 840 CURVE SMOOTH",
"236 840 OFFCURVE",
"23 648 OFFCURVE",
"23 411 CURVE SMOOTH",
"23 220 OFFCURVE",
"162 60 OFFCURVE",
"338 5 CURVE",
"297 -121 LINE",
"307 -129 LINE",
"307 -129 OFFCURVE",
"322 -120 OFFCURVE",
"358 -120 CURVE SMOOTH",
"386 -120 OFFCURVE",
"420 -134 OFFCURVE",
"420 -165 CURVE SMOOTH",
"420 -184 OFFCURVE",
"407 -204 OFFCURVE",
"370 -204 CURVE SMOOTH",
"324 -204 OFFCURVE",
"288 -157 OFFCURVE",
"288 -157 CURVE",
"216 -211 LINE",
"216 -211 OFFCURVE",
"280 -294 OFFCURVE",
"370 -294 CURVE SMOOTH",
"481 -294 OFFCURVE",
"522 -228 OFFCURVE",
"522 -165 CURVE SMOOTH",
"522 -96 OFFCURVE",
"448 -63 OFFCURVE",
"393 -63 CURVE",
"410 -11 LINE",
"430 -14 OFFCURVE",
"450 -15 OFFCURVE",
"470 -15 CURVE SMOOTH",
"649 -15 OFFCURVE",
"741 61 OFFCURVE",
"741 61 CURVE",
"661 221 LINE",
"661 221 OFFCURVE",
"595 170 OFFCURVE",
"499 170 CURVE SMOOTH"
);
}
);
width = 753;
},
{
layerId = "2A961F25-8D0E-4F3D-9AC7-EA5E11B6DCD4";
name = Regular;
width = 600;
}
);
leftKerningGroup = C;
rightKerningGroup = C;
unicode = 00C7;
},
{
glyphname = D;
lastChange = "2016-02-10 23:52:19 +0000";
layers = (
{
layerId = "A4E552E4-62BE-43BB-A58F-34F0EE3B77B8";
name = Bold;
paths = (
{
closed = 1;
nodes = (
"60 0 LINE",
"299 0 LINE SMOOTH",
"526 0 OFFCURVE",
"715 172 OFFCURVE",
"715 413 CURVE SMOOTH",
"715 653 OFFCURVE",
"525 825 OFFCURVE",
"299 825 CURVE SMOOTH",
"60 825 LINE"
);
},
{
closed = 1;
nodes = (
"277 657 LINE SMOOTH",
"417 657 OFFCURVE",
"512 550 OFFCURVE",
"512 412 CURVE SMOOTH",
"511 274 OFFCURVE",
"416 168 OFFCURVE",
"277 168 CURVE SMOOTH",
"248 168 LINE",
"248 657 LINE"
);
}
);
width = 753;
},
{
layerId = "2A961F25-8D0E-4F3D-9AC7-EA5E11B6DCD4";
name = Regular;
paths = (
{
closed = 1;
nodes = (
"65 0 LINE",
"238 0 LINE SMOOTH",
"475 0 OFFCURVE",
"674 173 OFFCURVE",
"674 410 CURVE SMOOTH",
"674 654 OFFCURVE",
"464 825 OFFCURVE",
"238 825 CURVE SMOOTH",
"65 825 LINE"
);
},
{
closed = 1;
nodes = (
"235 740 LINE SMOOTH",
"425 740 OFFCURVE",
"576 591 OFFCURVE",
"576 410 CURVE SMOOTH",
"576 235 OFFCURVE",
"435 85 OFFCURVE",
"235 85 CURVE SMOOTH",
"157 85 LINE",
"157 740 LINE"
);
}
);
width = 719;
}
);
leftMetricsKey = "=H";
rightKerningGroup = d;
rightMetricsKey = "=O";
unicode = 0044;
},
{
glyphname = Eth;
lastChange = "2015-12-23 09:57:27 +0000";
layers = (
{
layerId = "A4E552E4-62BE-43BB-A58F-34F0EE3B77B8";
name = Bold;
paths = (
{
closed = 1;
nodes = (
"98 0 LINE",
"337 0 LINE SMOOTH",
"563 0 OFFCURVE",
"752 171 OFFCURVE",
"753 412 CURVE SMOOTH",
"753 653 OFFCURVE",
"564 825 OFFCURVE",
"337 825 CURVE SMOOTH",
"98 825 LINE",
"98 489 LINE",
"16 489 LINE",
"16 336 LINE",
"98 336 LINE"
);
},
{
closed = 1;
nodes = (
"550 275 OFFCURVE",
"455 168 OFFCURVE",
"315 168 CURVE SMOOTH",
"286 168 LINE",
"286 336 LINE",
"395 336 LINE",
"395 489 LINE",
"286 489 LINE",
"286 657 LINE",
"315 657 LINE SMOOTH",
"454 657 OFFCURVE",
"549 550 OFFCURVE",
"550 413 CURVE SMOOTH"
);
}
);
width = 776;
},
{
layerId = "2A961F25-8D0E-4F3D-9AC7-EA5E11B6DCD4";
name = Regular;
width = 600;
}
);
rightKerningGroup = d;
unicode = 00D0;
},
{
glyphname = Dcaron;
lastChange = "2015-12-23 09:57:27 +0000";
layers = (
{
layerId = "A4E552E4-62BE-43BB-A58F-34F0EE3B77B8";
name = Bold;
paths = (
{
closed = 1;
nodes = (
"60 0 LINE",
"299 0 LINE SMOOTH",
"526 0 OFFCURVE",
"715 172 OFFCURVE",
"715 413 CURVE SMOOTH",
"715 653 OFFCURVE",
"525 825 OFFCURVE",
"299 825 CURVE SMOOTH",
"60 825 LINE"
);
},
{
closed = 1;
nodes = (
"277 657 LINE SMOOTH",
"417 657 OFFCURVE",
"512 550 OFFCURVE",
"512 412 CURVE SMOOTH",
"511 274 OFFCURVE",
"416 168 OFFCURVE",
"277 168 CURVE SMOOTH",
"248 168 LINE",
"248 657 LINE"
);
},
{
closed = 1;
nodes = (
"360 899 LINE",
"581 1061 LINE",
"513 1152 LINE",
"360 1040 LINE",
"207 1152 LINE",
"139 1061 LINE"
);
}
);
width = 738;
},
{
layerId = "2A961F25-8D0E-4F3D-9AC7-EA5E11B6DCD4";
name = Regular;
width = 600;
}
);
rightKerningGroup = d;
unicode = 010E;
},
{
glyphname = Dcroat;
lastChange = "2015-12-23 09:57:27 +0000";
layers = (
{
layerId = "A4E552E4-62BE-43BB-A58F-34F0EE3B77B8";
name = Bold;
paths = (
{
closed = 1;
nodes = (
"16 336 LINE",
"98 336 LINE",
"98 0 LINE",
"337 0 LINE SMOOTH",
"564 0 OFFCURVE",
"753 172 OFFCURVE",
"753 413 CURVE SMOOTH",
"753 653 OFFCURVE",
"563 825 OFFCURVE",
"337 825 CURVE SMOOTH",
"98 825 LINE",
"98 489 LINE",
"16 489 LINE"
);
},
{
closed = 1;
nodes = (
"315 657 LINE SMOOTH",
"455 657 OFFCURVE",
"550 550 OFFCURVE",
"550 412 CURVE SMOOTH",
"549 274 OFFCURVE",
"454 168 OFFCURVE",
"315 168 CURVE SMOOTH",
"286 168 LINE",
"286 336 LINE",
"395 336 LINE",
"395 489 LINE",
"286 489 LINE",
"286 657 LINE"
);
}
);
width = 776;
},
{
layerId = "2A961F25-8D0E-4F3D-9AC7-EA5E11B6DCD4";
name = Regular;
width = 600;
}
);
rightKerningGroup = d;
unicode = 0110;
},
{
glyphname = E;
lastChange = "2016-01-24 18:07:35 +0000";
layers = (
{
layerId = "A4E552E4-62BE-43BB-A58F-34F0EE3B77B8";
name = Bold;
paths = (
{
closed = 1;
nodes = (
"60 0 LINE",
"532 0 LINE",
"532 165 LINE",
"248 165 LINE",
"248 331 LINE",
"520 331 LINE",
"520 496 LINE",
"248 496 LINE",
"248 660 LINE",
"532 660 LINE",
"532 825 LINE",
"60 825 LINE"
);
}
);
width = 567;
},
{
layerId = "2A961F25-8D0E-4F3D-9AC7-EA5E11B6DCD4";
name = Regular;
paths = (
{
closed = 1;
nodes = (
"65 0 LINE",
"507 0 LINE",
"507 83 LINE",
"157 83 LINE",
"157 379 LINE",
"487 379 LINE",
"487 462 LINE",
"157 462 LINE",
"157 742 LINE",
"507 742 LINE",
"507 825 LINE",
"65 825 LINE"
);
}
);
width = 547;
}
);
leftMetricsKey = "=H";
rightKerningGroup = E;
rightMetricsKey = "=H-25";
unicode = 0045;
},
{
glyphname = Eacute;
lastChange = "2015-12-23 09:57:27 +0000";
layers = (
{
layerId = "A4E552E4-62BE-43BB-A58F-34F0EE3B77B8";
name = Bold;
paths = (
{
closed = 1;
nodes = (
"60 0 LINE",
"532 0 LINE",
"532 165 LINE",
"248 165 LINE",
"248 331 LINE",
"520 331 LINE",
"520 496 LINE",
"248 496 LINE",
"248 660 LINE",
"532 660 LINE",
"532 825 LINE",
"60 825 LINE"
);
},
{
closed = 1;
nodes = (
"466 1037 LINE",
"375 1152 LINE",
"172 976 LINE",
"228 899 LINE"
);
}
);
width = 580;
},
{
layerId = "2A961F25-8D0E-4F3D-9AC7-EA5E11B6DCD4";
name = Regular;
width = 600;
}
);
rightKerningGroup = E;
unicode = 00C9;
},
{
glyphname = Ecaron;
lastChange = "2015-12-23 09:57:27 +0000";
layers = (
{
layerId = "A4E552E4-62BE-43BB-A58F-34F0EE3B77B8";
name = Bold;
paths = (
{
closed = 1;
nodes = (
"60 0 LINE",
"532 0 LINE",
"532 165 LINE",
"248 165 LINE",
"248 331 LINE",
"520 331 LINE",
"520 496 LINE",
"248 496 LINE",
"248 660 LINE",
"532 660 LINE",
"532 825 LINE",
"60 825 LINE"
);
},
{
closed = 1;
nodes = (
"290 899 LINE",
"511 1061 LINE",
"443 1152 LINE",
"290 1040 LINE",
"137 1152 LINE",
"69 1061 LINE"
);
}
);
width = 580;
},
{
layerId = "2A961F25-8D0E-4F3D-9AC7-EA5E11B6DCD4";
name = Regular;
width = 600;
}
);
rightKerningGroup = E;
unicode = 011A;
},
{
glyphname = Ecircumflex;
lastChange = "2015-12-23 09:57:27 +0000";
layers = (
{
layerId = "A4E552E4-62BE-43BB-A58F-34F0EE3B77B8";
name = Bold;
paths = (
{
closed = 1;
nodes = (
"60 0 LINE",
"532 0 LINE",
"532 165 LINE",
"248 165 LINE",
"248 331 LINE",
"520 331 LINE",
"520 496 LINE",
"248 496 LINE",
"248 660 LINE",
"532 660 LINE",
"532 825 LINE",
"60 825 LINE"
);
},
{
closed = 1;
nodes = (
"290 1011 LINE",
"443 899 LINE",
"511 990 LINE",
"290 1152 LINE",
"69 990 LINE",
"137 899 LINE"
);
}
);
width = 580;
},
{
layerId = "2A961F25-8D0E-4F3D-9AC7-EA5E11B6DCD4";
name = Regular;
width = 600;
}
);
rightKerningGroup = E;
unicode = 00CA;
},
{
glyphname = Edieresis;
lastChange = "2015-12-23 09:57:27 +0000";
layers = (
{
layerId = "A4E552E4-62BE-43BB-A58F-34F0EE3B77B8";
name = Bold;
paths = (
{
closed = 1;
nodes = (
"60 0 LINE",
"532 0 LINE",
"532 165 LINE",
"248 165 LINE",
"248 331 LINE",
"520 331 LINE",
"520 496 LINE",
"248 496 LINE",
"248 660 LINE",
"532 660 LINE",
"532 825 LINE",
"60 825 LINE"
);
},
{
closed = 1;
nodes = (
"120 1103 OFFCURVE",
"79 1062 OFFCURVE",
"79 1011 CURVE SMOOTH",
"79 960 OFFCURVE",
"120 919 OFFCURVE",
"171 919 CURVE SMOOTH",
"222 919 OFFCURVE",
"263 960 OFFCURVE",
"263 1011 CURVE SMOOTH",
"263 1062 OFFCURVE",
"222 1103 OFFCURVE",
"171 1103 CURVE SMOOTH"
);
},
{
closed = 1;
nodes = (
"357 1103 OFFCURVE",
"316 1062 OFFCURVE",
"316 1011 CURVE SMOOTH",
"316 960 OFFCURVE",
"357 919 OFFCURVE",
"408 919 CURVE SMOOTH",
"459 919 OFFCURVE",
"500 960 OFFCURVE",
"500 1011 CURVE SMOOTH",
"500 1062 OFFCURVE",
"459 1103 OFFCURVE",
"408 1103 CURVE SMOOTH"
);
}
);
width = 580;
},
{
layerId = "2A961F25-8D0E-4F3D-9AC7-EA5E11B6DCD4";
name = Regular;
width = 600;
}
);
rightKerningGroup = E;
unicode = 00CB;
},
{
glyphname = Edotaccent;
lastChange = "2015-12-23 09:57:27 +0000";
layers = (
{
layerId = "A4E552E4-62BE-43BB-A58F-34F0EE3B77B8";
name = Bold;
paths = (
{
closed = 1;
nodes = (
"60 0 LINE",
"532 0 LINE",
"532 165 LINE",
"248 165 LINE",
"248 331 LINE",
"520 331 LINE",
"520 496 LINE",
"248 496 LINE",
"248 660 LINE",
"532 660 LINE",
"532 825 LINE",
"60 825 LINE"
);
},
{
closed = 1;
nodes = (
"239 1103 OFFCURVE",
"198 1062 OFFCURVE",
"198 1011 CURVE SMOOTH",
"198 960 OFFCURVE",
"239 919 OFFCURVE",
"290 919 CURVE SMOOTH",
"341 919 OFFCURVE",
"382 960 OFFCURVE",
"382 1011 CURVE SMOOTH",
"382 1062 OFFCURVE",
"341 1103 OFFCURVE",
"290 1103 CURVE SMOOTH"
);
}
);
width = 580;
},
{
layerId = "2A961F25-8D0E-4F3D-9AC7-EA5E11B6DCD4";
name = Regular;
width = 600;
}
);
rightKerningGroup = E;
unicode = 0116;
},
{
glyphname = Egrave;
lastChange = "2015-12-23 09:57:27 +0000";
layers = (
{
layerId = "A4E552E4-62BE-43BB-A58F-34F0EE3B77B8";
name = Bold;
paths = (
{
closed = 1;
nodes = (
"60 0 LINE",
"532 0 LINE",
"532 165 LINE",
"248 165 LINE",
"248 331 LINE",
"520 331 LINE",
"520 496 LINE",
"248 496 LINE",
"248 660 LINE",
"532 660 LINE",
"532 825 LINE",
"60 825 LINE"
);
},
{
closed = 1;
nodes = (
"292 899 LINE",
"348 976 LINE",
"145 1152 LINE",
"54 1037 LINE"
);
}
);
width = 580;
},
{
layerId = "2A961F25-8D0E-4F3D-9AC7-EA5E11B6DCD4";
name = Regular;
width = 600;
}
);
rightKerningGroup = E;
unicode = 00C8;
},
{
glyphname = Emacron;
lastChange = "2015-12-23 09:57:27 +0000";
layers = (
{
layerId = "A4E552E4-62BE-43BB-A58F-34F0EE3B77B8";
name = Bold;
paths = (
{
closed = 1;
nodes = (
"60 0 LINE",
"532 0 LINE",
"532 165 LINE",
"248 165 LINE",
"248 331 LINE",
"520 331 LINE",
"520 496 LINE",
"248 496 LINE",
"248 660 LINE",
"532 660 LINE",
"532 825 LINE",
"60 825 LINE"
);
},
{
closed = 1;
nodes = (
"494 946 LINE",
"494 1066 LINE",
"86 1066 LINE",
"86 946 LINE"
);
}
);
width = 580;
},
{
layerId = "2A961F25-8D0E-4F3D-9AC7-EA5E11B6DCD4";
name = Regular;
width = 600;
}
);
rightKerningGroup = E;
unicode = 0112;
},
{
glyphname = Eogonek;
lastChange = "2015-12-23 09:57:27 +0000";
layers = (
{
layerId = "A4E552E4-62BE-43BB-A58F-34F0EE3B77B8";
name = Bold;
paths = (
{
closed = 1;
nodes = (
"60 0 LINE",
"353 0 LINE",
"323 -36 OFFCURVE",
"273 -103 OFFCURVE",
"273 -158 CURVE SMOOTH",
"273 -245 OFFCURVE",
"347 -275 OFFCURVE",
"399 -275 CURVE SMOOTH",
"491 -275 OFFCURVE",
"536 -203 OFFCURVE",
"536 -203 CURVE",
"464 -149 LINE",
"464 -149 OFFCURVE",
"444 -179 OFFCURVE",
"413 -179 CURVE SMOOTH",
"396 -179 OFFCURVE",
"376 -165 OFFCURVE",
"376 -140 CURVE SMOOTH",
"376 -70 OFFCURVE",
"435 0 OFFCURVE",
"435 0 CURVE",
"532 0 LINE",
"532 165 LINE",
"248 165 LINE",
"248 331 LINE",
"520 331 LINE",
"520 496 LINE",
"248 496 LINE",
"248 660 LINE",
"532 660 LINE",
"532 825 LINE",
"60 825 LINE"
);
}
);
width = 580;
},
{
layerId = "2A961F25-8D0E-4F3D-9AC7-EA5E11B6DCD4";
name = Regular;
width = 600;
}
);
rightKerningGroup = E;
unicode = 0118;
},
{
glyphname = F;
lastChange = "2016-01-31 21:54:26 +0000";
layers = (
{
layerId = "A4E552E4-62BE-43BB-A58F-34F0EE3B77B8";
name = Bold;
paths = (
{
closed = 1;
nodes = (
"60 0 LINE",
"248 0 LINE",
"248 331 LINE",
"515 331 LINE",
"515 496 LINE",
"248 496 LINE",
"248 660 LINE",
"537 660 LINE",
"537 825 LINE",
"60 825 LINE"
);
}
);
width = 564;
},
{
layerId = "2A961F25-8D0E-4F3D-9AC7-EA5E11B6DCD4";
name = Regular;
paths = (
{
closed = 1;
nodes = (
"65 0 LINE",
"157 0 LINE",
"157 379 LINE",
"489 379 LINE",
"489 462 LINE",
"157 462 LINE",
"157 742 LINE",
"517 742 LINE",
"517 825 LINE",
"65 825 LINE"
);
}
);
width = 549;
}
);
leftMetricsKey = "=H";
rightKerningGroup = d;
rightMetricsKey = "=E-8";
unicode = 0046;
},
{
glyphname = G;
lastChange = "2016-01-31 21:54:26 +0000";
layers = (
{
layerId = "A4E552E4-62BE-43BB-A58F-34F0EE3B77B8";
name = Bold;
paths = (
{
closed = 1;
nodes = (
"440 317 LINE",
"630 317 LINE",
"630 216 OFFCURVE",
"541 158 OFFCURVE",
"451 158 CURVE SMOOTH",
"335 158 OFFCURVE",
"241 272 OFFCURVE",
"241 412 CURVE SMOOTH",
"241 555 OFFCURVE",
"335 670 OFFCURVE",
"451 670 CURVE SMOOTH",
"524 670 OFFCURVE",
"587 641 OFFCURVE",
"635 564 CURVE",
"758 699 LINE",
"686 786 OFFCURVE",
"585 840 OFFCURVE",
"440 840 CURVE SMOOTH",
"208 840 OFFCURVE",
"38 649 OFFCURVE",
"38 412 CURVE SMOOTH",
"38 176 OFFCURVE",
"218 -15 OFFCURVE",
"440 -15 CURVE SMOOTH",
"602 -15 OFFCURVE",
"776 74 OFFCURVE",
"821 283 CURVE",
"821 462 LINE",
"440 462 LINE"
);
}
);
width = 876;
},
{
layerId = "2A961F25-8D0E-4F3D-9AC7-EA5E11B6DCD4";
name = Regular;
paths = (
{
closed = 1;
nodes = (
"457 350 LINE",
"723 350 LINE",
"729 193 OFFCURVE",
"602 67 OFFCURVE",
"450 67 CURVE SMOOTH",
"289 67 OFFCURVE",
"143 210 OFFCURVE",
"143 412 CURVE SMOOTH",
"143 617 OFFCURVE",
"292 758 OFFCURVE",
"458 758 CURVE SMOOTH",
"551 758 OFFCURVE",
"632 709 OFFCURVE",
"693 629 CURVE",
"754 692 LINE",
"690 774 OFFCURVE",
"589 840 OFFCURVE",
"461 840 CURVE SMOOTH",
"216 840 OFFCURVE",
"45 649 OFFCURVE",
"45 412 CURVE SMOOTH",
"45 176 OFFCURVE",
"225 -15 OFFCURVE",
"447 -15 CURVE SMOOTH",
"609 -15 OFFCURVE",
"808 106 OFFCURVE",
"828 343 CURVE",
"828 432 LINE",
"457 432 LINE"
);
}
);
width = 888;
}
);
leftKerningGroup = G;
leftMetricsKey = "=O";
rightKerningGroup = d;
rightMetricsKey = "=H-5";
unicode = 0047;
},
{
glyphname = Gcommaaccent;
lastChange = "2015-12-23 09:57:27 +0000";
layers = (
{
layerId = "A4E552E4-62BE-43BB-A58F-34F0EE3B77B8";
name = Bold;
paths = (
{
closed = 1;
nodes = (
"425 317 LINE",
"615 317 LINE",
"615 216 OFFCURVE",
"526 158 OFFCURVE",
"436 158 CURVE SMOOTH",
"320 158 OFFCURVE",
"226 272 OFFCURVE",
"226 412 CURVE SMOOTH",
"226 555 OFFCURVE",
"320 670 OFFCURVE",
"436 670 CURVE SMOOTH",
"509 670 OFFCURVE",
"572 641 OFFCURVE",
"620 564 CURVE",
"743 699 LINE",
"671 786 OFFCURVE",
"570 840 OFFCURVE",
"425 840 CURVE SMOOTH",
"193 840 OFFCURVE",
"23 649 OFFCURVE",
"23 412 CURVE SMOOTH",
"23 176 OFFCURVE",
"203 -15 OFFCURVE",
"425 -15 CURVE SMOOTH",
"587 -15 OFFCURVE",
"761 74 OFFCURVE",
"806 283 CURVE",
"806 462 LINE",
"425 462 LINE"
);
},
{
closed = 1;
nodes = (
"463 -40 OFFCURVE",
"503 -80 OFFCURVE",
"503 -130 CURVE SMOOTH",
"503 -223 OFFCURVE",
"436 -299 OFFCURVE",
"373 -351 CURVE",
"333 -320 LINE",
"333 -320 OFFCURVE",
"380 -275 OFFCURVE",
"392 -210 CURVE",
"354 -201 OFFCURVE",
"325 -170 OFFCURVE",
"325 -130 CURVE SMOOTH",
"325 -80 OFFCURVE",
"365 -40 OFFCURVE",
"413 -40 CURVE SMOOTH"
);
}
);
width = 829;
},
{
layerId = "2A961F25-8D0E-4F3D-9AC7-EA5E11B6DCD4";
name = Regular;
width = 600;
}
);
leftKerningGroup = G;
rightKerningGroup = d;
unicode = 0122;
},
{
glyphname = H;
lastChange = "2016-01-24 18:01:41 +0000";
layers = (
{
layerId = "A4E552E4-62BE-43BB-A58F-34F0EE3B77B8";
name = Bold;
paths = (
{
closed = 1;
nodes = (
"514 0 LINE",
"702 0 LINE",
"702 825 LINE",
"514 825 LINE",
"514 496 LINE",
"248 496 LINE",
"248 825 LINE",
"60 825 LINE",
"60 0 LINE",
"248 0 LINE",
"248 331 LINE",
"514 331 LINE"
);
}
);
width = 762;
},
{
layerId = "2A961F25-8D0E-4F3D-9AC7-EA5E11B6DCD4";
name = Regular;
paths = (
{
closed = 1;
nodes = (
"525 0 LINE",
"617 0 LINE",
"617 825 LINE",
"525 825 LINE",
"525 462 LINE",
"157 462 LINE",
"157 825 LINE",
"65 825 LINE",
"65 0 LINE",
"157 0 LINE",
"157 379 LINE",
"525 379 LINE"
);
}
);
width = 682;
}
);
rightKerningGroup = d;
unicode = 0048;
},
{
glyphname = I;
lastChange = "2016-01-31 21:40:43 +0000";
layers = (
{
layerId = "A4E552E4-62BE-43BB-A58F-34F0EE3B77B8";
name = Bold;
paths = (
{
closed = 1;
nodes = (
"60 0 LINE",
"248 0 LINE",
"248 825 LINE",
"60 825 LINE"
);
}
);
width = 308;
},
{
layerId = "2A961F25-8D0E-4F3D-9AC7-EA5E11B6DCD4";
name = Regular;
paths = (
{
closed = 1;
nodes = (
"65 0 LINE",
"157 0 LINE",
"157 825 LINE",
"65 825 LINE"
);
}
);
width = 222;
}
);
leftKerningGroup = i;
leftMetricsKey = "=H";
rightKerningGroup = d;
rightMetricsKey = "=H";
unicode = 0049;
},
{
glyphname = Iacute;
lastChange = "2015-12-23 09:57:27 +0000";
layers = (
{
layerId = "A4E552E4-62BE-43BB-A58F-34F0EE3B77B8";
name = Bold;
paths = (
{
closed = 1;
nodes = (
"60 0 LINE",
"248 0 LINE",
"248 825 LINE",
"60 825 LINE"
);
},
{
closed = 1;
nodes = (
"350 1037 LINE",
"259 1152 LINE",
"56 976 LINE",
"112 899 LINE"
);
}
);
width = 308;
},
{
layerId = "2A961F25-8D0E-4F3D-9AC7-EA5E11B6DCD4";
name = Regular;
width = 600;
}
);
leftKerningGroup = i;
rightKerningGroup = d;
unicode = 00CD;
},
{
glyphname = Icircumflex;
lastChange = "2015-12-23 09:57:27 +0000";
layers = (
{
layerId = "A4E552E4-62BE-43BB-A58F-34F0EE3B77B8";
name = Bold;
paths = (
{
closed = 1;
nodes = (
"60 0 LINE",
"248 0 LINE",
"248 825 LINE",
"60 825 LINE"
);
},
{
closed = 1;
nodes = (
"154 1011 LINE",
"307 899 LINE",
"375 990 LINE",
"154 1152 LINE",
"-67 990 LINE",
"1 899 LINE"
);
}
);
width = 308;
},
{
layerId = "2A961F25-8D0E-4F3D-9AC7-EA5E11B6DCD4";
name = Regular;
width = 600;
}
);
leftKerningGroup = Icircumflex;
rightKerningGroup = Icircumflex;
unicode = 00CE;
},
{
glyphname = Idieresis;
lastChange = "2015-12-23 09:57:27 +0000";
layers = (
{
layerId = "A4E552E4-62BE-43BB-A58F-34F0EE3B77B8";
name = Bold;
paths = (
{
closed = 1;
nodes = (
"60 0 LINE",
"248 0 LINE",
"248 825 LINE",
"60 825 LINE"
);
},
{
closed = 1;
nodes = (
"-15 1103 OFFCURVE",
"-56 1062 OFFCURVE",
"-56 1011 CURVE SMOOTH",
"-56 960 OFFCURVE",
"-15 919 OFFCURVE",
"36 919 CURVE SMOOTH",
"87 919 OFFCURVE",
"128 960 OFFCURVE",
"128 1011 CURVE SMOOTH",
"128 1062 OFFCURVE",
"87 1103 OFFCURVE",
"36 1103 CURVE SMOOTH"
);
},
{
closed = 1;
nodes = (
"222 1103 OFFCURVE",
"181 1062 OFFCURVE",
"181 1011 CURVE SMOOTH",
"181 960 OFFCURVE",
"222 919 OFFCURVE",
"273 919 CURVE SMOOTH",
"324 919 OFFCURVE",
"365 960 OFFCURVE",
"365 1011 CURVE SMOOTH",
"365 1062 OFFCURVE",
"324 1103 OFFCURVE",
"273 1103 CURVE SMOOTH"
);
}
);
width = 308;
},
{
layerId = "2A961F25-8D0E-4F3D-9AC7-EA5E11B6DCD4";
name = Regular;
width = 600;
}
);
leftKerningGroup = Icircumflex;
rightKerningGroup = Icircumflex;
unicode = 00CF;
},
{
glyphname = Igrave;
lastChange = "2015-12-23 09:57:27 +0000";
layers = (
{
layerId = "A4E552E4-62BE-43BB-A58F-34F0EE3B77B8";
name = Bold;
paths = (
{
closed = 1;
nodes = (
"60 0 LINE",
"248 0 LINE",
"248 825 LINE",
"60 825 LINE"
);
},
{
closed = 1;
nodes = (
"156 899 LINE",
"212 976 LINE",
"9 1152 LINE",
"-82 1037 LINE"
);
}
);
width = 308;
},
{
layerId = "2A961F25-8D0E-4F3D-9AC7-EA5E11B6DCD4";
name = Regular;
width = 600;
}
);
leftKerningGroup = i;
rightKerningGroup = d;
unicode = 00CC;
},
{
glyphname = Imacron;
lastChange = "2015-12-23 09:57:27 +0000";
layers = (
{
layerId = "A4E552E4-62BE-43BB-A58F-34F0EE3B77B8";
name = Bold;
paths = (
{
closed = 1;
nodes = (
"60 0 LINE",
"248 0 LINE",
"248 825 LINE",
"60 825 LINE"
);
},
{
closed = 1;
nodes = (
"358 946 LINE",
"358 1066 LINE",
"-50 1066 LINE",
"-50 946 LINE"
);
}
);
width = 308;
},
{
layerId = "2A961F25-8D0E-4F3D-9AC7-EA5E11B6DCD4";
name = Regular;
width = 600;
}
);
leftKerningGroup = Icircumflex;
rightKerningGroup = Icircumflex;
unicode = 012A;
},
{
glyphname = Iogonek;
lastChange = "2015-12-23 09:57:27 +0000";
layers = (
{
layerId = "A4E552E4-62BE-43BB-A58F-34F0EE3B77B8";
name = Bold;
paths = (
{
closed = 1;
nodes = (
"60 0 LINE",
"113 0 LINE",
"83 -36 OFFCURVE",
"33 -103 OFFCURVE",
"33 -158 CURVE SMOOTH",
"33 -245 OFFCURVE",
"107 -275 OFFCURVE",
"159 -275 CURVE SMOOTH",
"251 -275 OFFCURVE",
"296 -203 OFFCURVE",
"296 -203 CURVE",
"224 -149 LINE",
"224 -149 OFFCURVE",
"204 -179 OFFCURVE",
"173 -179 CURVE SMOOTH",
"156 -179 OFFCURVE",
"136 -165 OFFCURVE",
"136 -140 CURVE SMOOTH",
"136 -70 OFFCURVE",
"195 0 OFFCURVE",
"195 0 CURVE",
"248 0 LINE",
"248 825 LINE",
"60 825 LINE"
);
}
);
width = 308;
},
{
layerId = "2A961F25-8D0E-4F3D-9AC7-EA5E11B6DCD4";
name = Regular;
width = 600;
}
);
rightKerningGroup = d;
unicode = 012E;
},
{
glyphname = J;
lastChange = "2016-01-31 21:40:35 +0000";
layers = (
{
layerId = "A4E552E4-62BE-43BB-A58F-34F0EE3B77B8";
name = Bold;
paths = (
{
closed = 1;
nodes = (
"422 825 LINE",
"234 825 LINE",
"234 281 LINE SMOOTH",
"234 198 OFFCURVE",
"193 165 OFFCURVE",
"139 165 CURVE SMOOTH",
"91 165 OFFCURVE",
"32 221 OFFCURVE",
"32 221 CURVE",
"-28 64 LINE",
"-28 64 OFFCURVE",
"47 -15 OFFCURVE",
"165 -15 CURVE SMOOTH",
"330 -15 OFFCURVE",
"422 71 OFFCURVE",
"422 233 CURVE SMOOTH"
);
}
);
width = 482;
},
{
layerId = "2A961F25-8D0E-4F3D-9AC7-EA5E11B6DCD4";
name = Regular;
paths = (
{
closed = 1;
nodes = (
"389 825 LINE",
"297 825 LINE",
"297 235 LINE SMOOTH",
"297 131 OFFCURVE",
"265 72 OFFCURVE",
"174 72 CURVE SMOOTH",
"71 72 OFFCURVE",
"19 149 OFFCURVE",
"19 149 CURVE",
"-12 68 LINE",
"-12 68 OFFCURVE",
"43 -15 OFFCURVE",
"179 -15 CURVE SMOOTH",
"301 -15 OFFCURVE",
"389 51 OFFCURVE",
"389 234 CURVE SMOOTH"
);
}
);
width = 454;
}
);
leftMetricsKey = "=A";
rightKerningGroup = d;
rightMetricsKey = "=H";
unicode = 004A;
},
{
glyphname = K;
lastChange = "2016-01-31 21:54:26 +0000";
layers = (
{
layerId = "A4E552E4-62BE-43BB-A58F-34F0EE3B77B8";
name = Bold;
paths = (
{
closed = 1;
nodes = (
"759 825 LINE",
"531 825 LINE",
"248 488 LINE",
"248 825 LINE",
"60 825 LINE",
"60 0 LINE",
"248 0 LINE",
"248 350 LINE",
"552 0 LINE",
"811 0 LINE",
"427 434 LINE"
);
}
);
width = 783;
},
{
layerId = "2A961F25-8D0E-4F3D-9AC7-EA5E11B6DCD4";
name = Regular;
paths = (
{
closed = 1;
nodes = (
"589 825 LINE",
"471 825 LINE",
"157 440.418 LINE",
"157 825 LINE",
"65 825 LINE",
"65 0 LINE",
"157 0 LINE",
"157 385.65 LINE",
"496 0 LINE",
"617 0 LINE",
"246 417 LINE"
);
}
);
width = 605;
}
);
leftMetricsKey = "=H";
rightKerningGroup = d;
rightMetricsKey = "=X";
unicode = 004B;
},
{
glyphname = Kcommaaccent;
lastChange = "2015-12-23 09:57:27 +0000";
layers = (
{
layerId = "A4E552E4-62BE-43BB-A58F-34F0EE3B77B8";
name = Bold;
paths = (
{
closed = 1;
nodes = (
"759 825 LINE",
"531 825 LINE",
"248 488 LINE",
"248 825 LINE",
"60 825 LINE",
"60 0 LINE",
"248 0 LINE",
"248 350 LINE",
"552 0 LINE",
"811 0 LINE",
"427 434 LINE"
);
},
{
closed = 1;
nodes = (
"442 -40 OFFCURVE",
"482 -80 OFFCURVE",
"482 -130 CURVE SMOOTH",
"482 -223 OFFCURVE",
"415 -299 OFFCURVE",
"352 -351 CURVE",
"312 -320 LINE",
"312 -320 OFFCURVE",
"359 -275 OFFCURVE",
"371 -210 CURVE",
"333 -201 OFFCURVE",
"304 -170 OFFCURVE",
"304 -130 CURVE SMOOTH",
"304 -80 OFFCURVE",
"344 -40 OFFCURVE",
"392 -40 CURVE SMOOTH"
);
}
);
width = 787;
},
{
layerId = "2A961F25-8D0E-4F3D-9AC7-EA5E11B6DCD4";
name = Regular;
width = 600;
}
);
rightKerningGroup = d;
unicode = 0136;
},
{
glyphname = L;
lastChange = "2016-02-10 23:52:19 +0000";
layers = (
{
layerId = "A4E552E4-62BE-43BB-A58F-34F0EE3B77B8";
name = Bold;
paths = (
{
closed = 1;
nodes = (
"60 0 LINE",
"532 0 LINE",
"532 165 LINE",
"248 165 LINE",
"248 825 LINE",
"60 825 LINE"
);
}
);
width = 547;
},
{
layerId = "2A961F25-8D0E-4F3D-9AC7-EA5E11B6DCD4";
name = Regular;
paths = (
{
closed = 1;
nodes = (
"65 0 LINE",
"507 0 LINE",
"507 83 LINE",
"157 83 LINE",
"157 825 LINE",
"65 825 LINE"
);
}
);
width = 522;
}
);
leftMetricsKey = "=H";
rightKerningGroup = L;
rightMetricsKey = "=15";
unicode = 004C;
},
{
glyphname = Lacute;
lastChange = "2015-12-23 09:57:27 +0000";
layers = (
{
layerId = "A4E552E4-62BE-43BB-A58F-34F0EE3B77B8";
name = Bold;
paths = (
{
closed = 1;
nodes = (
"60 0 LINE",
"532 0 LINE",
"532 165 LINE",
"248 165 LINE",
"248 825 LINE",
"60 825 LINE"
);
},
{
closed = 1;
nodes = (
"430 1037 LINE",
"339 1152 LINE",
"136 976 LINE",
"192 899 LINE"
);
}
);
width = 565;
},
{
layerId = "2A961F25-8D0E-4F3D-9AC7-EA5E11B6DCD4";
name = Regular;
width = 600;
}
);
rightKerningGroup = L;
unicode = 0139;
},
{
glyphname = Lcaron;
lastChange = "2015-12-23 09:57:27 +0000";
layers = (
{
layerId = "A4E552E4-62BE-43BB-A58F-34F0EE3B77B8";
name = Bold;
paths = (
{
closed = 1;
nodes = (
"60 0 LINE",
"532 0 LINE",
"532 165 LINE",
"248 165 LINE",
"248 825 LINE",
"60 825 LINE"
);
},
{
closed = 1;
nodes = (
"467 824 OFFCURVE",
"507 784 OFFCURVE",
"507 734 CURVE SMOOTH",
"507 641 OFFCURVE",
"440 565 OFFCURVE",
"377 513 CURVE",
"337 544 LINE",
"337 544 OFFCURVE",
"384 589 OFFCURVE",
"396 654 CURVE",
"358 663 OFFCURVE",
"329 694 OFFCURVE",
"329 734 CURVE SMOOTH",
"329 784 OFFCURVE",
"369 824 OFFCURVE",
"417 824 CURVE SMOOTH"
);
}
);
width = 565;
},
{
layerId = "2A961F25-8D0E-4F3D-9AC7-EA5E11B6DCD4";
name = Regular;
width = 600;
}
);
rightKerningGroup = L;
unicode = 013D;
},
{
glyphname = Lcommaaccent;
lastChange = "2015-12-23 09:57:27 +0000";
layers = (
{
layerId = "A4E552E4-62BE-43BB-A58F-34F0EE3B77B8";
name = Bold;
paths = (
{
closed = 1;
nodes = (
"60 0 LINE",
"532 0 LINE",
"532 165 LINE",
"248 165 LINE",
"248 825 LINE",
"60 825 LINE"
);
},
{
closed = 1;
nodes = (
"331 -40 OFFCURVE",
"371 -80 OFFCURVE",
"371 -130 CURVE SMOOTH",
"371 -223 OFFCURVE",
"304 -299 OFFCURVE",
"241 -351 CURVE",
"201 -320 LINE",
"201 -320 OFFCURVE",
"248 -275 OFFCURVE",
"260 -210 CURVE",
"222 -201 OFFCURVE",
"193 -170 OFFCURVE",
"193 -130 CURVE SMOOTH",
"193 -80 OFFCURVE",
"233 -40 OFFCURVE",
"281 -40 CURVE SMOOTH"
);
}
);
width = 565;
},
{
layerId = "2A961F25-8D0E-4F3D-9AC7-EA5E11B6DCD4";
name = Regular;
width = 600;
}
);
rightKerningGroup = L;
unicode = 013B;
},
{
glyphname = Lslash;
lastChange = "2015-12-23 09:57:27 +0000";
layers = (
{
layerId = "A4E552E4-62BE-43BB-A58F-34F0EE3B77B8";
name = Bold;
paths = (
{
closed = 1;
nodes = (
"96 0 LINE",
"568 0 LINE",
"568 165 LINE",
"284 165 LINE",
"284 457 LINE",
"389 540 LINE",
"389 693 LINE",
"284 610 LINE",
"284 825 LINE",
"96 825 LINE",
"96 462 LINE",
"20 403 LINE",
"20 250 LINE",
"96 309 LINE"
);
}
);
width = 568;
},
{
layerId = "2A961F25-8D0E-4F3D-9AC7-EA5E11B6DCD4";
name = Regular;
width = 600;
}
);
rightKerningGroup = L;
unicode = 0141;
},
{
glyphname = M;
lastChange = "2016-01-28 23:12:15 +0000";
layers = (
{
layerId = "A4E552E4-62BE-43BB-A58F-34F0EE3B77B8";
name = Bold;
paths = (
{
closed = 1;
nodes = (
"211 0 LINE",
"250 489 LINE",
"255 489 LINE",
"424 5 LINE",
"536 5 LINE",
"705 489 LINE",
"710 489 LINE",
"749 0 LINE",
"937 0 LINE",
"863 825 LINE",
"663 825 LINE",
"480 349 LINE",
"297 825 LINE",
"97 825 LINE",
"23 0 LINE"
);
}
);
width = 960;
},
{
layerId = "2A961F25-8D0E-4F3D-9AC7-EA5E11B6DCD4";
name = Regular;
paths = (
{
closed = 1;
nodes = (
"126 0 LINE",
"181 597 LINE",
"183 597 LINE",
"386 5 LINE",
"438 5 LINE",
"641 595 LINE",
"643 595 LINE",
"698 0 LINE",
"796 0 LINE",
"707 825 LINE",
"626 825 LINE",
"412 183 LINE",
"198 825 LINE",
"117 825 LINE",
"28 0 LINE"
);
}
);
width = 824;
}
);
leftMetricsKey = "=H-37";
rightKerningGroup = d;
rightMetricsKey = "=H-37";
unicode = 004D;
},
{
glyphname = N;
lastChange = "2016-02-10 23:52:19 +0000";
layers = (
{
layerId = "A4E552E4-62BE-43BB-A58F-34F0EE3B77B8";
name = Bold;
paths = (
{
closed = 1;
nodes = (
"570 0 LINE",
"758 0 LINE",
"758 825 LINE",
"570 825 LINE",
"570 313 LINE",
"568 313 LINE",
"240 825 LINE",
"52 825 LINE",
"52 0 LINE",
"240 0 LINE",
"240 512 LINE",
"242 512 LINE"
);
}
);
width = 810;
},
{
layerId = "2A961F25-8D0E-4F3D-9AC7-EA5E11B6DCD4";
name = Regular;
paths = (
{
closed = 1;
nodes = (
"587 0 LINE",
"680 0 LINE",
"680 825 LINE",
"588 825 LINE",
"588 161 LINE",
"586 161 LINE",
"162 825 LINE",
"57 825 LINE",
"57 0 LINE",
"149 0 LINE",
"149 682 LINE",
"151 682 LINE"
);
}
);
width = 737;
}
);
leftMetricsKey = "=H-8";
rightKerningGroup = d;
rightMetricsKey = "=H-8";
unicode = 004E;
},
{
glyphname = Nacute;
lastChange = "2015-12-23 09:57:27 +0000";
layers = (
{
layerId = "A4E552E4-62BE-43BB-A58F-34F0EE3B77B8";
name = Bold;
paths = (
{
closed = 1;
nodes = (
"578 0 LINE",
"766 0 LINE",
"766 825 LINE",
"578 825 LINE",
"578 313 LINE",
"576 313 LINE",
"248 825 LINE",
"60 825 LINE",
"60 0 LINE",
"248 0 LINE",
"248 512 LINE",
"250 512 LINE"
);
},
{
closed = 1;
nodes = (
"560 1037 LINE",
"469 1152 LINE",
"266 976 LINE",
"322 899 LINE"
);
}
);
width = 826;
},
{
layerId = "2A961F25-8D0E-4F3D-9AC7-EA5E11B6DCD4";
name = Regular;
width = 600;
}
);
rightKerningGroup = d;
unicode = 0143;
},
{
glyphname = Ncaron;
lastChange = "2015-12-23 09:57:27 +0000";
layers = (
{
layerId = "A4E552E4-62BE-43BB-A58F-34F0EE3B77B8";
name = Bold;
paths = (
{
closed = 1;
nodes = (
"578 0 LINE",
"766 0 LINE",
"766 825 LINE",
"578 825 LINE",
"578 313 LINE",
"576 313 LINE",
"248 825 LINE",
"60 825 LINE",
"60 0 LINE",
"248 0 LINE",
"248 512 LINE",
"250 512 LINE"
);
},
{
closed = 1;
nodes = (
"413 899 LINE",
"634 1061 LINE",
"566 1152 LINE",
"413 1040 LINE",
"260 1152 LINE",
"192 1061 LINE"
);
}
);
width = 826;
},
{
layerId = "2A961F25-8D0E-4F3D-9AC7-EA5E11B6DCD4";
name = Regular;
width = 600;
}
);
rightKerningGroup = d;
unicode = 0147;
},
{
glyphname = Ncommaaccent;
lastChange = "2015-12-23 09:57:27 +0000";
layers = (
{
layerId = "A4E552E4-62BE-43BB-A58F-34F0EE3B77B8";
name = Bold;
paths = (
{
closed = 1;
nodes = (
"578 0 LINE",
"766 0 LINE",
"766 825 LINE",
"578 825 LINE",
"578 313 LINE",
"576 313 LINE",
"248 825 LINE",
"60 825 LINE",
"60 0 LINE",
"248 0 LINE",
"248 512 LINE",
"250 512 LINE"
);
},
{
closed = 1;
nodes = (
"462 -40 OFFCURVE",
"502 -80 OFFCURVE",
"502 -130 CURVE SMOOTH",
"502 -223 OFFCURVE",
"435 -299 OFFCURVE",
"372 -351 CURVE",
"332 -320 LINE",
"332 -320 OFFCURVE",
"379 -275 OFFCURVE",
"391 -210 CURVE",
"353 -201 OFFCURVE",
"324 -170 OFFCURVE",
"324 -130 CURVE SMOOTH",
"324 -80 OFFCURVE",
"364 -40 OFFCURVE",
"412 -40 CURVE SMOOTH"
);
}
);
width = 826;
},
{
layerId = "2A961F25-8D0E-4F3D-9AC7-EA5E11B6DCD4";
name = Regular;
width = 600;
}
);
rightKerningGroup = d;
unicode = 0145;
},
{
glyphname = Ntilde;
lastChange = "2015-12-23 09:57:27 +0000";
layers = (
{
layerId = "A4E552E4-62BE-43BB-A58F-34F0EE3B77B8";
name = Bold;
paths = (
{
closed = 1;
nodes = (
"578 0 LINE",
"766 0 LINE",
"766 825 LINE",
"578 825 LINE",
"578 313 LINE",
"576 313 LINE",
"248 825 LINE",
"60 825 LINE",
"60 0 LINE",
"248 0 LINE",
"248 512 LINE",
"250 512 LINE"
);
},
{
closed = 1;
nodes = (
"404 954 OFFCURVE",
"469 927 OFFCURVE",
"508 927 CURVE SMOOTH",
"618 927 OFFCURVE",
"644 1099 OFFCURVE",
"644 1099 CURVE SMOOTH",
"543 1099 LINE SMOOTH",
"543 1099 OFFCURVE",
"530 1053 OFFCURVE",
"498 1053 CURVE SMOOTH",
"462 1053 OFFCURVE",
"422 1072 OFFCURVE",
"422 1072 CURVE SMOOTH",
"422 1072 OFFCURVE",
"357 1099 OFFCURVE",
"318 1099 CURVE SMOOTH",
"208 1099 OFFCURVE",
"182 927 OFFCURVE",
"182 927 CURVE",
"283 927 LINE",
"283 927 OFFCURVE",
"296 973 OFFCURVE",
"328 973 CURVE SMOOTH",
"364 973 OFFCURVE",
"404 954 OFFCURVE",
"404 954 CURVE SMOOTH"
);
}
);
width = 826;
},
{
layerId = "2A961F25-8D0E-4F3D-9AC7-EA5E11B6DCD4";
name = Regular;
width = 600;
}
);
rightKerningGroup = d;
unicode = 00D1;
},
{
glyphname = O;
lastChange = "2016-01-28 22:14:43 +0000";
layers = (
{
layerId = "A4E552E4-62BE-43BB-A58F-34F0EE3B77B8";
name = Bold;
paths = (
{
closed = 1;
nodes = (
"241 536 OFFCURVE",
"309 659 OFFCURVE",
"454 659 CURVE SMOOTH",
"600 659 OFFCURVE",
"666 536 OFFCURVE",
"666 413 CURVE SMOOTH",
"666 290 OFFCURVE",
"604 167 OFFCURVE",
"454 167 CURVE SMOOTH",
"300 167 OFFCURVE",
"241 290 OFFCURVE",
"241 413 CURVE SMOOTH"
);
},
{
closed = 1;
nodes = (
"38 172 OFFCURVE",
"210 -15 OFFCURVE",
"454 -15 CURVE SMOOTH",
"691 -15 OFFCURVE",
"869 172 OFFCURVE",
"869 413 CURVE SMOOTH",
"869 654 OFFCURVE",
"683 840 OFFCURVE",
"454 840 CURVE SMOOTH",
"227 840 OFFCURVE",
"38 654 OFFCURVE",
"38 413 CURVE SMOOTH"
);
}
);
width = 907;
},
{
layerId = "2A961F25-8D0E-4F3D-9AC7-EA5E11B6DCD4";
name = Regular;
paths = (
{
closed = 1;
nodes = (
"143 603 OFFCURVE",
"280 758 OFFCURVE",
"461 758 CURVE SMOOTH",
"641 758 OFFCURVE",
"778 603 OFFCURVE",
"778 413 CURVE SMOOTH",
"778 222 OFFCURVE",
"641 67 OFFCURVE",
"461 67 CURVE SMOOTH",
"280 67 OFFCURVE",
"143 222 OFFCURVE",
"143 413 CURVE SMOOTH"
);
},
{
closed = 1;
nodes = (
"45 172 OFFCURVE",
"217 -15 OFFCURVE",
"461 -15 CURVE SMOOTH",
"698 -15 OFFCURVE",
"876 172 OFFCURVE",
"876 413 CURVE SMOOTH",
"876 654 OFFCURVE",
"690 840 OFFCURVE",
"461 840 CURVE SMOOTH",
"234 840 OFFCURVE",
"45 654 OFFCURVE",
"45 413 CURVE SMOOTH"
);
}
);
width = 921;
}
);
leftKerningGroup = O;
rightKerningGroup = O;
unicode = 004F;
},
{
glyphname = Oacute;
lastChange = "2015-12-23 09:57:27 +0000";
layers = (
{
layerId = "A4E552E4-62BE-43BB-A58F-34F0EE3B77B8";
name = Bold;
paths = (
{
closed = 1;
nodes = (
"226 536 OFFCURVE",
"294 659 OFFCURVE",
"439 659 CURVE SMOOTH",
"585 659 OFFCURVE",
"651 536 OFFCURVE",
"651 413 CURVE SMOOTH",
"651 290 OFFCURVE",
"589 167 OFFCURVE",
"439 167 CURVE SMOOTH",
"285 167 OFFCURVE",
"226 290 OFFCURVE",
"226 413 CURVE SMOOTH"
);
},
{
closed = 1;
nodes = (
"23 172 OFFCURVE",
"195 -15 OFFCURVE",
"439 -15 CURVE SMOOTH",
"676 -15 OFFCURVE",
"854 172 OFFCURVE",
"854 413 CURVE SMOOTH",
"854 654 OFFCURVE",
"668 840 OFFCURVE",
"439 840 CURVE SMOOTH",
"212 840 OFFCURVE",
"23 654 OFFCURVE",
"23 413 CURVE SMOOTH"
);
},
{
closed = 1;
nodes = (
"634 1037 LINE",
"543 1152 LINE",
"340 976 LINE",
"396 899 LINE"
);
}
);
width = 877;
},
{
layerId = "2A961F25-8D0E-4F3D-9AC7-EA5E11B6DCD4";
name = Regular;
width = 600;
}
);
leftKerningGroup = O;
rightKerningGroup = O;
unicode = 00D3;
},
{
glyphname = Ocircumflex;
lastChange = "2015-12-23 09:57:27 +0000";
layers = (
{
layerId = "A4E552E4-62BE-43BB-A58F-34F0EE3B77B8";
name = Bold;
paths = (
{
closed = 1;
nodes = (
"226 536 OFFCURVE",
"294 659 OFFCURVE",
"439 659 CURVE SMOOTH",
"585 659 OFFCURVE",
"651 536 OFFCURVE",
"651 413 CURVE SMOOTH",
"651 290 OFFCURVE",
"589 167 OFFCURVE",
"439 167 CURVE SMOOTH",
"285 167 OFFCURVE",
"226 290 OFFCURVE",
"226 413 CURVE SMOOTH"
);
},
{
closed = 1;
nodes = (
"23 172 OFFCURVE",
"195 -15 OFFCURVE",
"439 -15 CURVE SMOOTH",
"676 -15 OFFCURVE",
"854 172 OFFCURVE",
"854 413 CURVE SMOOTH",
"854 654 OFFCURVE",
"668 840 OFFCURVE",
"439 840 CURVE SMOOTH",
"212 840 OFFCURVE",
"23 654 OFFCURVE",
"23 413 CURVE SMOOTH"
);
},
{
closed = 1;
nodes = (
"438 1011 LINE",
"591 899 LINE",
"659 990 LINE",
"438 1152 LINE",
"217 990 LINE",
"285 899 LINE"
);
}
);
width = 877;
},
{
layerId = "2A961F25-8D0E-4F3D-9AC7-EA5E11B6DCD4";
name = Regular;
width = 600;
}
);
leftKerningGroup = O;
rightKerningGroup = O;
unicode = 00D4;
},
{
glyphname = Odieresis;
lastChange = "2015-12-23 09:57:27 +0000";
layers = (
{
layerId = "A4E552E4-62BE-43BB-A58F-34F0EE3B77B8";
name = Bold;
paths = (
{
closed = 1;
nodes = (
"226 536 OFFCURVE",
"294 659 OFFCURVE",
"439 659 CURVE SMOOTH",
"585 659 OFFCURVE",
"651 536 OFFCURVE",
"651 413 CURVE SMOOTH",
"651 290 OFFCURVE",
"589 167 OFFCURVE",
"439 167 CURVE SMOOTH",
"285 167 OFFCURVE",
"226 290 OFFCURVE",
"226 413 CURVE SMOOTH"
);
},
{
closed = 1;
nodes = (
"23 172 OFFCURVE",
"195 -15 OFFCURVE",
"439 -15 CURVE SMOOTH",
"676 -15 OFFCURVE",
"854 172 OFFCURVE",
"854 413 CURVE SMOOTH",
"854 654 OFFCURVE",
"668 840 OFFCURVE",
"439 840 CURVE SMOOTH",
"212 840 OFFCURVE",
"23 654 OFFCURVE",
"23 413 CURVE SMOOTH"
);
},
{
closed = 1;
nodes = (
"269 1103 OFFCURVE",
"228 1062 OFFCURVE",
"228 1011 CURVE SMOOTH",
"228 960 OFFCURVE",
"269 919 OFFCURVE",
"320 919 CURVE SMOOTH",
"371 919 OFFCURVE",
"412 960 OFFCURVE",
"412 1011 CURVE SMOOTH",
"412 1062 OFFCURVE",
"371 1103 OFFCURVE",
"320 1103 CURVE SMOOTH"
);
},
{
closed = 1;
nodes = (
"506 1103 OFFCURVE",
"465 1062 OFFCURVE",
"465 1011 CURVE SMOOTH",
"465 960 OFFCURVE",
"506 919 OFFCURVE",
"557 919 CURVE SMOOTH",
"608 919 OFFCURVE",
"649 960 OFFCURVE",
"649 1011 CURVE SMOOTH",
"649 1062 OFFCURVE",
"608 1103 OFFCURVE",
"557 1103 CURVE SMOOTH"
);
}
);
width = 877;
},
{
layerId = "2A961F25-8D0E-4F3D-9AC7-EA5E11B6DCD4";
name = Regular;
width = 600;
}
);
leftKerningGroup = O;
rightKerningGroup = O;
unicode = 00D6;
},
{
glyphname = Ograve;
lastChange = "2015-12-23 09:57:27 +0000";
layers = (
{
layerId = "A4E552E4-62BE-43BB-A58F-34F0EE3B77B8";
name = Bold;
paths = (
{
closed = 1;
nodes = (
"226 536 OFFCURVE",
"294 659 OFFCURVE",
"439 659 CURVE SMOOTH",
"585 659 OFFCURVE",
"651 536 OFFCURVE",
"651 413 CURVE SMOOTH",
"651 290 OFFCURVE",
"589 167 OFFCURVE",
"439 167 CURVE SMOOTH",
"285 167 OFFCURVE",
"226 290 OFFCURVE",
"226 413 CURVE SMOOTH"
);
},
{
closed = 1;
nodes = (
"23 172 OFFCURVE",
"195 -15 OFFCURVE",
"439 -15 CURVE SMOOTH",
"676 -15 OFFCURVE",
"854 172 OFFCURVE",
"854 413 CURVE SMOOTH",
"854 654 OFFCURVE",
"668 840 OFFCURVE",
"439 840 CURVE SMOOTH",
"212 840 OFFCURVE",
"23 654 OFFCURVE",
"23 413 CURVE SMOOTH"
);
},
{
closed = 1;
nodes = (
"440 899 LINE",
"496 976 LINE",
"293 1152 LINE",
"202 1037 LINE"
);
}
);
width = 877;
},
{
layerId = "2A961F25-8D0E-4F3D-9AC7-EA5E11B6DCD4";
name = Regular;
width = 600;
}
);
leftKerningGroup = O;
rightKerningGroup = O;
unicode = 00D2;
},
{
glyphname = Ohungarumlaut;
lastChange = "2015-12-23 09:57:27 +0000";
layers = (
{
layerId = "A4E552E4-62BE-43BB-A58F-34F0EE3B77B8";
name = Bold;
paths = (
{
closed = 1;
nodes = (
"226 536 OFFCURVE",
"294 659 OFFCURVE",
"439 659 CURVE SMOOTH",
"585 659 OFFCURVE",
"651 536 OFFCURVE",
"651 413 CURVE SMOOTH",
"651 290 OFFCURVE",
"589 167 OFFCURVE",
"439 167 CURVE SMOOTH",
"285 167 OFFCURVE",
"226 290 OFFCURVE",
"226 413 CURVE SMOOTH"
);
},
{
closed = 1;
nodes = (
"23 172 OFFCURVE",
"195 -15 OFFCURVE",
"439 -15 CURVE SMOOTH",
"676 -15 OFFCURVE",
"854 172 OFFCURVE",
"854 413 CURVE SMOOTH",
"854 654 OFFCURVE",
"668 840 OFFCURVE",
"439 840 CURVE SMOOTH",
"212 840 OFFCURVE",
"23 654 OFFCURVE",
"23 413 CURVE SMOOTH"
);
},
{
closed = 1;
nodes = (
"486 1068 LINE",
"404 1172 LINE",
"231 976 LINE",
"287 899 LINE"
);
},
{
closed = 1;
nodes = (
"697 1068 LINE",
"615 1172 LINE",
"442 976 LINE",
"498 899 LINE"
);
}
);
width = 877;
},
{
layerId = "2A961F25-8D0E-4F3D-9AC7-EA5E11B6DCD4";
name = Regular;
width = 600;
}
);
leftKerningGroup = O;
rightKerningGroup = O;
unicode = 0150;
},
{
glyphname = Omacron;
lastChange = "2015-12-23 09:57:27 +0000";
layers = (
{
layerId = "A4E552E4-62BE-43BB-A58F-34F0EE3B77B8";
name = Bold;
paths = (
{
closed = 1;
nodes = (
"226 536 OFFCURVE",
"294 659 OFFCURVE",
"439 659 CURVE SMOOTH",
"585 659 OFFCURVE",
"651 536 OFFCURVE",
"651 413 CURVE SMOOTH",
"651 290 OFFCURVE",
"589 167 OFFCURVE",
"439 167 CURVE SMOOTH",
"285 167 OFFCURVE",
"226 290 OFFCURVE",
"226 413 CURVE SMOOTH"
);
},
{
closed = 1;
nodes = (
"23 172 OFFCURVE",
"195 -15 OFFCURVE",
"439 -15 CURVE SMOOTH",
"676 -15 OFFCURVE",
"854 172 OFFCURVE",
"854 413 CURVE SMOOTH",
"854 654 OFFCURVE",
"668 840 OFFCURVE",
"439 840 CURVE SMOOTH",
"212 840 OFFCURVE",
"23 654 OFFCURVE",
"23 413 CURVE SMOOTH"
);
},
{
closed = 1;
nodes = (
"642 946 LINE",
"642 1066 LINE",
"234 1066 LINE",
"234 946 LINE"
);
}
);
width = 877;
},
{
layerId = "2A961F25-8D0E-4F3D-9AC7-EA5E11B6DCD4";
name = Regular;
width = 600;
}
);
leftKerningGroup = O;
rightKerningGroup = O;
unicode = 014C;
},
{
glyphname = Oslash;
lastChange = "2015-12-23 09:57:27 +0000";
layers = (
{
layerId = "A4E552E4-62BE-43BB-A58F-34F0EE3B77B8";
name = Bold;
paths = (
{
closed = 1;
nodes = (
"67 59 LINE",
"179 -27 LINE",
"230 38 LINE",
"290 4 OFFCURVE",
"361 -15 OFFCURVE",
"439 -15 CURVE SMOOTH",
"676 -15 OFFCURVE",
"854 172 OFFCURVE",
"854 413 CURVE SMOOTH",
"854 522 OFFCURVE",
"815 620 OFFCURVE",
"752 694 CURVE",
"810 767 LINE",
"698 853 LINE",
"644 785 LINE",
"583 820 OFFCURVE",
"513 840 OFFCURVE",
"439 840 CURVE SMOOTH",
"212 840 OFFCURVE",
"23 654 OFFCURVE",
"23 413 CURVE SMOOTH",
"23 302 OFFCURVE",
"59 203 OFFCURVE",
"122 128 CURVE"
);
},
{
closed = 1;
nodes = (
"651 290 OFFCURVE",
"589 167 OFFCURVE",
"439 167 CURVE SMOOTH",
"403 167 OFFCURVE",
"373 173 OFFCURVE",
"347 185 CURVE",
"626 536 LINE",
"643 498 OFFCURVE",
"651 455 OFFCURVE",
"651 413 CURVE SMOOTH"
);
},
{
closed = 1;
nodes = (
"226 536 OFFCURVE",
"294 659 OFFCURVE",
"439 659 CURVE SMOOTH",
"473 659 OFFCURVE",
"503 652 OFFCURVE",
"528 640 CURVE",
"249 288 LINE",
"233 326 OFFCURVE",
"226 370 OFFCURVE",
"226 413 CURVE SMOOTH"
);
}
);
width = 877;
},
{
layerId = "2A961F25-8D0E-4F3D-9AC7-EA5E11B6DCD4";
name = Regular;
width = 600;
}
);
leftKerningGroup = O;
rightKerningGroup = O;
unicode = 00D8;
},
{
glyphname = Otilde;
lastChange = "2015-12-23 09:57:27 +0000";
layers = (
{
layerId = "A4E552E4-62BE-43BB-A58F-34F0EE3B77B8";
name = Bold;
paths = (
{
closed = 1;
nodes = (
"226 536 OFFCURVE",
"294 659 OFFCURVE",
"439 659 CURVE SMOOTH",
"585 659 OFFCURVE",
"651 536 OFFCURVE",
"651 413 CURVE SMOOTH",
"651 290 OFFCURVE",
"589 167 OFFCURVE",
"439 167 CURVE SMOOTH",
"285 167 OFFCURVE",
"226 290 OFFCURVE",
"226 413 CURVE SMOOTH"
);
},
{
closed = 1;
nodes = (
"23 172 OFFCURVE",
"195 -15 OFFCURVE",
"439 -15 CURVE SMOOTH",
"676 -15 OFFCURVE",
"854 172 OFFCURVE",
"854 413 CURVE SMOOTH",
"854 654 OFFCURVE",
"668 840 OFFCURVE",
"439 840 CURVE SMOOTH",
"212 840 OFFCURVE",
"23 654 OFFCURVE",
"23 413 CURVE SMOOTH"
);
},
{
closed = 1;
nodes = (
"429 954 OFFCURVE",
"494 927 OFFCURVE",
"533 927 CURVE SMOOTH",
"643 927 OFFCURVE",
"669 1099 OFFCURVE",
"669 1099 CURVE SMOOTH",
"568 1099 LINE SMOOTH",
"568 1099 OFFCURVE",
"555 1053 OFFCURVE",
"523 1053 CURVE SMOOTH",
"487 1053 OFFCURVE",
"447 1072 OFFCURVE",
"447 1072 CURVE SMOOTH",
"447 1072 OFFCURVE",
"382 1099 OFFCURVE",
"343 1099 CURVE SMOOTH",
"233 1099 OFFCURVE",
"207 927 OFFCURVE",
"207 927 CURVE",
"308 927 LINE",
"308 927 OFFCURVE",
"321 973 OFFCURVE",
"353 973 CURVE SMOOTH",
"389 973 OFFCURVE",
"429 954 OFFCURVE",
"429 954 CURVE SMOOTH"
);
}
);
width = 877;
},
{
layerId = "2A961F25-8D0E-4F3D-9AC7-EA5E11B6DCD4";
name = Regular;
width = 600;
}
);
leftKerningGroup = O;
rightKerningGroup = O;
unicode = 00D5;
},
{
glyphname = OE;
lastChange = "2015-12-23 09:57:27 +0000";
layers = (
{
layerId = "A4E552E4-62BE-43BB-A58F-34F0EE3B77B8";
name = Bold;
paths = (
{
closed = 1;
nodes = (
"962 825 LINE",
"439 825 LINE SMOOTH",
"212 825 OFFCURVE",
"23 653 OFFCURVE",
"23 412 CURVE SMOOTH",
"23 171 OFFCURVE",
"212 0 OFFCURVE",
"439 0 CURVE SMOOTH",
"962 0 LINE",
"962 165 LINE",
"678 165 LINE",
"678 331 LINE",
"950 331 LINE",
"950 496 LINE",
"678 496 LINE",
"678 660 LINE",
"962 660 LINE"
);
},
{
closed = 1;
nodes = (
"490 657 LINE",
"490 168 LINE",
"461 168 LINE SMOOTH",
"321 168 OFFCURVE",
"226 275 OFFCURVE",
"226 413 CURVE SMOOTH",
"226 550 OFFCURVE",
"321 657 OFFCURVE",
"461 657 CURVE SMOOTH"
);
}
);
width = 1010;
},
{
layerId = "2A961F25-8D0E-4F3D-9AC7-EA5E11B6DCD4";
name = Regular;
width = 600;
}
);
rightKerningGroup = d;
unicode = 0152;
},
{
glyphname = P;
lastChange = "2016-02-10 23:52:19 +0000";
layers = (
{
layerId = "A4E552E4-62BE-43BB-A58F-34F0EE3B77B8";
name = Bold;
paths = (
{
closed = 1;
nodes = (
"60 0 LINE",
"248 0 LINE",
"248 306 LINE",
"361 306 LINE SMOOTH",
"522 306 OFFCURVE",
"643 401 OFFCURVE",
"643 571 CURVE SMOOTH",
"643 742 OFFCURVE",
"522 825 OFFCURVE",
"361 825 CURVE SMOOTH",
"60 825 LINE"
);
},
{
closed = 1;
nodes = (
"248 675 LINE",
"301 675 LINE SMOOTH",
"375 675 OFFCURVE",
"445 650 OFFCURVE",
"445 565 CURVE SMOOTH",
"445 481 OFFCURVE",
"375 456 OFFCURVE",
"301 456 CURVE SMOOTH",
"248 456 LINE"
);
}
);
width = 676;
},
{
layerId = "2A961F25-8D0E-4F3D-9AC7-EA5E11B6DCD4";
name = Regular;
paths = (
{
closed = 1;
nodes = (
"65 0 LINE",
"157 0 LINE",
"157 343 LINE",
"263 343 LINE SMOOTH",
"457 343 OFFCURVE",
"568 422 OFFCURVE",
"568 582 CURVE SMOOTH",
"568 742 OFFCURVE",
"457 825 OFFCURVE",
"263 825 CURVE SMOOTH",
"65 825 LINE"
);
},
{
closed = 1;
nodes = (
"157 742 LINE",
"242 742 LINE SMOOTH",
"406 742 OFFCURVE",
"470 692 OFFCURVE",
"470 582 CURVE SMOOTH",
"470 472 OFFCURVE",
"406 426 OFFCURVE",
"242 426 CURVE SMOOTH",
"157 426 LINE"
);
}
);
width = 608;
}
);
leftMetricsKey = "=H";
rightKerningGroup = d;
rightMetricsKey = "=O-5";
unicode = 0050;
},
{
glyphname = Thorn;
lastChange = "2015-12-23 09:57:27 +0000";
layers = (
{
layerId = "A4E552E4-62BE-43BB-A58F-34F0EE3B77B8";
name = Bold;
paths = (
{
closed = 1;
nodes = (
"60 0 LINE",
"248 0 LINE",
"248 153 LINE",
"361 153 LINE SMOOTH",
"522 153 OFFCURVE",
"643 248 OFFCURVE",
"643 418 CURVE SMOOTH",
"643 589 OFFCURVE",
"522 672 OFFCURVE",
"361 672 CURVE SMOOTH",
"248 672 LINE",
"248 825 LINE",
"60 825 LINE"
);
},
{
closed = 1;
nodes = (
"248 522 LINE",
"301 522 LINE SMOOTH",
"375 522 OFFCURVE",
"440 496 OFFCURVE",
"440 412 CURVE SMOOTH",
"440 329 OFFCURVE",
"375 303 OFFCURVE",
"301 303 CURVE SMOOTH",
"248 303 LINE"
);
}
);
width = 666;
},
{
layerId = "2A961F25-8D0E-4F3D-9AC7-EA5E11B6DCD4";
name = Regular;
width = 600;
}
);
rightKerningGroup = d;
unicode = 00DE;
},
{
glyphname = Q;
lastChange = "2016-01-31 20:37:55 +0000";
layers = (
{
layerId = "A4E552E4-62BE-43BB-A58F-34F0EE3B77B8";
name = Bold;
paths = (
{
closed = 1;
nodes = (
"276 -173 LINE",
"276 -173 OFFCURVE",
"320 -127 OFFCURVE",
"398 -127 CURVE SMOOTH",
"525 -127 OFFCURVE",
"576 -205 OFFCURVE",
"699 -205 CURVE SMOOTH",
"830 -205 OFFCURVE",
"883 -93 OFFCURVE",
"883 -93 CURVE",
"824 34 LINE",
"824 34 OFFCURVE",
"785 -20 OFFCURVE",
"700 -20 CURVE SMOOTH",
"651 -20 OFFCURVE",
"591 -1 OFFCURVE",
"572 -1 CURVE",
"572 3 LINE",
"743 55 OFFCURVE",
"859 216 OFFCURVE",
"859 413 CURVE SMOOTH",
"859 654 OFFCURVE",
"678 840 OFFCURVE",
"449 840 CURVE SMOOTH",
"222 840 OFFCURVE",
"38 654 OFFCURVE",
"38 413 CURVE SMOOTH",
"38 201 OFFCURVE",
"167 31 OFFCURVE",
"363 -7 CURVE",
"363 -11 LINE",
"303 -11 OFFCURVE",
"231 -105 OFFCURVE",
"231 -105 CURVE"
);
},
{
closed = 1;
nodes = (
"241 536 OFFCURVE",
"304 651 OFFCURVE",
"449 651 CURVE SMOOTH",
"595 651 OFFCURVE",
"656 536 OFFCURVE",
"656 413 CURVE SMOOTH",
"656 290 OFFCURVE",
"599 175 OFFCURVE",
"449 175 CURVE SMOOTH",
"295 175 OFFCURVE",
"241 290 OFFCURVE",
"241 413 CURVE SMOOTH"
);
}
);
width = 901;
},
{
layerId = "2A961F25-8D0E-4F3D-9AC7-EA5E11B6DCD4";
name = Regular;
paths = (
{
closed = 1;
nodes = (
"267 -145 LINE",
"267 -145 OFFCURVE",
"337 -67 OFFCURVE",
"426 -67 CURVE SMOOTH",
"525 -67 OFFCURVE",
"609 -165 OFFCURVE",
"725 -165 CURVE SMOOTH",
"820 -165 OFFCURVE",
"877 -100 OFFCURVE",
"877 -100 CURVE",
"841 -34 LINE",
"841 -34 OFFCURVE",
"803 -79 OFFCURVE",
"717 -79 CURVE SMOOTH",
"650 -79 OFFCURVE",
"610 -55 OFFCURVE",
"520 -10 CURVE",
"520 -8 LINE",
"724 29 OFFCURVE",
"856 201 OFFCURVE",
"856 411 CURVE SMOOTH",
"856 655 OFFCURVE",
"680 840 OFFCURVE",
"451 840 CURVE SMOOTH",
"224 840 OFFCURVE",
"45 658 OFFCURVE",
"45 407 CURVE SMOOTH",
"45 202 OFFCURVE",
"164 27 OFFCURVE",
"376 -8 CURVE",
"376 -10 LINE",
"288 -22 OFFCURVE",
"235 -103 OFFCURVE",
"235 -103 CURVE"
);
},
{
closed = 1;
nodes = (
"143 603 OFFCURVE",
"270 758 OFFCURVE",
"451 758 CURVE SMOOTH",
"631 758 OFFCURVE",
"758 603 OFFCURVE",
"758 413 CURVE SMOOTH",
"758 222 OFFCURVE",
"631 67 OFFCURVE",
"451 67 CURVE SMOOTH",
"270 67 OFFCURVE",
"143 222 OFFCURVE",
"143 413 CURVE SMOOTH"
);
}
);
width = 902;
}
);
leftMetricsKey = "=O";
rightKerningGroup = d;
rightMetricsKey = "=O-20";
unicode = 0051;
},
{
glyphname = R;
lastChange = "2016-01-31 21:40:43 +0000";
layers = (
{
layerId = "A4E552E4-62BE-43BB-A58F-34F0EE3B77B8";
name = Bold;
paths = (
{
closed = 1;
nodes = (
"60 0 LINE",
"248 0 LINE",
"248 326 LINE",
"250 326 LINE",
"502 0 LINE",
"741 0 LINE",
"457 341 LINE",
"558 373 OFFCURVE",
"626 456 OFFCURVE",
"626 580 CURVE SMOOTH",
"626 742 OFFCURVE",
"510 825 OFFCURVE",
"357 825 CURVE SMOOTH",
"60 825 LINE"
);
},
{
closed = 1;
nodes = (
"248 675 LINE",
"272 675 LINE SMOOTH",
"343 675 OFFCURVE",
"428 670 OFFCURVE",
"428 567 CURVE SMOOTH",
"428 464 OFFCURVE",
"343 459 OFFCURVE",
"272 459 CURVE SMOOTH",
"248 459 LINE"
);
}
);
width = 713;
},
{
layerId = "2A961F25-8D0E-4F3D-9AC7-EA5E11B6DCD4";
name = Regular;
paths = (
{
closed = 1;
nodes = (
"65 0 LINE",
"157 0 LINE",
"157 343 LINE",
"224 343 LINE",
"517 0 LINE",
"638 0 LINE",
"329 349 LINE",
"489 369 OFFCURVE",
"568 447 OFFCURVE",
"568 582 CURVE SMOOTH",
"568 742 OFFCURVE",
"457 825 OFFCURVE",
"263 825 CURVE SMOOTH",
"65 825 LINE"
);
},
{
closed = 1;
nodes = (
"157 742 LINE",
"242 742 LINE SMOOTH",
"406 742 OFFCURVE",
"470 692 OFFCURVE",
"470 582 CURVE SMOOTH",
"470 472 OFFCURVE",
"406 426 OFFCURVE",
"242 426 CURVE SMOOTH",
"157 426 LINE"
);
}
);
width = 626;
}
);
leftMetricsKey = "=H";
rightKerningGroup = R;
rightMetricsKey = "=A";
unicode = 0052;
},
{
glyphname = Racute;
lastChange = "2015-12-23 09:57:27 +0000";
layers = (
{
layerId = "A4E552E4-62BE-43BB-A58F-34F0EE3B77B8";
name = Bold;
paths = (
{
closed = 1;
nodes = (
"60 0 LINE",
"248 0 LINE",
"248 326 LINE",
"500 0 LINE",
"739 0 LINE",
"455 341 LINE",
"556 373 OFFCURVE",
"624 456 OFFCURVE",
"624 580 CURVE SMOOTH",
"624 742 OFFCURVE",
"508 825 OFFCURVE",
"355 825 CURVE SMOOTH",
"60 825 LINE"
);
},
{
closed = 1;
nodes = (
"248 675 LINE",
"270 675 LINE SMOOTH",
"341 675 OFFCURVE",
"426 670 OFFCURVE",
"426 567 CURVE SMOOTH",
"426 464 OFFCURVE",
"341 459 OFFCURVE",
"270 459 CURVE SMOOTH",
"248 459 LINE"
);
},
{
closed = 1;
nodes = (
"505 1037 LINE",
"414 1152 LINE",
"211 976 LINE",
"267 899 LINE"
);
}
);
width = 716;
},
{
layerId = "2A961F25-8D0E-4F3D-9AC7-EA5E11B6DCD4";
name = Regular;
width = 600;
}
);
rightKerningGroup = R;
unicode = 0154;
},
{
glyphname = Rcaron;
lastChange = "2015-12-23 09:57:27 +0000";
layers = (
{
layerId = "A4E552E4-62BE-43BB-A58F-34F0EE3B77B8";
name = Bold;
paths = (
{
closed = 1;
nodes = (
"60 0 LINE",
"248 0 LINE",
"248 326 LINE",
"500 0 LINE",
"739 0 LINE",
"455 341 LINE",
"556 373 OFFCURVE",
"624 456 OFFCURVE",
"624 580 CURVE SMOOTH",
"624 742 OFFCURVE",
"508 825 OFFCURVE",
"355 825 CURVE SMOOTH",
"60 825 LINE"
);
},
{
closed = 1;
nodes = (
"248 675 LINE",
"270 675 LINE SMOOTH",
"341 675 OFFCURVE",
"426 670 OFFCURVE",
"426 567 CURVE SMOOTH",
"426 464 OFFCURVE",
"341 459 OFFCURVE",
"270 459 CURVE SMOOTH",
"248 459 LINE"
);
},
{
closed = 1;
nodes = (
"324 899 LINE",
"545 1061 LINE",
"477 1152 LINE",
"324 1040 LINE",
"171 1152 LINE",
"103 1061 LINE"
);
}
);
width = 716;
},
{
layerId = "2A961F25-8D0E-4F3D-9AC7-EA5E11B6DCD4";
name = Regular;
width = 600;
}
);
rightKerningGroup = R;
unicode = 0158;
},
{
glyphname = Rcommaaccent;
lastChange = "2015-12-23 09:57:27 +0000";
layers = (
{
layerId = "A4E552E4-62BE-43BB-A58F-34F0EE3B77B8";
name = Bold;
paths = (
{
closed = 1;
nodes = (
"60 0 LINE",
"248 0 LINE",
"248 326 LINE",
"500 0 LINE",
"739 0 LINE",
"455 341 LINE",
"556 373 OFFCURVE",
"624 456 OFFCURVE",
"624 580 CURVE SMOOTH",
"624 742 OFFCURVE",
"508 825 OFFCURVE",
"355 825 CURVE SMOOTH",
"60 825 LINE"
);
},
{
closed = 1;
nodes = (
"248 675 LINE",
"270 675 LINE SMOOTH",
"341 675 OFFCURVE",
"426 670 OFFCURVE",
"426 567 CURVE SMOOTH",
"426 464 OFFCURVE",
"341 459 OFFCURVE",
"270 459 CURVE SMOOTH",
"248 459 LINE"
);
},
{
closed = 1;
nodes = (
"407 -40 OFFCURVE",
"447 -80 OFFCURVE",
"447 -130 CURVE SMOOTH",
"447 -223 OFFCURVE",
"380 -299 OFFCURVE",
"317 -351 CURVE",
"277 -320 LINE",
"277 -320 OFFCURVE",
"324 -275 OFFCURVE",
"336 -210 CURVE",
"298 -201 OFFCURVE",
"269 -170 OFFCURVE",
"269 -130 CURVE SMOOTH",
"269 -80 OFFCURVE",
"309 -40 OFFCURVE",
"357 -40 CURVE SMOOTH"
);
}
);
width = 716;
},
{
layerId = "2A961F25-8D0E-4F3D-9AC7-EA5E11B6DCD4";
name = Regular;
width = 600;
}
);
rightKerningGroup = R;
unicode = 0156;
},
{
glyphname = S;
lastChange = "2016-01-31 21:40:43 +0000";
layers = (
{
layerId = "A4E552E4-62BE-43BB-A58F-34F0EE3B77B8";
name = Bold;
paths = (
{
closed = 1;
nodes = (
"228 840 OFFCURVE",
"92 742 OFFCURVE",
"92 588 CURVE SMOOTH",
"92 502 OFFCURVE",
"150 425 OFFCURVE",
"249 376 CURVE SMOOTH",
"347 327 OFFCURVE",
"435 300 OFFCURVE",
"435 240 CURVE SMOOTH",
"435 163 OFFCURVE",
"357 159 OFFCURVE",
"316 159 CURVE SMOOTH",
"224 159 OFFCURVE",
"114 252 OFFCURVE",
"114 252 CURVE",
"20 94 LINE",
"20 94 OFFCURVE",
"137 -15 OFFCURVE",
"330 -15 CURVE SMOOTH",
"491 -15 OFFCURVE",
"641 54 OFFCURVE",
"641 251 CURVE SMOOTH",
"641 359 OFFCURVE",
"540 437 OFFCURVE",
"448 476 CURVE SMOOTH",
"354 516 OFFCURVE",
"276 549 OFFCURVE",
"276 595 CURVE SMOOTH",
"276 640 OFFCURVE",
"310 669 OFFCURVE",
"374 669 CURVE SMOOTH",
"459 669 OFFCURVE",
"541 612 OFFCURVE",
"541 612 CURVE",
"617 762 LINE",
"617 762 OFFCURVE",
"511 840 OFFCURVE",
"361 840 CURVE SMOOTH"
);
}
);
width = 684;
},
{
layerId = "2A961F25-8D0E-4F3D-9AC7-EA5E11B6DCD4";
name = Regular;
paths = (
{
closed = 1;
nodes = (
"210 840 OFFCURVE",
"92 748 OFFCURVE",
"92 617 CURVE SMOOTH",
"92 528 OFFCURVE",
"147 460 OFFCURVE",
"272 405 CURVE SMOOTH",
"373 361 OFFCURVE",
"508 328 OFFCURVE",
"508 213 CURVE SMOOTH",
"508 118 OFFCURVE",
"417 72 OFFCURVE",
"320 72 CURVE SMOOTH",
"178 72 OFFCURVE",
"70 171 OFFCURVE",
"70 171 CURVE",
"25 99 LINE",
"25 99 OFFCURVE",
"141 -15 OFFCURVE",
"320 -15 CURVE SMOOTH",
"476 -15 OFFCURVE",
"606 72 OFFCURVE",
"606 214 CURVE SMOOTH",
"606 340 OFFCURVE",
"504 406 OFFCURVE",
"371 462 CURVE SMOOTH",
"291 496 OFFCURVE",
"190 527 OFFCURVE",
"190 624 CURVE SMOOTH",
"190 709 OFFCURVE",
"268 758 OFFCURVE",
"350 758 CURVE SMOOTH",
"447 758 OFFCURVE",
"539 690 OFFCURVE",
"539 690 CURVE",
"579 762 LINE",
"579 762 OFFCURVE",
"476 840 OFFCURVE",
"348 840 CURVE SMOOTH"
);
}
);
width = 656;
}
);
leftKerningGroup = S;
leftMetricsKey = "=|E-15";
rightKerningGroup = d;
rightMetricsKey = "=O+5";
unicode = 0053;
},
{
glyphname = Sacute;
lastChange = "2015-12-23 09:57:27 +0000";
layers = (
{
layerId = "A4E552E4-62BE-43BB-A58F-34F0EE3B77B8";
name = Bold;
paths = (
{
closed = 1;
nodes = (
"231 840 OFFCURVE",
"95 742 OFFCURVE",
"95 588 CURVE SMOOTH",
"95 502 OFFCURVE",
"153 425 OFFCURVE",
"252 376 CURVE SMOOTH",
"350 327 OFFCURVE",
"438 300 OFFCURVE",
"438 240 CURVE SMOOTH",
"438 163 OFFCURVE",
"360 159 OFFCURVE",
"319 159 CURVE SMOOTH",
"227 159 OFFCURVE",
"117 252 OFFCURVE",
"117 252 CURVE",
"23 94 LINE",
"23 94 OFFCURVE",
"140 -15 OFFCURVE",
"333 -15 CURVE SMOOTH",
"494 -15 OFFCURVE",
"644 54 OFFCURVE",
"644 251 CURVE SMOOTH",
"644 359 OFFCURVE",
"543 437 OFFCURVE",
"451 476 CURVE SMOOTH",
"357 516 OFFCURVE",
"279 549 OFFCURVE",
"279 595 CURVE SMOOTH",
"279 640 OFFCURVE",
"313 669 OFFCURVE",
"377 669 CURVE SMOOTH",
"462 669 OFFCURVE",
"544 612 OFFCURVE",
"544 612 CURVE",
"620 762 LINE",
"620 762 OFFCURVE",
"514 840 OFFCURVE",
"364 840 CURVE SMOOTH"
);
},
{
closed = 1;
nodes = (
"483 1037 LINE",
"392 1152 LINE",
"189 976 LINE",
"245 899 LINE"
);
}
);
width = 672;
},
{
layerId = "2A961F25-8D0E-4F3D-9AC7-EA5E11B6DCD4";
name = Regular;
width = 600;
}
);
leftKerningGroup = S;
rightKerningGroup = d;
unicode = 015A;
},
{
glyphname = Scaron;
lastChange = "2015-12-23 09:57:27 +0000";
layers = (
{
layerId = "A4E552E4-62BE-43BB-A58F-34F0EE3B77B8";
name = Bold;
paths = (
{
closed = 1;
nodes = (
"231 840 OFFCURVE",
"95 742 OFFCURVE",
"95 588 CURVE SMOOTH",
"95 502 OFFCURVE",
"153 425 OFFCURVE",
"252 376 CURVE SMOOTH",
"350 327 OFFCURVE",
"438 300 OFFCURVE",
"438 240 CURVE SMOOTH",
"438 163 OFFCURVE",
"360 159 OFFCURVE",
"319 159 CURVE SMOOTH",
"227 159 OFFCURVE",
"117 252 OFFCURVE",
"117 252 CURVE",
"23 94 LINE",
"23 94 OFFCURVE",
"140 -15 OFFCURVE",
"333 -15 CURVE SMOOTH",
"494 -15 OFFCURVE",
"644 54 OFFCURVE",
"644 251 CURVE SMOOTH",
"644 359 OFFCURVE",
"543 437 OFFCURVE",
"451 476 CURVE SMOOTH",
"357 516 OFFCURVE",
"279 549 OFFCURVE",
"279 595 CURVE SMOOTH",
"279 640 OFFCURVE",
"313 669 OFFCURVE",
"377 669 CURVE SMOOTH",
"462 669 OFFCURVE",
"544 612 OFFCURVE",
"544 612 CURVE",
"620 762 LINE",
"620 762 OFFCURVE",
"514 840 OFFCURVE",
"364 840 CURVE SMOOTH"
);
},
{
closed = 1;
nodes = (
"336 899 LINE",
"557 1061 LINE",
"489 1152 LINE",
"336 1040 LINE",
"183 1152 LINE",
"115 1061 LINE"
);
}
);
width = 672;
},
{
layerId = "2A961F25-8D0E-4F3D-9AC7-EA5E11B6DCD4";
name = Regular;
width = 600;
}
);
leftKerningGroup = S;
rightKerningGroup = d;
unicode = 0160;
},
{
glyphname = Scommaaccent;
lastChange = "2015-12-23 09:57:27 +0000";
layers = (
{
layerId = "A4E552E4-62BE-43BB-A58F-34F0EE3B77B8";
name = Bold;
paths = (
{
closed = 1;
nodes = (
"231 840 OFFCURVE",
"95 742 OFFCURVE",
"95 588 CURVE SMOOTH",
"95 502 OFFCURVE",
"153 425 OFFCURVE",
"252 376 CURVE SMOOTH",
"350 327 OFFCURVE",
"438 300 OFFCURVE",
"438 240 CURVE SMOOTH",
"438 163 OFFCURVE",
"360 159 OFFCURVE",
"319 159 CURVE SMOOTH",
"227 159 OFFCURVE",
"117 252 OFFCURVE",
"117 252 CURVE",
"23 94 LINE",
"23 94 OFFCURVE",
"140 -15 OFFCURVE",
"333 -15 CURVE SMOOTH",
"494 -15 OFFCURVE",
"644 54 OFFCURVE",
"644 251 CURVE SMOOTH",
"644 359 OFFCURVE",
"543 437 OFFCURVE",
"451 476 CURVE SMOOTH",
"357 516 OFFCURVE",
"279 549 OFFCURVE",
"279 595 CURVE SMOOTH",
"279 640 OFFCURVE",
"313 669 OFFCURVE",
"377 669 CURVE SMOOTH",
"462 669 OFFCURVE",
"544 612 OFFCURVE",
"544 612 CURVE",
"620 762 LINE",
"620 762 OFFCURVE",
"514 840 OFFCURVE",
"364 840 CURVE SMOOTH"
);
},
{
closed = 1;
nodes = (
"385 -40 OFFCURVE",
"425 -80 OFFCURVE",
"425 -130 CURVE SMOOTH",
"425 -223 OFFCURVE",
"358 -299 OFFCURVE",
"295 -351 CURVE",
"255 -320 LINE",
"255 -320 OFFCURVE",
"302 -275 OFFCURVE",
"314 -210 CURVE",
"276 -201 OFFCURVE",
"247 -170 OFFCURVE",
"247 -130 CURVE SMOOTH",
"247 -80 OFFCURVE",
"287 -40 OFFCURVE",
"335 -40 CURVE SMOOTH"
);
}
);
width = 672;
},
{
layerId = "2A961F25-8D0E-4F3D-9AC7-EA5E11B6DCD4";
name = Regular;
width = 600;
}
);
leftKerningGroup = S;
rightKerningGroup = d;
unicode = 0218;
},
{
glyphname = T;
lastChange = "2016-01-31 21:40:43 +0000";
layers = (
{
layerId = "A4E552E4-62BE-43BB-A58F-34F0EE3B77B8";
name = Bold;
paths = (
{
closed = 1;
nodes = (
"211 0 LINE",
"399 0 LINE",
"399 660 LINE",
"595 660 LINE",
"595 825 LINE",
"15 825 LINE",
"15 660 LINE",
"211 660 LINE"
);
}
);
width = 610;
},
{
layerId = "2A961F25-8D0E-4F3D-9AC7-EA5E11B6DCD4";
name = Regular;
paths = (
{
closed = 1;
nodes = (
"230 0 LINE",
"322 0 LINE",
"322 742 LINE",
"537 742 LINE",
"537 825 LINE",
"15 825 LINE",
"15 742 LINE",
"230 742 LINE"
);
}
);
width = 552;
}
);
leftKerningGroup = T;
leftMetricsKey = "=|L";
rightKerningGroup = T;
rightMetricsKey = "=L";
unicode = 0054;
},
{
glyphname = Tcaron;
lastChange = "2015-12-23 09:57:27 +0000";
layers = (
{
layerId = "A4E552E4-62BE-43BB-A58F-34F0EE3B77B8";
name = Bold;
paths = (
{
closed = 1;
nodes = (
"204 0 LINE",
"392 0 LINE",
"392 660 LINE",
"588 660 LINE",
"588 825 LINE",
"8 825 LINE",
"8 660 LINE",
"204 660 LINE"
);
},
{
closed = 1;
nodes = (
"298 899 LINE",
"519 1061 LINE",
"451 1152 LINE",
"298 1040 LINE",
"145 1152 LINE",
"77 1061 LINE"
);
}
);
width = 596;
},
{
layerId = "2A961F25-8D0E-4F3D-9AC7-EA5E11B6DCD4";
name = Regular;
width = 600;
}
);
leftKerningGroup = T;
rightKerningGroup = T;
unicode = 0164;
},
{
glyphname = Tcommaaccent;
lastChange = "2015-12-23 09:57:27 +0000";
layers = (
{
layerId = "A4E552E4-62BE-43BB-A58F-34F0EE3B77B8";
name = Bold;
paths = (
{
closed = 1;
nodes = (
"204 0 LINE",
"392 0 LINE",
"392 660 LINE",
"588 660 LINE",
"588 825 LINE",
"8 825 LINE",
"8 660 LINE",
"204 660 LINE"
);
},
{
closed = 1;
nodes = (
"347 -40 OFFCURVE",
"387 -80 OFFCURVE",
"387 -130 CURVE SMOOTH",
"387 -223 OFFCURVE",
"320 -299 OFFCURVE",
"257 -351 CURVE",
"217 -320 LINE",
"217 -320 OFFCURVE",
"264 -275 OFFCURVE",
"276 -210 CURVE",
"238 -201 OFFCURVE",
"209 -170 OFFCURVE",
"209 -130 CURVE SMOOTH",
"209 -80 OFFCURVE",
"249 -40 OFFCURVE",
"297 -40 CURVE SMOOTH"
);
}
);
width = 596;
},
{
layerId = "2A961F25-8D0E-4F3D-9AC7-EA5E11B6DCD4";
name = Regular;
width = 600;
}
);
leftKerningGroup = T;
rightKerningGroup = T;
unicode = 0162;
},
{
glyphname = U;
lastChange = "2016-01-31 20:28:26 +0000";
layers = (
{
layerId = "A4E552E4-62BE-43BB-A58F-34F0EE3B77B8";
name = Bold;
paths = (
{
closed = 1;
nodes = (
"511 348 LINE SMOOTH",
"511 210 OFFCURVE",
"469 170 OFFCURVE",
"377 170 CURVE SMOOTH",
"285 170 OFFCURVE",
"243 210 OFFCURVE",
"243 348 CURVE SMOOTH",
"243 825 LINE",
"55 825 LINE",
"55 293 LINE SMOOTH",
"55 89 OFFCURVE",
"167 -15 OFFCURVE",
"377 -15 CURVE SMOOTH",
"587 -15 OFFCURVE",
"699 89 OFFCURVE",
"699 293 CURVE SMOOTH",
"699 825 LINE",
"511 825 LINE"
);
}
);
width = 754;
},
{
layerId = "2A961F25-8D0E-4F3D-9AC7-EA5E11B6DCD4";
name = Regular;
paths = (
{
closed = 1;
nodes = (
"572 298 LINE SMOOTH",
"572 150 OFFCURVE",
"494 67 OFFCURVE",
"362 67 CURVE SMOOTH",
"230 67 OFFCURVE",
"152 150 OFFCURVE",
"152 298 CURVE SMOOTH",
"152 825 LINE",
"60 825 LINE",
"60 293 LINE SMOOTH",
"60 89 OFFCURVE",
"172 -15 OFFCURVE",
"362 -15 CURVE SMOOTH",
"552 -15 OFFCURVE",
"664 89 OFFCURVE",
"664 293 CURVE SMOOTH",
"664 825 LINE",
"572 825 LINE"
);
}
);
width = 724;
}
);
leftMetricsKey = "=H-5";
rightKerningGroup = d;
rightMetricsKey = "=H-5";
unicode = 0055;
},
{
glyphname = Uacute;
lastChange = "2015-12-23 09:57:27 +0000";
layers = (
{
layerId = "A4E552E4-62BE-43BB-A58F-34F0EE3B77B8";
name = Bold;
paths = (
{
closed = 1;
nodes = (
"506 825 LINE",
"694 825 LINE",
"694 293 LINE SMOOTH",
"694 89 OFFCURVE",
"582 -15 OFFCURVE",
"372 -15 CURVE SMOOTH",
"162 -15 OFFCURVE",
"50 89 OFFCURVE",
"50 293 CURVE SMOOTH",
"50 825 LINE",
"238 825 LINE",
"238 348 LINE SMOOTH",
"238 210 OFFCURVE",
"280 170 OFFCURVE",
"372 170 CURVE SMOOTH",
"464 170 OFFCURVE",
"506 210 OFFCURVE",
"506 348 CURVE SMOOTH"
);
},
{
closed = 1;
nodes = (
"548 1037 LINE",
"457 1152 LINE",
"254 976 LINE",
"310 899 LINE"
);
}
);
width = 744;
},
{
layerId = "2A961F25-8D0E-4F3D-9AC7-EA5E11B6DCD4";
name = Regular;
width = 600;
}
);
rightKerningGroup = d;
unicode = 00DA;
},
{
glyphname = Ucircumflex;
lastChange = "2015-12-23 09:57:27 +0000";
layers = (
{
layerId = "A4E552E4-62BE-43BB-A58F-34F0EE3B77B8";
name = Bold;
paths = (
{
closed = 1;
nodes = (
"506 825 LINE",
"694 825 LINE",
"694 293 LINE SMOOTH",
"694 89 OFFCURVE",
"582 -15 OFFCURVE",
"372 -15 CURVE SMOOTH",
"162 -15 OFFCURVE",
"50 89 OFFCURVE",
"50 293 CURVE SMOOTH",
"50 825 LINE",
"238 825 LINE",
"238 348 LINE SMOOTH",
"238 210 OFFCURVE",
"280 170 OFFCURVE",
"372 170 CURVE SMOOTH",
"464 170 OFFCURVE",
"506 210 OFFCURVE",
"506 348 CURVE SMOOTH"
);
},
{
closed = 1;
nodes = (
"372 1011 LINE",
"525 899 LINE",
"593 990 LINE",
"372 1152 LINE",
"151 990 LINE",
"219 899 LINE"
);
}
);
width = 744;
},
{
layerId = "2A961F25-8D0E-4F3D-9AC7-EA5E11B6DCD4";
name = Regular;
width = 600;
}
);
rightKerningGroup = d;
unicode = 00DB;
},
{
glyphname = Udieresis;
lastChange = "2015-12-23 09:57:27 +0000";
layers = (
{
layerId = "A4E552E4-62BE-43BB-A58F-34F0EE3B77B8";
name = Bold;
paths = (
{
closed = 1;
nodes = (
"506 825 LINE",
"694 825 LINE",
"694 293 LINE SMOOTH",
"694 89 OFFCURVE",
"582 -15 OFFCURVE",
"372 -15 CURVE SMOOTH",
"162 -15 OFFCURVE",
"50 89 OFFCURVE",
"50 293 CURVE SMOOTH",
"50 825 LINE",
"238 825 LINE",
"238 348 LINE SMOOTH",
"238 210 OFFCURVE",
"280 170 OFFCURVE",
"372 170 CURVE SMOOTH",
"464 170 OFFCURVE",
"506 210 OFFCURVE",
"506 348 CURVE SMOOTH"
);
},
{
closed = 1;
nodes = (
"202 1103 OFFCURVE",
"161 1062 OFFCURVE",
"161 1011 CURVE SMOOTH",
"161 960 OFFCURVE",
"202 919 OFFCURVE",
"253 919 CURVE SMOOTH",
"304 919 OFFCURVE",
"345 960 OFFCURVE",
"345 1011 CURVE SMOOTH",
"345 1062 OFFCURVE",
"304 1103 OFFCURVE",
"253 1103 CURVE SMOOTH"
);
},
{
closed = 1;
nodes = (
"439 1103 OFFCURVE",
"398 1062 OFFCURVE",
"398 1011 CURVE SMOOTH",
"398 960 OFFCURVE",
"439 919 OFFCURVE",
"490 919 CURVE SMOOTH",
"541 919 OFFCURVE",
"582 960 OFFCURVE",
"582 1011 CURVE SMOOTH",
"582 1062 OFFCURVE",
"541 1103 OFFCURVE",
"490 1103 CURVE SMOOTH"
);
}
);
width = 744;
},
{
layerId = "2A961F25-8D0E-4F3D-9AC7-EA5E11B6DCD4";
name = Regular;
width = 600;
}
);
rightKerningGroup = d;
unicode = 00DC;
},
{
glyphname = Ugrave;
lastChange = "2015-12-23 09:57:27 +0000";
layers = (
{
layerId = "A4E552E4-62BE-43BB-A58F-34F0EE3B77B8";
name = Bold;
paths = (
{
closed = 1;
nodes = (
"506 825 LINE",
"694 825 LINE",
"694 293 LINE SMOOTH",
"694 89 OFFCURVE",
"582 -15 OFFCURVE",
"372 -15 CURVE SMOOTH",
"162 -15 OFFCURVE",
"50 89 OFFCURVE",
"50 293 CURVE SMOOTH",
"50 825 LINE",
"238 825 LINE",
"238 348 LINE SMOOTH",
"238 210 OFFCURVE",
"280 170 OFFCURVE",
"372 170 CURVE SMOOTH",
"464 170 OFFCURVE",
"506 210 OFFCURVE",
"506 348 CURVE SMOOTH"
);
},
{
closed = 1;
nodes = (
"374 899 LINE",
"430 976 LINE",
"227 1152 LINE",
"136 1037 LINE"
);
}
);
width = 744;
},
{
layerId = "2A961F25-8D0E-4F3D-9AC7-EA5E11B6DCD4";
name = Regular;
width = 600;
}
);
rightKerningGroup = d;
unicode = 00D9;
},
{
glyphname = Uhungarumlaut;
lastChange = "2015-12-23 09:57:27 +0000";
layers = (
{
layerId = "A4E552E4-62BE-43BB-A58F-34F0EE3B77B8";
name = Bold;
paths = (
{
closed = 1;
nodes = (
"506 825 LINE",
"694 825 LINE",
"694 293 LINE SMOOTH",
"694 89 OFFCURVE",
"582 -15 OFFCURVE",
"372 -15 CURVE SMOOTH",
"162 -15 OFFCURVE",
"50 89 OFFCURVE",
"50 293 CURVE SMOOTH",
"50 825 LINE",
"238 825 LINE",
"238 348 LINE SMOOTH",
"238 210 OFFCURVE",
"280 170 OFFCURVE",
"372 170 CURVE SMOOTH",
"464 170 OFFCURVE",
"506 210 OFFCURVE",
"506 348 CURVE SMOOTH"
);
},
{
closed = 1;
nodes = (
"420 1068 LINE",
"338 1172 LINE",
"165 976 LINE",
"221 899 LINE"
);
},
{
closed = 1;
nodes = (
"631 1068 LINE",
"549 1172 LINE",
"376 976 LINE",
"432 899 LINE"
);
}
);
width = 744;
},
{
layerId = "2A961F25-8D0E-4F3D-9AC7-EA5E11B6DCD4";
name = Regular;
width = 600;
}
);
rightKerningGroup = d;
unicode = 0170;
},
{
glyphname = Umacron;
lastChange = "2015-12-23 09:57:27 +0000";
layers = (
{
layerId = "A4E552E4-62BE-43BB-A58F-34F0EE3B77B8";
name = Bold;
paths = (
{
closed = 1;
nodes = (
"506 825 LINE",
"694 825 LINE",
"694 293 LINE SMOOTH",
"694 89 OFFCURVE",
"582 -15 OFFCURVE",
"372 -15 CURVE SMOOTH",
"162 -15 OFFCURVE",
"50 89 OFFCURVE",
"50 293 CURVE SMOOTH",
"50 825 LINE",
"238 825 LINE",
"238 348 LINE SMOOTH",
"238 210 OFFCURVE",
"280 170 OFFCURVE",
"372 170 CURVE SMOOTH",
"464 170 OFFCURVE",
"506 210 OFFCURVE",
"506 348 CURVE SMOOTH"
);
},
{
closed = 1;
nodes = (
"576 946 LINE",
"576 1066 LINE",
"168 1066 LINE",
"168 946 LINE"
);
}
);
width = 744;
},
{
layerId = "2A961F25-8D0E-4F3D-9AC7-EA5E11B6DCD4";
name = Regular;
width = 600;
}
);
rightKerningGroup = d;
unicode = 016A;
},
{
glyphname = Uogonek;
lastChange = "2015-12-23 09:57:27 +0000";
layers = (
{
layerId = "A4E552E4-62BE-43BB-A58F-34F0EE3B77B8";
name = Bold;
paths = (
{
closed = 1;
nodes = (
"265 -245 OFFCURVE",
"339 -275 OFFCURVE",
"391 -275 CURVE SMOOTH",
"483 -275 OFFCURVE",
"528 -203 OFFCURVE",
"528 -203 CURVE",
"456 -149 LINE",
"456 -149 OFFCURVE",
"436 -179 OFFCURVE",
"405 -179 CURVE SMOOTH",
"388 -179 OFFCURVE",
"368 -165 OFFCURVE",
"368 -140 CURVE SMOOTH",
"368 -88 OFFCURVE",
"400 -36 OFFCURVE",
"417 -13 CURVE",
"598 1 OFFCURVE",
"694 104 OFFCURVE",
"694 293 CURVE SMOOTH",
"694 825 LINE",
"506 825 LINE",
"506 348 LINE SMOOTH",
"506 210 OFFCURVE",
"464 170 OFFCURVE",
"372 170 CURVE SMOOTH",
"280 170 OFFCURVE",
"238 210 OFFCURVE",
"238 348 CURVE SMOOTH",
"238 825 LINE",
"50 825 LINE",
"50 293 LINE SMOOTH",
"50 101 OFFCURVE",
"148 -1 OFFCURVE",
"334 -13 CURVE",
"304 -51 OFFCURVE",
"265 -108 OFFCURVE",
"265 -158 CURVE SMOOTH"
);
}
);
width = 744;
},
{
layerId = "2A961F25-8D0E-4F3D-9AC7-EA5E11B6DCD4";
name = Regular;
width = 600;
}
);
rightKerningGroup = d;
unicode = 0172;
},
{
glyphname = Uring;
lastChange = "2015-12-23 09:57:27 +0000";
layers = (
{
layerId = "A4E552E4-62BE-43BB-A58F-34F0EE3B77B8";
name = Bold;
paths = (
{
closed = 1;
nodes = (
"506 348 LINE SMOOTH",
"506 210 OFFCURVE",
"464 170 OFFCURVE",
"372 170 CURVE SMOOTH",
"280 170 OFFCURVE",
"238 210 OFFCURVE",
"238 348 CURVE SMOOTH",
"238 825 LINE",
"50 825 LINE",
"50 293 LINE SMOOTH",
"50 89 OFFCURVE",
"162 -15 OFFCURVE",
"372 -15 CURVE SMOOTH",
"582 -15 OFFCURVE",
"694 89 OFFCURVE",
"694 293 CURVE SMOOTH",
"694 825 LINE",
"506 825 LINE"
);
},
{
closed = 1;
nodes = (
"211 961 OFFCURVE",
"276 902 OFFCURVE",
"372 902 CURVE SMOOTH",
"466 902 OFFCURVE",
"533 961 OFFCURVE",
"533 1045 CURVE SMOOTH",
"533 1128 OFFCURVE",
"463 1187 OFFCURVE",
"372 1187 CURVE SMOOTH",
"282 1187 OFFCURVE",
"211 1128 OFFCURVE",
"211 1045 CURVE SMOOTH"
);
},
{
closed = 1;
nodes = (
"311 1079 OFFCURVE",
"339 1107 OFFCURVE",
"372 1107 CURVE SMOOTH",
"406 1107 OFFCURVE",
"433 1079 OFFCURVE",
"433 1045 CURVE SMOOTH",
"433 1010 OFFCURVE",
"407 981 OFFCURVE",
"372 981 CURVE SMOOTH",
"336 981 OFFCURVE",
"311 1010 OFFCURVE",
"311 1045 CURVE SMOOTH"
);
}
);
width = 744;
},
{
layerId = "2A961F25-8D0E-4F3D-9AC7-EA5E11B6DCD4";
name = Regular;
width = 600;
}
);
rightKerningGroup = d;
unicode = 016E;
},
{
glyphname = V;
lastChange = "2016-02-10 23:52:19 +0000";
layers = (
{
layerId = "A4E552E4-62BE-43BB-A58F-34F0EE3B77B8";
name = Bold;
paths = (
{
closed = 1;
nodes = (
"812 825 LINE",
"600 825 LINE",
"392 283 LINE",
"184 825 LINE",
"-28 825 LINE",
"318 0 LINE",
"466 0 LINE"
);
}
);
width = 784;
},
{
layerId = "2A961F25-8D0E-4F3D-9AC7-EA5E11B6DCD4";
name = Regular;
paths = (
{
closed = 1;
nodes = (
"714 825 LINE",
"612 825 LINE",
"351 98 LINE",
"90 825 LINE",
"-12 825 LINE",
"297 0 LINE",
"405 0 LINE"
);
}
);
width = 702;
}
);
leftKerningGroup = V;
leftMetricsKey = "=A";
rightKerningGroup = V;
rightMetricsKey = "=A";
unicode = 0056;
},
{
glyphname = W;
lastChange = "2016-01-31 21:40:35 +0000";
layers = (
{
layerId = "A4E552E4-62BE-43BB-A58F-34F0EE3B77B8";
name = Bold;
paths = (
{
closed = 1;
nodes = (
"1123 825 LINE",
"915 825 LINE",
"774 259 LINE",
"769 259 LINE",
"619 825 LINE",
"477 825 LINE",
"327 259 LINE",
"322 259 LINE",
"181 825 LINE",
"-28 825 LINE",
"207 0 LINE",
"416 0 LINE",
"548 463 LINE",
"680 0 LINE",
"888 0 LINE"
);
}
);
width = 1095;
},
{
layerId = "2A961F25-8D0E-4F3D-9AC7-EA5E11B6DCD4";
name = Regular;
paths = (
{
closed = 1;
nodes = (
"919 825 LINE",
"821 825 LINE",
"682 197 LINE",
"680 197 LINE",
"495 825 LINE",
"413 825 LINE",
"230 197 LINE",
"228 197 LINE",
"87 825 LINE",
"-12 825 LINE",
"193 0 LINE",
"265 0 LINE",
"454 644 LINE",
"642 0 LINE",
"714 0 LINE"
);
}
);
width = 907;
}
);
leftKerningGroup = V;
leftMetricsKey = "=A";
rightKerningGroup = V;
rightMetricsKey = "=A";
unicode = 0057;
},
{
glyphname = X;
lastChange = "2016-02-10 23:49:05 +0000";
layers = (
{
layerId = "A4E552E4-62BE-43BB-A58F-34F0EE3B77B8";
name = Bold;
paths = (
{
closed = 1;
nodes = (
"786 825 LINE",
"552 825 LINE",
"400 600 LINE",
"248 825 LINE",
"24 825 LINE",
"284 444 LINE",
"-28 0 LINE",
"205 0 LINE",
"400 281 LINE",
"595 0 LINE",
"838 0 LINE",
"516 444 LINE"
);
}
);
width = 810;
},
{
layerId = "2A961F25-8D0E-4F3D-9AC7-EA5E11B6DCD4";
name = Regular;
paths = (
{
closed = 1;
nodes = (
"690 825 LINE",
"574 825 LINE",
"354 518 LINE",
"135 825 LINE",
"18 825 LINE",
"293 451 LINE",
"-12 0 LINE",
"106 0 LINE",
"354 382 LINE",
"602 0 LINE",
"720 0 LINE",
"415 451 LINE"
);
}
);
width = 708;
}
);
leftMetricsKey = "=A";
rightKerningGroup = d;
rightMetricsKey = "=A";
unicode = 0058;
},
{
glyphname = Y;
lastChange = "2016-01-31 21:47:41 +0000";
layers = (
{
layerId = "A4E552E4-62BE-43BB-A58F-34F0EE3B77B8";
name = Bold;
paths = (
{
closed = 1;
nodes = (
"276 0 LINE",
"464 0 LINE",
"464 370 LINE",
"768 825 LINE",
"542 825 LINE",
"370 561 LINE",
"198 825 LINE",
"-28 825 LINE",
"276 370 LINE"
);
}
);
width = 740;
},
{
layerId = "2A961F25-8D0E-4F3D-9AC7-EA5E11B6DCD4";
name = Regular;
paths = (
{
closed = 1;
nodes = (
"275 0 LINE",
"367 0 LINE",
"367 388 LINE",
"654 825 LINE",
"538 825 LINE",
"321 475 LINE",
"104 825 LINE",
"-12 825 LINE",
"277 386 LINE"
);
}
);
width = 642;
}
);
leftKerningGroup = Y;
leftMetricsKey = "=X";
rightKerningGroup = Y;
rightMetricsKey = "=X";
unicode = 0059;
},
{
glyphname = Yacute;
lastChange = "2015-12-23 09:57:27 +0000";
layers = (
{
layerId = "A4E552E4-62BE-43BB-A58F-34F0EE3B77B8";
name = Bold;
paths = (
{
closed = 1;
nodes = (
"274 0 LINE",
"462 0 LINE",
"462 370 LINE",
"766 825 LINE",
"540 825 LINE",
"368 561 LINE",
"196 825 LINE",
"-30 825 LINE",
"274 370 LINE"
);
},
{
closed = 1;
nodes = (
"545 1037 LINE",
"454 1152 LINE",
"251 976 LINE",
"307 899 LINE"
);
}
);
width = 736;
},
{
layerId = "2A961F25-8D0E-4F3D-9AC7-EA5E11B6DCD4";
name = Regular;
width = 600;
}
);
leftKerningGroup = Y;
rightKerningGroup = Y;
unicode = 00DD;
},
{
glyphname = Ydieresis;
lastChange = "2015-12-23 09:57:27 +0000";
layers = (
{
layerId = "A4E552E4-62BE-43BB-A58F-34F0EE3B77B8";
name = Bold;
paths = (
{
closed = 1;
nodes = (
"274 0 LINE",
"462 0 LINE",
"462 370 LINE",
"766 825 LINE",
"540 825 LINE",
"368 561 LINE",
"196 825 LINE",
"-30 825 LINE",
"274 370 LINE"
);
},
{
closed = 1;
nodes = (
"198 1103 OFFCURVE",
"157 1062 OFFCURVE",
"157 1011 CURVE SMOOTH",
"157 960 OFFCURVE",
"198 919 OFFCURVE",
"249 919 CURVE SMOOTH",
"300 919 OFFCURVE",
"341 960 OFFCURVE",
"341 1011 CURVE SMOOTH",
"341 1062 OFFCURVE",
"300 1103 OFFCURVE",
"249 1103 CURVE SMOOTH"
);
},
{
closed = 1;
nodes = (
"435 1103 OFFCURVE",
"394 1062 OFFCURVE",
"394 1011 CURVE SMOOTH",
"394 960 OFFCURVE",
"435 919 OFFCURVE",
"486 919 CURVE SMOOTH",
"537 919 OFFCURVE",
"578 960 OFFCURVE",
"578 1011 CURVE SMOOTH",
"578 1062 OFFCURVE",
"537 1103 OFFCURVE",
"486 1103 CURVE SMOOTH"
);
}
);
width = 736;
},
{
layerId = "2A961F25-8D0E-4F3D-9AC7-EA5E11B6DCD4";
name = Regular;
width = 600;
}
);
leftKerningGroup = Y;
rightKerningGroup = Y;
unicode = 0178;
},
{
glyphname = Z;
lastChange = "2016-01-31 21:54:03 +0000";
layers = (
{
layerId = "A4E552E4-62BE-43BB-A58F-34F0EE3B77B8";
name = Bold;
paths = (
{
closed = 1;
nodes = (
"83 660 LINE",
"433 660 LINE",
"25 0 LINE",
"735 0 LINE",
"735 165 LINE",
"353 165 LINE",
"762 825 LINE",
"83 825 LINE"
);
}
);
width = 794;
},
{
layerId = "2A961F25-8D0E-4F3D-9AC7-EA5E11B6DCD4";
name = Regular;
paths = (
{
closed = 1;
nodes = (
"94 742 LINE",
"494 742 LINE",
"30 0 LINE",
"650 0 LINE",
"650 83 LINE",
"188 83 LINE",
"653 825 LINE",
"94 825 LINE"
);
}
);
width = 690;
}
);
leftMetricsKey = "=H-35";
rightKerningGroup = d;
rightMetricsKey = "=H-28";
unicode = 005A;
},
{
glyphname = Zacute;
lastChange = "2015-12-23 09:57:27 +0000";
layers = (
{
layerId = "A4E552E4-62BE-43BB-A58F-34F0EE3B77B8";
name = Bold;
paths = (
{
closed = 1;
nodes = (
"74 660 LINE",
"424 660 LINE",
"16 0 LINE",
"726 0 LINE",
"726 165 LINE",
"344 165 LINE",
"753 825 LINE",
"74 825 LINE"
);
},
{
closed = 1;
nodes = (
"531 1037 LINE",
"440 1152 LINE",
"237 976 LINE",
"293 899 LINE"
);
}
);
width = 769;
},
{
layerId = "2A961F25-8D0E-4F3D-9AC7-EA5E11B6DCD4";
name = Regular;
width = 600;
}
);
rightKerningGroup = d;
unicode = 0179;
},
{
glyphname = Zcaron;
lastChange = "2015-12-23 09:57:27 +0000";
layers = (
{
layerId = "A4E552E4-62BE-43BB-A58F-34F0EE3B77B8";
name = Bold;
paths = (
{
closed = 1;
nodes = (
"74 660 LINE",
"424 660 LINE",
"16 0 LINE",
"726 0 LINE",
"726 165 LINE",
"344 165 LINE",
"753 825 LINE",
"74 825 LINE"
);
},
{
closed = 1;
nodes = (
"384 899 LINE",
"605 1061 LINE",
"537 1152 LINE",
"384 1040 LINE",
"231 1152 LINE",
"163 1061 LINE"
);
}
);
width = 769;
},
{
layerId = "2A961F25-8D0E-4F3D-9AC7-EA5E11B6DCD4";
name = Regular;
width = 600;
}
);
rightKerningGroup = d;
unicode = 017D;
},
{
glyphname = Zdotaccent;
lastChange = "2015-12-23 09:57:27 +0000";
layers = (
{
layerId = "A4E552E4-62BE-43BB-A58F-34F0EE3B77B8";
name = Bold;
paths = (
{
closed = 1;
nodes = (
"74 660 LINE",
"424 660 LINE",
"16 0 LINE",
"726 0 LINE",
"726 165 LINE",
"344 165 LINE",
"753 825 LINE",
"74 825 LINE"
);
},
{
closed = 1;
nodes = (
"333 1103 OFFCURVE",
"292 1062 OFFCURVE",
"292 1011 CURVE SMOOTH",
"292 960 OFFCURVE",
"333 919 OFFCURVE",
"384 919 CURVE SMOOTH",
"435 919 OFFCURVE",
"476 960 OFFCURVE",
"476 1011 CURVE SMOOTH",
"476 1062 OFFCURVE",
"435 1103 OFFCURVE",
"384 1103 CURVE SMOOTH"
);
}
);
width = 769;
},
{
layerId = "2A961F25-8D0E-4F3D-9AC7-EA5E11B6DCD4";
name = Regular;
width = 600;
}
);
rightKerningGroup = d;
unicode = 017B;
},
{
glyphname = a;
lastChange = "2016-02-10 23:52:19 +0000";
layers = (
{
layerId = "A4E552E4-62BE-43BB-A58F-34F0EE3B77B8";
name = Bold;
paths = (
{
closed = 1;
nodes = (
"23 106 OFFCURVE",
"128 -15 OFFCURVE",
"278 -15 CURVE SMOOTH",
"348 -15 OFFCURVE",
"408 16 OFFCURVE",
"446 58 CURVE",
"448 58 LINE",
"448 0 LINE",
"623 0 LINE",
"623 513 LINE",
"446 513 LINE",
"446 464 LINE",
"404 505 OFFCURVE",
"347 528 OFFCURVE",
"278 528 CURVE SMOOTH",
"128 528 OFFCURVE",
"23 406 OFFCURVE",
"23 256 CURVE SMOOTH"
);
},
{
closed = 1;
nodes = (
"211 327 OFFCURVE",
"264 377 OFFCURVE",
"331 377 CURVE SMOOTH",
"397 377 OFFCURVE",
"450 327 OFFCURVE",
"450 256 CURVE SMOOTH",
"450 186 OFFCURVE",
"400 136 OFFCURVE",
"331 136 CURVE SMOOTH",
"259 136 OFFCURVE",
"211 186 OFFCURVE",
"211 256 CURVE SMOOTH"
);
}
);
width = 683;
},
{
layerId = "2A961F25-8D0E-4F3D-9AC7-EA5E11B6DCD4";
name = Regular;
paths = (
{
closed = 1;
nodes = (
"60 106 OFFCURVE",
"167 -15 OFFCURVE",
"315 -15 CURVE SMOOTH",
"379 -15 OFFCURVE",
"442 13 OFFCURVE",
"484 63 CURVE",
"485 63 LINE",
"485 0 LINE",
"572 0 LINE",
"572 513 LINE",
"483 513 LINE",
"483 456 LINE",
"435 506 OFFCURVE",
"379 528 OFFCURVE",
"315 528 CURVE SMOOTH",
"167 528 OFFCURVE",
"60 406 OFFCURVE",
"60 256 CURVE SMOOTH"
);
},
{
closed = 1;
nodes = (
"151 374 OFFCURVE",
"218 448 OFFCURVE",
"326 448 CURVE SMOOTH",
"414 448 OFFCURVE",
"487 374 OFFCURVE",
"487 256 CURVE SMOOTH",
"487 138 OFFCURVE",
"417 65 OFFCURVE",
"326 65 CURVE SMOOTH",
"218 65 OFFCURVE",
"151 138 OFFCURVE",
"151 256 CURVE SMOOTH"
);
}
);
width = 660;
}
);
leftKerningGroup = aacute;
leftMetricsKey = "=o";
rightKerningGroup = aacute;
rightMetricsKey = "=|n";
unicode = 0061;
},
{
glyphname = aacute;
lastChange = "2015-12-23 09:57:27 +0000";
layers = (
{
layerId = "A4E552E4-62BE-43BB-A58F-34F0EE3B77B8";
name = Bold;
paths = (
{
closed = 1;
nodes = (
"23 406 OFFCURVE",
"128 528 OFFCURVE",
"278 528 CURVE SMOOTH",
"347 528 OFFCURVE",
"404 505 OFFCURVE",
"446 464 CURVE",
"446 513 LINE",
"623 513 LINE",
"623 0 LINE",
"448 0 LINE",
"448 58 LINE",
"446 58 LINE",
"408 16 OFFCURVE",
"348 -15 OFFCURVE",
"278 -15 CURVE SMOOTH",
"128 -15 OFFCURVE",
"23 106 OFFCURVE",
"23 256 CURVE SMOOTH"
);
},
{
closed = 1;
nodes = (
"211 186 OFFCURVE",
"259 136 OFFCURVE",
"331 136 CURVE SMOOTH",
"400 136 OFFCURVE",
"450 186 OFFCURVE",
"450 256 CURVE SMOOTH",
"450 327 OFFCURVE",
"397 377 OFFCURVE",
"331 377 CURVE SMOOTH",
"264 377 OFFCURVE",
"211 327 OFFCURVE",
"211 256 CURVE SMOOTH"
);
},
{
closed = 1;
nodes = (
"577 725 LINE",
"486 840 LINE",
"283 664 LINE",
"339 587 LINE"
);
}
);
width = 683;
},
{
layerId = "2A961F25-8D0E-4F3D-9AC7-EA5E11B6DCD4";
name = Regular;
width = 600;
}
);
leftKerningGroup = aacute;
rightKerningGroup = aacute;
unicode = 00E1;
},
{
glyphname = abreve;
lastChange = "2015-12-23 09:57:27 +0000";
layers = (
{
layerId = "A4E552E4-62BE-43BB-A58F-34F0EE3B77B8";
name = Bold;
paths = (
{
closed = 1;
nodes = (
"23 106 OFFCURVE",
"128 -15 OFFCURVE",
"278 -15 CURVE SMOOTH",
"348 -15 OFFCURVE",
"408 16 OFFCURVE",
"446 58 CURVE",
"448 58 LINE",
"448 0 LINE",
"623 0 LINE",
"623 513 LINE",
"446 513 LINE",
"446 464 LINE",
"404 505 OFFCURVE",
"347 528 OFFCURVE",
"278 528 CURVE SMOOTH",
"128 528 OFFCURVE",
"23 406 OFFCURVE",
"23 256 CURVE SMOOTH"
);
},
{
closed = 1;
nodes = (
"211 327 OFFCURVE",
"264 377 OFFCURVE",
"331 377 CURVE SMOOTH",
"397 377 OFFCURVE",
"450 327 OFFCURVE",
"450 256 CURVE SMOOTH",
"450 186 OFFCURVE",
"400 136 OFFCURVE",
"331 136 CURVE SMOOTH",
"259 136 OFFCURVE",
"211 186 OFFCURVE",
"211 256 CURVE SMOOTH"
);
},
{
closed = 1;
nodes = (
"446 840 LINE",
"446 840 OFFCURVE",
"435 737 OFFCURVE",
"341 737 CURVE SMOOTH",
"247 737 OFFCURVE",
"236 840 OFFCURVE",
"236 840 CURVE",
"110 809 LINE",
"122 702 OFFCURVE",
"212 628 OFFCURVE",
"341 628 CURVE SMOOTH",
"470 628 OFFCURVE",
"560 702 OFFCURVE",
"572 809 CURVE"
);
}
);
width = 683;
},
{
layerId = "2A961F25-8D0E-4F3D-9AC7-EA5E11B6DCD4";
name = Regular;
width = 600;
}
);
leftKerningGroup = aacute;
rightKerningGroup = aacute;
unicode = 0103;
},
{
glyphname = acircumflex;
lastChange = "2015-12-23 09:57:27 +0000";
layers = (
{
layerId = "A4E552E4-62BE-43BB-A58F-34F0EE3B77B8";
name = Bold;
paths = (
{
closed = 1;
nodes = (
"23 406 OFFCURVE",
"128 528 OFFCURVE",
"278 528 CURVE SMOOTH",
"347 528 OFFCURVE",
"404 505 OFFCURVE",
"446 464 CURVE",
"446 513 LINE",
"623 513 LINE",
"623 0 LINE",
"448 0 LINE",
"448 58 LINE",
"446 58 LINE",
"408 16 OFFCURVE",
"348 -15 OFFCURVE",
"278 -15 CURVE SMOOTH",
"128 -15 OFFCURVE",
"23 106 OFFCURVE",
"23 256 CURVE SMOOTH"
);
},
{
closed = 1;
nodes = (
"211 186 OFFCURVE",
"259 136 OFFCURVE",
"331 136 CURVE SMOOTH",
"400 136 OFFCURVE",
"450 186 OFFCURVE",
"450 256 CURVE SMOOTH",
"450 327 OFFCURVE",
"397 377 OFFCURVE",
"331 377 CURVE SMOOTH",
"264 377 OFFCURVE",
"211 327 OFFCURVE",
"211 256 CURVE SMOOTH"
);
},
{
closed = 1;
nodes = (
"341 699 LINE",
"494 587 LINE",
"562 678 LINE",
"341 840 LINE",
"120 678 LINE",
"188 587 LINE"
);
}
);
width = 683;
},
{
layerId = "2A961F25-8D0E-4F3D-9AC7-EA5E11B6DCD4";
name = Regular;
width = 600;
}
);
leftKerningGroup = aacute;
rightKerningGroup = aacute;
unicode = 00E2;
},
{
glyphname = adieresis;
lastChange = "2015-12-23 09:57:27 +0000";
layers = (
{
layerId = "A4E552E4-62BE-43BB-A58F-34F0EE3B77B8";
name = Bold;
paths = (
{
closed = 1;
nodes = (
"23 406 OFFCURVE",
"128 528 OFFCURVE",
"278 528 CURVE SMOOTH",
"347 528 OFFCURVE",
"404 505 OFFCURVE",
"446 464 CURVE",
"446 513 LINE",
"623 513 LINE",
"623 0 LINE",
"448 0 LINE",
"448 58 LINE",
"446 58 LINE",
"408 16 OFFCURVE",
"348 -15 OFFCURVE",
"278 -15 CURVE SMOOTH",
"128 -15 OFFCURVE",
"23 106 OFFCURVE",
"23 256 CURVE SMOOTH"
);
},
{
closed = 1;
nodes = (
"211 186 OFFCURVE",
"259 136 OFFCURVE",
"331 136 CURVE SMOOTH",
"400 136 OFFCURVE",
"450 186 OFFCURVE",
"450 256 CURVE SMOOTH",
"450 327 OFFCURVE",
"397 377 OFFCURVE",
"331 377 CURVE SMOOTH",
"264 377 OFFCURVE",
"211 327 OFFCURVE",
"211 256 CURVE SMOOTH"
);
},
{
closed = 1;
nodes = (
"172 791 OFFCURVE",
"131 750 OFFCURVE",
"131 699 CURVE SMOOTH",
"131 648 OFFCURVE",
"172 607 OFFCURVE",
"223 607 CURVE SMOOTH",
"274 607 OFFCURVE",
"315 648 OFFCURVE",
"315 699 CURVE SMOOTH",
"315 750 OFFCURVE",
"274 791 OFFCURVE",
"223 791 CURVE SMOOTH"
);
},
{
closed = 1;
nodes = (
"409 791 OFFCURVE",
"368 750 OFFCURVE",
"368 699 CURVE SMOOTH",
"368 648 OFFCURVE",
"409 607 OFFCURVE",
"460 607 CURVE SMOOTH",
"511 607 OFFCURVE",
"552 648 OFFCURVE",
"552 699 CURVE SMOOTH",
"552 750 OFFCURVE",
"511 791 OFFCURVE",
"460 791 CURVE SMOOTH"
);
}
);
width = 683;
},
{
layerId = "2A961F25-8D0E-4F3D-9AC7-EA5E11B6DCD4";
name = Regular;
width = 600;
}
);
leftKerningGroup = aacute;
rightKerningGroup = aacute;
unicode = 00E4;
},
{
glyphname = agrave;
lastChange = "2015-12-23 09:57:27 +0000";
layers = (
{
layerId = "A4E552E4-62BE-43BB-A58F-34F0EE3B77B8";
name = Bold;
paths = (
{
closed = 1;
nodes = (
"23 406 OFFCURVE",
"128 528 OFFCURVE",
"278 528 CURVE SMOOTH",
"347 528 OFFCURVE",
"404 505 OFFCURVE",
"446 464 CURVE",
"446 513 LINE",
"623 513 LINE",
"623 0 LINE",
"448 0 LINE",
"448 58 LINE",
"446 58 LINE",
"408 16 OFFCURVE",
"348 -15 OFFCURVE",
"278 -15 CURVE SMOOTH",
"128 -15 OFFCURVE",
"23 106 OFFCURVE",
"23 256 CURVE SMOOTH"
);
},
{
closed = 1;
nodes = (
"211 186 OFFCURVE",
"259 136 OFFCURVE",
"331 136 CURVE SMOOTH",
"400 136 OFFCURVE",
"450 186 OFFCURVE",
"450 256 CURVE SMOOTH",
"450 327 OFFCURVE",
"397 377 OFFCURVE",
"331 377 CURVE SMOOTH",
"264 377 OFFCURVE",
"211 327 OFFCURVE",
"211 256 CURVE SMOOTH"
);
},
{
closed = 1;
nodes = (
"343 587 LINE",
"399 664 LINE",
"196 840 LINE",
"105 725 LINE"
);
}
);
width = 683;
},
{
layerId = "2A961F25-8D0E-4F3D-9AC7-EA5E11B6DCD4";
name = Regular;
width = 600;
}
);
leftKerningGroup = aacute;
rightKerningGroup = aacute;
unicode = 00E0;
},
{
glyphname = amacron;
lastChange = "2015-12-23 09:57:27 +0000";
layers = (
{
layerId = "A4E552E4-62BE-43BB-A58F-34F0EE3B77B8";
name = Bold;
paths = (
{
closed = 1;
nodes = (
"23 406 OFFCURVE",
"128 528 OFFCURVE",
"278 528 CURVE SMOOTH",
"347 528 OFFCURVE",
"404 505 OFFCURVE",
"446 464 CURVE",
"446 513 LINE",
"623 513 LINE",
"623 0 LINE",
"448 0 LINE",
"448 58 LINE",
"446 58 LINE",
"408 16 OFFCURVE",
"348 -15 OFFCURVE",
"278 -15 CURVE SMOOTH",
"128 -15 OFFCURVE",
"23 106 OFFCURVE",
"23 256 CURVE SMOOTH"
);
},
{
closed = 1;
nodes = (
"211 186 OFFCURVE",
"259 136 OFFCURVE",
"331 136 CURVE SMOOTH",
"400 136 OFFCURVE",
"450 186 OFFCURVE",
"450 256 CURVE SMOOTH",
"450 327 OFFCURVE",
"397 377 OFFCURVE",
"331 377 CURVE SMOOTH",
"264 377 OFFCURVE",
"211 327 OFFCURVE",
"211 256 CURVE SMOOTH"
);
},
{
closed = 1;
nodes = (
"545 634 LINE",
"545 754 LINE",
"137 754 LINE",
"137 634 LINE"
);
}
);
width = 683;
},
{
layerId = "2A961F25-8D0E-4F3D-9AC7-EA5E11B6DCD4";
name = Regular;
width = 600;
}
);
leftKerningGroup = aacute;
rightKerningGroup = aacute;
unicode = 0101;
},
{
glyphname = aogonek;
lastChange = "2015-12-23 09:57:27 +0000";
layers = (
{
layerId = "A4E552E4-62BE-43BB-A58F-34F0EE3B77B8";
name = Bold;
paths = (
{
closed = 1;
nodes = (
"368 -245 OFFCURVE",
"442 -275 OFFCURVE",
"494 -275 CURVE SMOOTH",
"586 -275 OFFCURVE",
"631 -203 OFFCURVE",
"631 -203 CURVE",
"559 -149 LINE",
"559 -149 OFFCURVE",
"539 -179 OFFCURVE",
"508 -179 CURVE SMOOTH",
"491 -179 OFFCURVE",
"471 -165 OFFCURVE",
"471 -140 CURVE SMOOTH",
"471 -70 OFFCURVE",
"530 0 OFFCURVE",
"530 0 CURVE",
"623 0 LINE",
"623 513 LINE",
"446 513 LINE",
"446 464 LINE",
"404 505 OFFCURVE",
"347 528 OFFCURVE",
"278 528 CURVE SMOOTH",
"128 528 OFFCURVE",
"23 406 OFFCURVE",
"23 256 CURVE SMOOTH",
"23 106 OFFCURVE",
"128 -15 OFFCURVE",
"278 -15 CURVE SMOOTH",
"348 -15 OFFCURVE",
"408 16 OFFCURVE",
"446 58 CURVE",
"448 58 LINE",
"448 0 LINE",
"418 -35 OFFCURVE",
"368 -101 OFFCURVE",
"368 -158 CURVE SMOOTH"
);
},
{
closed = 1;
nodes = (
"211 327 OFFCURVE",
"264 377 OFFCURVE",
"331 377 CURVE SMOOTH",
"397 377 OFFCURVE",
"450 327 OFFCURVE",
"450 256 CURVE SMOOTH",
"450 186 OFFCURVE",
"400 136 OFFCURVE",
"331 136 CURVE SMOOTH",
"259 136 OFFCURVE",
"211 186 OFFCURVE",
"211 256 CURVE SMOOTH"
);
}
);
width = 683;
},
{
layerId = "2A961F25-8D0E-4F3D-9AC7-EA5E11B6DCD4";
name = Regular;
width = 600;
}
);
leftKerningGroup = aacute;
rightKerningGroup = aacute;
unicode = 0105;
},
{
glyphname = aring;
lastChange = "2015-12-23 09:57:27 +0000";
layers = (
{
layerId = "A4E552E4-62BE-43BB-A58F-34F0EE3B77B8";
name = Bold;
paths = (
{
closed = 1;
nodes = (
"23 106 OFFCURVE",
"128 -15 OFFCURVE",
"278 -15 CURVE SMOOTH",
"348 -15 OFFCURVE",
"408 16 OFFCURVE",
"446 58 CURVE",
"448 58 LINE",
"448 0 LINE",
"623 0 LINE",
"623 513 LINE",
"446 513 LINE",
"446 464 LINE",
"404 505 OFFCURVE",
"347 528 OFFCURVE",
"278 528 CURVE SMOOTH",
"128 528 OFFCURVE",
"23 406 OFFCURVE",
"23 256 CURVE SMOOTH"
);
},
{
closed = 1;
nodes = (
"211 327 OFFCURVE",
"264 377 OFFCURVE",
"331 377 CURVE SMOOTH",
"397 377 OFFCURVE",
"450 327 OFFCURVE",
"450 256 CURVE SMOOTH",
"450 186 OFFCURVE",
"400 136 OFFCURVE",
"331 136 CURVE SMOOTH",
"259 136 OFFCURVE",
"211 186 OFFCURVE",
"211 256 CURVE SMOOTH"
);
},
{
closed = 1;
nodes = (
"180 649 OFFCURVE",
"245 590 OFFCURVE",
"341 590 CURVE SMOOTH",
"435 590 OFFCURVE",
"502 649 OFFCURVE",
"502 733 CURVE SMOOTH",
"502 816 OFFCURVE",
"432 875 OFFCURVE",
"341 875 CURVE SMOOTH",
"251 875 OFFCURVE",
"180 816 OFFCURVE",
"180 733 CURVE SMOOTH"
);
},
{
closed = 1;
nodes = (
"280 767 OFFCURVE",
"308 795 OFFCURVE",
"341 795 CURVE SMOOTH",
"375 795 OFFCURVE",
"402 767 OFFCURVE",
"402 733 CURVE SMOOTH",
"402 698 OFFCURVE",
"376 669 OFFCURVE",
"341 669 CURVE SMOOTH",
"305 669 OFFCURVE",
"280 698 OFFCURVE",
"280 733 CURVE SMOOTH"
);
}
);
width = 683;
},
{
layerId = "2A961F25-8D0E-4F3D-9AC7-EA5E11B6DCD4";
name = Regular;
width = 600;
}
);
leftKerningGroup = aacute;
rightKerningGroup = aacute;
unicode = 00E5;
},
{
glyphname = atilde;
lastChange = "2015-12-23 09:57:27 +0000";
layers = (
{
layerId = "A4E552E4-62BE-43BB-A58F-34F0EE3B77B8";
name = Bold;
paths = (
{
closed = 1;
nodes = (
"23 406 OFFCURVE",
"128 528 OFFCURVE",
"278 528 CURVE SMOOTH",
"347 528 OFFCURVE",
"404 505 OFFCURVE",
"446 464 CURVE",
"446 513 LINE",
"623 513 LINE",
"623 0 LINE",
"448 0 LINE",
"448 58 LINE",
"446 58 LINE",
"408 16 OFFCURVE",
"348 -15 OFFCURVE",
"278 -15 CURVE SMOOTH",
"128 -15 OFFCURVE",
"23 106 OFFCURVE",
"23 256 CURVE SMOOTH"
);
},
{
closed = 1;
nodes = (
"211 186 OFFCURVE",
"259 136 OFFCURVE",
"331 136 CURVE SMOOTH",
"400 136 OFFCURVE",
"450 186 OFFCURVE",
"450 256 CURVE SMOOTH",
"450 327 OFFCURVE",
"397 377 OFFCURVE",
"331 377 CURVE SMOOTH",
"264 377 OFFCURVE",
"211 327 OFFCURVE",
"211 256 CURVE SMOOTH"
);
},
{
closed = 1;
nodes = (
"332 642 OFFCURVE",
"397 615 OFFCURVE",
"436 615 CURVE SMOOTH",
"546 615 OFFCURVE",
"572 787 OFFCURVE",
"572 787 CURVE SMOOTH",
"471 787 LINE SMOOTH",
"471 787 OFFCURVE",
"458 741 OFFCURVE",
"426 741 CURVE SMOOTH",
"390 741 OFFCURVE",
"350 760 OFFCURVE",
"350 760 CURVE SMOOTH",
"350 760 OFFCURVE",
"285 787 OFFCURVE",
"246 787 CURVE SMOOTH",
"136 787 OFFCURVE",
"110 615 OFFCURVE",
"110 615 CURVE",
"211 615 LINE",
"211 615 OFFCURVE",
"224 661 OFFCURVE",
"256 661 CURVE SMOOTH",
"292 661 OFFCURVE",
"332 642 OFFCURVE",
"332 642 CURVE SMOOTH"
);
}
);
width = 683;
},
{
layerId = "2A961F25-8D0E-4F3D-9AC7-EA5E11B6DCD4";
name = Regular;
width = 600;
}
);
leftKerningGroup = aacute;
rightKerningGroup = aacute;
unicode = 00E3;
},
{
glyphname = ae;
lastChange = "2015-12-23 09:57:27 +0000";
layers = (
{
layerId = "A4E552E4-62BE-43BB-A58F-34F0EE3B77B8";
name = Bold;
paths = (
{
closed = 1;
nodes = (
"112 357 LINE",
"112 357 OFFCURVE",
"159 387 OFFCURVE",
"251 387 CURVE SMOOTH",
"302 387 OFFCURVE",
"363 355 OFFCURVE",
"363 299 CURVE SMOOTH",
"363 262 LINE",
"340 278 OFFCURVE",
"291 301 OFFCURVE",
"206 301 CURVE SMOOTH",
"90 301 OFFCURVE",
"23 228 OFFCURVE",
"23 136 CURVE SMOOTH",
"23 43 OFFCURVE",
"106 -15 OFFCURVE",
"213 -15 CURVE SMOOTH",
"370 -15 OFFCURVE",
"432 79 OFFCURVE",
"432 79 CURVE",
"484 21 OFFCURVE",
"560 -15 OFFCURVE",
"645 -15 CURVE SMOOTH",
"759 -15 OFFCURVE",
"853 22 OFFCURVE",
"911 119 CURVE",
"783 183 LINE",
"740 137 OFFCURVE",
"715 126 OFFCURVE",
"658 126 CURVE SMOOTH",
"613 126 OFFCURVE",
"547 153 OFFCURVE",
"547 232 CURVE",
"919 232 LINE",
"920 238 OFFCURVE",
"920 249 OFFCURVE",
"920 256 CURVE SMOOTH",
"920 436 OFFCURVE",
"801 528 OFFCURVE",
"645 528 CURVE SMOOTH",
"576 528 OFFCURVE",
"512 504 OFFCURVE",
"463 464 CURVE",
"401 513 OFFCURVE",
"313 528 OFFCURVE",
"251 528 CURVE SMOOTH",
"120 528 OFFCURVE",
"56 478 OFFCURVE",
"56 478 CURVE"
);
},
{
closed = 1;
nodes = (
"199 187 OFFCURVE",
"231 207 OFFCURVE",
"278 207 CURVE SMOOTH",
"325 207 OFFCURVE",
"363 181 OFFCURVE",
"363 151 CURVE SMOOTH",
"363 121 OFFCURVE",
"325 91 OFFCURVE",
"278 91 CURVE SMOOTH",
"231 91 OFFCURVE",
"199 115 OFFCURVE",
"199 151 CURVE SMOOTH"
);
},
{
closed = 1;
nodes = (
"552 330 LINE",
"555 377 OFFCURVE",
"589 413 OFFCURVE",
"650 413 CURVE SMOOTH",
"702 413 OFFCURVE",
"739 384 OFFCURVE",
"747 330 CURVE"
);
}
);
width = 943;
},
{
layerId = "2A961F25-8D0E-4F3D-9AC7-EA5E11B6DCD4";
name = Regular;
width = 600;
}
);
rightKerningGroup = d;
unicode = 00E6;
},
{
glyphname = b;
lastChange = "2016-02-10 23:52:19 +0000";
layers = (
{
layerId = "A4E552E4-62BE-43BB-A58F-34F0EE3B77B8";
name = Bold;
paths = (
{
closed = 1;
nodes = (
"660 406 OFFCURVE",
"555 528 OFFCURVE",
"405 528 CURVE SMOOTH",
"336 528 OFFCURVE",
"279 505 OFFCURVE",
"237 464 CURVE",
"237 860 LINE",
"60 860 LINE",
"60 0 LINE",
"235 0 LINE",
"235 58 LINE",
"237 58 LINE",
"275 16 OFFCURVE",
"335 -15 OFFCURVE",
"405 -15 CURVE SMOOTH",
"555 -15 OFFCURVE",
"660 106 OFFCURVE",
"660 256 CURVE SMOOTH"
);
},
{
closed = 1;
nodes = (
"472 186 OFFCURVE",
"424 136 OFFCURVE",
"352 136 CURVE SMOOTH",
"283 136 OFFCURVE",
"233 186 OFFCURVE",
"233 256 CURVE SMOOTH",
"233 327 OFFCURVE",
"286 377 OFFCURVE",
"352 377 CURVE SMOOTH",
"419 377 OFFCURVE",
"472 327 OFFCURVE",
"472 256 CURVE SMOOTH"
);
}
);
width = 683;
},
{
layerId = "2A961F25-8D0E-4F3D-9AC7-EA5E11B6DCD4";
name = Regular;
paths = (
{
closed = 1;
nodes = (
"598 406 OFFCURVE",
"491 528 OFFCURVE",
"343 528 CURVE SMOOTH",
"279 528 OFFCURVE",
"223 506 OFFCURVE",
"175 456 CURVE",
"175 860 LINE",
"88 860 LINE",
"88 0 LINE",
"173 0 LINE",
"173 63 LINE",
"174 63 LINE",
"216 13 OFFCURVE",
"279 -15 OFFCURVE",
"343 -15 CURVE SMOOTH",
"491 -15 OFFCURVE",
"598 106 OFFCURVE",
"598 256 CURVE SMOOTH"
);
},
{
closed = 1;
nodes = (
"507 137 OFFCURVE",
"440 65 OFFCURVE",
"332 65 CURVE SMOOTH",
"241 65 OFFCURVE",
"171 138 OFFCURVE",
"171 256 CURVE SMOOTH",
"171 374 OFFCURVE",
"244 448 OFFCURVE",
"332 448 CURVE SMOOTH",
"440 448 OFFCURVE",
"507 374 OFFCURVE",
"507 256 CURVE SMOOTH"
);
}
);
width = 658;
}
);
leftMetricsKey = "=n";
rightKerningGroup = b;
rightMetricsKey = "=o";
unicode = 0062;
},
{
glyphname = c;
lastChange = "2016-02-10 23:52:19 +0000";
layers = (
{
layerId = "A4E552E4-62BE-43BB-A58F-34F0EE3B77B8";
name = Bold;
paths = (
{
closed = 1;
nodes = (
"386 383 OFFCURVE",
"419 359 OFFCURVE",
"419 359 CURVE",
"479 480 LINE",
"479 480 OFFCURVE",
"421 528 OFFCURVE",
"307 528 CURVE SMOOTH",
"158 528 OFFCURVE",
"23 406 OFFCURVE",
"23 255 CURVE SMOOTH",
"23 105 OFFCURVE",
"159 -15 OFFCURVE",
"307 -15 CURVE SMOOTH",
"421 -15 OFFCURVE",
"479 31 OFFCURVE",
"479 31 CURVE",
"419 154 LINE",
"419 154 OFFCURVE",
"386 130 OFFCURVE",
"333 130 CURVE SMOOTH",
"266 130 OFFCURVE",
"211 186 OFFCURVE",
"211 257 CURVE SMOOTH",
"211 327 OFFCURVE",
"266 383 OFFCURVE",
"333 383 CURVE SMOOTH"
);
}
);
width = 495;
},
{
layerId = "2A961F25-8D0E-4F3D-9AC7-EA5E11B6DCD4";
name = Regular;
paths = (
{
closed = 1;
nodes = (
"386 448 OFFCURVE",
"426 434 OFFCURVE",
"453 410 CURVE",
"487 480 LINE",
"445 511 OFFCURVE",
"390 528 OFFCURVE",
"333 528 CURVE SMOOTH",
"186 528 OFFCURVE",
"60 416 OFFCURVE",
"60 257 CURVE SMOOTH",
"60 98 OFFCURVE",
"180 -15 OFFCURVE",
"330 -15 CURVE SMOOTH",
"390 -15 OFFCURVE",
"445 2 OFFCURVE",
"487 31 CURVE",
"453 97 LINE",
"421 77 OFFCURVE",
"383 65 OFFCURVE",
"333 65 CURVE SMOOTH",
"229 65 OFFCURVE",
"151 146 OFFCURVE",
"151 257 CURVE SMOOTH",
"151 369 OFFCURVE",
"234 448 OFFCURVE",
"333 448 CURVE SMOOTH"
);
}
);
width = 540;
}
);
leftKerningGroup = c;
leftMetricsKey = "=o";
rightKerningGroup = c;
rightMetricsKey = "=o-7";
unicode = 0063;
},
{
glyphname = cacute;
lastChange = "2015-12-23 09:57:27 +0000";
layers = (
{
layerId = "A4E552E4-62BE-43BB-A58F-34F0EE3B77B8";
name = Bold;
paths = (
{
closed = 1;
nodes = (
"386 383 OFFCURVE",
"419 359 OFFCURVE",
"419 359 CURVE",
"479 480 LINE",
"479 480 OFFCURVE",
"421 528 OFFCURVE",
"307 528 CURVE SMOOTH",
"158 528 OFFCURVE",
"23 406 OFFCURVE",
"23 255 CURVE SMOOTH",
"23 105 OFFCURVE",
"159 -15 OFFCURVE",
"307 -15 CURVE SMOOTH",
"421 -15 OFFCURVE",
"479 31 OFFCURVE",
"479 31 CURVE",
"419 154 LINE",
"419 154 OFFCURVE",
"386 130 OFFCURVE",
"333 130 CURVE SMOOTH",
"266 130 OFFCURVE",
"211 186 OFFCURVE",
"211 257 CURVE SMOOTH",
"211 327 OFFCURVE",
"266 383 OFFCURVE",
"333 383 CURVE SMOOTH"
);
},
{
closed = 1;
nodes = (
"485 725 LINE",
"394 840 LINE",
"191 664 LINE",
"247 587 LINE"
);
}
);
width = 491;
},
{
layerId = "2A961F25-8D0E-4F3D-9AC7-EA5E11B6DCD4";
name = Regular;
width = 600;
}
);
leftKerningGroup = c;
rightKerningGroup = c;
unicode = 0107;
},
{
glyphname = ccaron;
lastChange = "2015-12-23 09:57:27 +0000";
layers = (
{
layerId = "A4E552E4-62BE-43BB-A58F-34F0EE3B77B8";
name = Bold;
paths = (
{
closed = 1;
nodes = (
"386 383 OFFCURVE",
"419 359 OFFCURVE",
"419 359 CURVE",
"479 480 LINE",
"479 480 OFFCURVE",
"421 528 OFFCURVE",
"307 528 CURVE SMOOTH",
"158 528 OFFCURVE",
"23 406 OFFCURVE",
"23 255 CURVE SMOOTH",
"23 105 OFFCURVE",
"159 -15 OFFCURVE",
"307 -15 CURVE SMOOTH",
"421 -15 OFFCURVE",
"479 31 OFFCURVE",
"479 31 CURVE",
"419 154 LINE",
"419 154 OFFCURVE",
"386 130 OFFCURVE",
"333 130 CURVE SMOOTH",
"266 130 OFFCURVE",
"211 186 OFFCURVE",
"211 257 CURVE SMOOTH",
"211 327 OFFCURVE",
"266 383 OFFCURVE",
"333 383 CURVE SMOOTH"
);
},
{
closed = 1;
nodes = (
"257 587 LINE",
"478 749 LINE",
"410 840 LINE",
"257 728 LINE",
"104 840 LINE",
"36 749 LINE"
);
}
);
width = 491;
},
{
layerId = "2A961F25-8D0E-4F3D-9AC7-EA5E11B6DCD4";
name = Regular;
width = 600;
}
);
leftKerningGroup = c;
rightKerningGroup = c;
unicode = 010D;
},
{
glyphname = ccedilla;
lastChange = "2015-12-23 09:57:27 +0000";
layers = (
{
layerId = "A4E552E4-62BE-43BB-A58F-34F0EE3B77B8";
name = Bold;
paths = (
{
closed = 1;
nodes = (
"177 -121 LINE",
"187 -129 LINE",
"187 -129 OFFCURVE",
"202 -120 OFFCURVE",
"238 -120 CURVE SMOOTH",
"266 -120 OFFCURVE",
"300 -134 OFFCURVE",
"300 -165 CURVE SMOOTH",
"300 -184 OFFCURVE",
"287 -204 OFFCURVE",
"250 -204 CURVE SMOOTH",
"204 -204 OFFCURVE",
"168 -157 OFFCURVE",
"168 -157 CURVE",
"96 -211 LINE",
"96 -211 OFFCURVE",
"160 -294 OFFCURVE",
"250 -294 CURVE SMOOTH",
"361 -294 OFFCURVE",
"402 -228 OFFCURVE",
"402 -165 CURVE SMOOTH",
"402 -96 OFFCURVE",
"328 -63 OFFCURVE",
"273 -63 CURVE",
"289 -14 LINE",
"295 -15 OFFCURVE",
"301 -15 OFFCURVE",
"307 -15 CURVE SMOOTH",
"421 -15 OFFCURVE",
"479 31 OFFCURVE",
"479 31 CURVE",
"419 154 LINE",
"419 154 OFFCURVE",
"386 130 OFFCURVE",
"333 130 CURVE SMOOTH",
"266 130 OFFCURVE",
"211 186 OFFCURVE",
"211 257 CURVE SMOOTH",
"211 327 OFFCURVE",
"266 383 OFFCURVE",
"333 383 CURVE SMOOTH",
"386 383 OFFCURVE",
"419 359 OFFCURVE",
"419 359 CURVE",
"479 480 LINE",
"479 480 OFFCURVE",
"421 528 OFFCURVE",
"307 528 CURVE SMOOTH",
"158 528 OFFCURVE",
"23 406 OFFCURVE",
"23 255 CURVE SMOOTH",
"23 136 OFFCURVE",
"108 36 OFFCURVE",
"216 0 CURVE"
);
}
);
width = 491;
},
{
layerId = "2A961F25-8D0E-4F3D-9AC7-EA5E11B6DCD4";
name = Regular;
width = 600;
}
);
leftKerningGroup = c;
rightKerningGroup = c;
unicode = 00E7;
},
{
glyphname = d;
lastChange = "2016-02-10 22:32:05 +0000";
layers = (
{
layerId = "A4E552E4-62BE-43BB-A58F-34F0EE3B77B8";
name = Bold;
paths = (
{
closed = 1;
nodes = (
"23 106 OFFCURVE",
"128 -15 OFFCURVE",
"278 -15 CURVE SMOOTH",
"348 -15 OFFCURVE",
"408 16 OFFCURVE",
"446 58 CURVE",
"448 58 LINE",
"448 0 LINE",
"623 0 LINE",
"623 860 LINE",
"446 860 LINE",
"446 464 LINE",
"404 505 OFFCURVE",
"347 528 OFFCURVE",
"278 528 CURVE SMOOTH",
"128 528 OFFCURVE",
"23 406 OFFCURVE",
"23 256 CURVE SMOOTH"
);
},
{
closed = 1;
nodes = (
"211 327 OFFCURVE",
"264 377 OFFCURVE",
"331 377 CURVE SMOOTH",
"397 377 OFFCURVE",
"450 327 OFFCURVE",
"450 256 CURVE SMOOTH",
"450 186 OFFCURVE",
"400 136 OFFCURVE",
"331 136 CURVE SMOOTH",
"259 136 OFFCURVE",
"211 186 OFFCURVE",
"211 256 CURVE SMOOTH"
);
}
);
width = 683;
},
{
layerId = "2A961F25-8D0E-4F3D-9AC7-EA5E11B6DCD4";
name = Regular;
paths = (
{
closed = 1;
nodes = (
"60 106 OFFCURVE",
"167 -15 OFFCURVE",
"315 -15 CURVE SMOOTH",
"378 -15 OFFCURVE",
"442 14 OFFCURVE",
"484 63 CURVE",
"485 63 LINE",
"485 0 LINE",
"570 0 LINE",
"570 860 LINE",
"483 860 LINE",
"483 456 LINE SMOOTH",
"435 506 OFFCURVE",
"379 528 OFFCURVE",
"315 528 CURVE SMOOTH",
"167 528 OFFCURVE",
"60 406 OFFCURVE",
"60 256 CURVE SMOOTH"
);
},
{
closed = 1;
nodes = (
"151 374 OFFCURVE",
"218 448 OFFCURVE",
"326 448 CURVE SMOOTH",
"414 448 OFFCURVE",
"487 374 OFFCURVE",
"487 256 CURVE SMOOTH",
"487 138 OFFCURVE",
"417 65 OFFCURVE",
"326 65 CURVE SMOOTH",
"218 65 OFFCURVE",
"151 138 OFFCURVE",
"151 256 CURVE SMOOTH"
);
}
);
width = 658;
}
);
leftKerningGroup = d;
leftMetricsKey = "=o";
rightKerningGroup = d;
rightMetricsKey = "=|n";
unicode = 0064;
},
{
glyphname = eth;
lastChange = "2015-12-23 09:57:27 +0000";
layers = (
{
layerId = "A4E552E4-62BE-43BB-A58F-34F0EE3B77B8";
name = Bold;
paths = (
{
closed = 1;
nodes = (
"41 98 OFFCURVE",
"165 -15 OFFCURVE",
"350 -15 CURVE SMOOTH",
"527 -15 OFFCURVE",
"656 98 OFFCURVE",
"656 256 CURVE SMOOTH",
"656 498 OFFCURVE",
"524 651 OFFCURVE",
"390 745 CURVE",
"442 797 LINE",
"366 875 LINE",
"293 803 LINE",
"190 856 OFFCURVE",
"105 875 OFFCURVE",
"105 875 CURVE",
"63 725 LINE",
"63 725 OFFCURVE",
"111 714 OFFCURVE",
"174 684 CURVE",
"112 622 LINE",
"189 545 LINE",
"272 627 LINE",
"314 597 OFFCURVE",
"356 559 OFFCURVE",
"389 512 CURVE",
"360 528 OFFCURVE",
"313 528 OFFCURVE",
"299 528 CURVE SMOOTH",
"189 528 OFFCURVE",
"41 424 OFFCURVE",
"41 256 CURVE SMOOTH"
);
},
{
closed = 1;
nodes = (
"229 327 OFFCURVE",
"282 377 OFFCURVE",
"349 377 CURVE SMOOTH",
"413 377 OFFCURVE",
"465 329 OFFCURVE",
"468 261 CURVE",
"468 256 LINE SMOOTH",
"468 186 OFFCURVE",
"418 136 OFFCURVE",
"349 136 CURVE SMOOTH",
"277 136 OFFCURVE",
"229 186 OFFCURVE",
"229 256 CURVE SMOOTH"
);
}
);
width = 684;
},
{
layerId = "2A961F25-8D0E-4F3D-9AC7-EA5E11B6DCD4";
name = Regular;
width = 600;
}
);
rightKerningGroup = d;
unicode = 00F0;
},
{
glyphname = dcaron;
lastChange = "2015-12-23 09:57:27 +0000";
layers = (
{
layerId = "A4E552E4-62BE-43BB-A58F-34F0EE3B77B8";
name = Bold;
paths = (
{
closed = 1;
nodes = (
"23 106 OFFCURVE",
"128 -15 OFFCURVE",
"278 -15 CURVE SMOOTH",
"348 -15 OFFCURVE",
"408 16 OFFCURVE",
"446 58 CURVE",
"448 58 LINE",
"448 0 LINE",
"623 0 LINE",
"623 860 LINE",
"446 860 LINE",
"446 464 LINE",
"404 505 OFFCURVE",
"347 528 OFFCURVE",
"278 528 CURVE SMOOTH",
"128 528 OFFCURVE",
"23 406 OFFCURVE",
"23 256 CURVE SMOOTH"
);
},
{
closed = 1;
nodes = (
"211 327 OFFCURVE",
"264 377 OFFCURVE",
"331 377 CURVE SMOOTH",
"397 377 OFFCURVE",
"450 327 OFFCURVE",
"450 256 CURVE SMOOTH",
"450 186 OFFCURVE",
"400 136 OFFCURVE",
"331 136 CURVE SMOOTH",
"259 136 OFFCURVE",
"211 186 OFFCURVE",
"211 256 CURVE SMOOTH"
);
},
{
closed = 1;
nodes = (
"708 824 OFFCURVE",
"668 784 OFFCURVE",
"668 734 CURVE SMOOTH",
"668 694 OFFCURVE",
"697 663 OFFCURVE",
"735 654 CURVE",
"723 589 OFFCURVE",
"676 544 OFFCURVE",
"676 544 CURVE",
"716 513 LINE",
"779 565 OFFCURVE",
"846 641 OFFCURVE",
"846 734 CURVE SMOOTH",
"846 784 OFFCURVE",
"806 824 OFFCURVE",
"756 824 CURVE SMOOTH"
);
}
);
width = 683;
},
{
layerId = "2A961F25-8D0E-4F3D-9AC7-EA5E11B6DCD4";
name = Regular;
width = 600;
}
);
rightKerningGroup = d;
unicode = 010F;
},
{
glyphname = dcroat;
lastChange = "2015-12-23 09:57:27 +0000";
layers = (
{
layerId = "A4E552E4-62BE-43BB-A58F-34F0EE3B77B8";
name = Bold;
paths = (
{
closed = 1;
nodes = (
"446 628 LINE",
"446 464 LINE",
"404 505 OFFCURVE",
"347 528 OFFCURVE",
"278 528 CURVE SMOOTH",
"128 528 OFFCURVE",
"23 406 OFFCURVE",
"23 256 CURVE SMOOTH",
"23 106 OFFCURVE",
"128 -15 OFFCURVE",
"278 -15 CURVE SMOOTH",
"348 -15 OFFCURVE",
"408 16 OFFCURVE",
"446 58 CURVE",
"448 58 LINE",
"448 0 LINE",
"623 0 LINE",
"623 628 LINE",
"683 628 LINE",
"683 742 LINE",
"623 742 LINE",
"623 860 LINE",
"446 860 LINE",
"446 742 LINE",
"321 742 LINE",
"321 628 LINE"
);
},
{
closed = 1;
nodes = (
"211 327 OFFCURVE",
"264 377 OFFCURVE",
"331 377 CURVE SMOOTH",
"397 377 OFFCURVE",
"450 327 OFFCURVE",
"450 256 CURVE SMOOTH",
"450 186 OFFCURVE",
"400 136 OFFCURVE",
"331 136 CURVE SMOOTH",
"259 136 OFFCURVE",
"211 186 OFFCURVE",
"211 256 CURVE SMOOTH"
);
}
);
width = 683;
},
{
layerId = "2A961F25-8D0E-4F3D-9AC7-EA5E11B6DCD4";
name = Regular;
width = 600;
}
);
rightKerningGroup = d;
unicode = 0111;
},
{
glyphname = e;
lastChange = "2016-02-10 23:52:19 +0000";
layers = (
{
layerId = "A4E552E4-62BE-43BB-A58F-34F0EE3B77B8";
name = Bold;
paths = (
{
closed = 1;
nodes = (
"579 232 LINE",
"580 238 OFFCURVE",
"580 249 OFFCURVE",
"580 256 CURVE SMOOTH",
"580 436 OFFCURVE",
"461 528 OFFCURVE",
"305 528 CURVE SMOOTH",
"150 528 OFFCURVE",
"23 406 OFFCURVE",
"23 256 CURVE SMOOTH",
"23 107 OFFCURVE",
"150 -15 OFFCURVE",
"305 -15 CURVE SMOOTH",
"419 -15 OFFCURVE",
"513 22 OFFCURVE",
"571 119 CURVE",
"443 183 LINE",
"400 137 OFFCURVE",
"375 126 OFFCURVE",
"318 126 CURVE SMOOTH",
"273 126 OFFCURVE",
"207 153 OFFCURVE",
"207 232 CURVE"
);
},
{
closed = 1;
nodes = (
"212 330 LINE",
"215 377 OFFCURVE",
"249 413 OFFCURVE",
"310 413 CURVE SMOOTH",
"362 413 OFFCURVE",
"399 384 OFFCURVE",
"407 330 CURVE"
);
}
);
width = 598;
},
{
layerId = "2A961F25-8D0E-4F3D-9AC7-EA5E11B6DCD4";
name = Regular;
paths = (
{
closed = 1;
nodes = (
"581 241 LINE",
"582 245 OFFCURVE",
"582 251 OFFCURVE",
"582 257 CURVE SMOOTH",
"582 416 OFFCURVE",
"464 528 OFFCURVE",
"328 528 CURVE SMOOTH",
"186 528 OFFCURVE",
"60 416 OFFCURVE",
"60 257 CURVE SMOOTH",
"60 98 OFFCURVE",
"181 -15 OFFCURVE",
"319 -15 CURVE SMOOTH",
"411 -15 OFFCURVE",
"489 15 OFFCURVE",
"550 100 CURVE",
"481 136 LINE",
"437 79 OFFCURVE",
"390 65 OFFCURVE",
"334 65 CURVE SMOOTH",
"240.107 65 OFFCURVE",
"159.89 128.494 OFFCURVE",
"146.448 241 CURVE"
);
},
{
closed = 1;
nodes = (
"155 319 LINE",
"176 402 OFFCURVE",
"254.583 448 OFFCURVE",
"328 448 CURVE SMOOTH",
"391 448 OFFCURVE",
"466 404 OFFCURVE",
"486 319 CURVE"
);
}
);
width = 637;
}
);
leftKerningGroup = c;
leftMetricsKey = "=o";
rightKerningGroup = c;
rightMetricsKey = "=o-5";
unicode = 0065;
},
{
glyphname = eacute;
lastChange = "2015-12-23 09:57:27 +0000";
layers = (
{
layerId = "A4E552E4-62BE-43BB-A58F-34F0EE3B77B8";
name = Bold;
paths = (
{
closed = 1;
nodes = (
"579 232 LINE",
"580 238 OFFCURVE",
"580 249 OFFCURVE",
"580 256 CURVE SMOOTH",
"580 436 OFFCURVE",
"461 528 OFFCURVE",
"305 528 CURVE SMOOTH",
"150 528 OFFCURVE",
"23 406 OFFCURVE",
"23 256 CURVE SMOOTH",
"23 107 OFFCURVE",
"150 -15 OFFCURVE",
"305 -15 CURVE SMOOTH",
"419 -15 OFFCURVE",
"513 22 OFFCURVE",
"571 119 CURVE",
"443 183 LINE",
"400 137 OFFCURVE",
"375 126 OFFCURVE",
"318 126 CURVE SMOOTH",
"273 126 OFFCURVE",
"207 153 OFFCURVE",
"207 232 CURVE"
);
},
{
closed = 1;
nodes = (
"212 330 LINE",
"215 377 OFFCURVE",
"249 413 OFFCURVE",
"310 413 CURVE SMOOTH",
"362 413 OFFCURVE",
"399 384 OFFCURVE",
"407 330 CURVE"
);
},
{
closed = 1;
nodes = (
"537 725 LINE",
"446 840 LINE",
"243 664 LINE",
"299 587 LINE"
);
}
);
width = 603;
},
{
layerId = "2A961F25-8D0E-4F3D-9AC7-EA5E11B6DCD4";
name = Regular;
width = 600;
}
);
leftKerningGroup = c;
rightKerningGroup = c;
unicode = 00E9;
},
{
glyphname = ecaron;
lastChange = "2015-12-23 09:57:27 +0000";
layers = (
{
layerId = "A4E552E4-62BE-43BB-A58F-34F0EE3B77B8";
name = Bold;
paths = (
{
closed = 1;
nodes = (
"579 232 LINE",
"580 238 OFFCURVE",
"580 249 OFFCURVE",
"580 256 CURVE SMOOTH",
"580 436 OFFCURVE",
"461 528 OFFCURVE",
"305 528 CURVE SMOOTH",
"150 528 OFFCURVE",
"23 406 OFFCURVE",
"23 256 CURVE SMOOTH",
"23 107 OFFCURVE",
"150 -15 OFFCURVE",
"305 -15 CURVE SMOOTH",
"419 -15 OFFCURVE",
"513 22 OFFCURVE",
"571 119 CURVE",
"443 183 LINE",
"400 137 OFFCURVE",
"375 126 OFFCURVE",
"318 126 CURVE SMOOTH",
"273 126 OFFCURVE",
"207 153 OFFCURVE",
"207 232 CURVE"
);
},
{
closed = 1;
nodes = (
"212 330 LINE",
"215 377 OFFCURVE",
"249 413 OFFCURVE",
"310 413 CURVE SMOOTH",
"362 413 OFFCURVE",
"399 384 OFFCURVE",
"407 330 CURVE"
);
},
{
closed = 1;
nodes = (
"301 587 LINE",
"522 749 LINE",
"454 840 LINE",
"301 728 LINE",
"148 840 LINE",
"80 749 LINE"
);
}
);
width = 603;
},
{
layerId = "2A961F25-8D0E-4F3D-9AC7-EA5E11B6DCD4";
name = Regular;
width = 600;
}
);
leftKerningGroup = c;
rightKerningGroup = c;
unicode = 011B;
},
{
glyphname = ecircumflex;
lastChange = "2015-12-23 09:57:27 +0000";
layers = (
{
layerId = "A4E552E4-62BE-43BB-A58F-34F0EE3B77B8";
name = Bold;
paths = (
{
closed = 1;
nodes = (
"579 232 LINE",
"580 238 OFFCURVE",
"580 249 OFFCURVE",
"580 256 CURVE SMOOTH",
"580 436 OFFCURVE",
"461 528 OFFCURVE",
"305 528 CURVE SMOOTH",
"150 528 OFFCURVE",
"23 406 OFFCURVE",
"23 256 CURVE SMOOTH",
"23 107 OFFCURVE",
"150 -15 OFFCURVE",
"305 -15 CURVE SMOOTH",
"419 -15 OFFCURVE",
"513 22 OFFCURVE",
"571 119 CURVE",
"443 183 LINE",
"400 137 OFFCURVE",
"375 126 OFFCURVE",
"318 126 CURVE SMOOTH",
"273 126 OFFCURVE",
"207 153 OFFCURVE",
"207 232 CURVE"
);
},
{
closed = 1;
nodes = (
"212 330 LINE",
"215 377 OFFCURVE",
"249 413 OFFCURVE",
"310 413 CURVE SMOOTH",
"362 413 OFFCURVE",
"399 384 OFFCURVE",
"407 330 CURVE"
);
},
{
closed = 1;
nodes = (
"301 699 LINE",
"454 587 LINE",
"522 678 LINE",
"301 840 LINE",
"80 678 LINE",
"148 587 LINE"
);
}
);
width = 603;
},
{
layerId = "2A961F25-8D0E-4F3D-9AC7-EA5E11B6DCD4";
name = Regular;
width = 600;
}
);
leftKerningGroup = c;
rightKerningGroup = c;
unicode = 00EA;
},
{
glyphname = edieresis;
lastChange = "2015-12-23 09:57:27 +0000";
layers = (
{
layerId = "A4E552E4-62BE-43BB-A58F-34F0EE3B77B8";
name = Bold;
paths = (
{
closed = 1;
nodes = (
"579 232 LINE",
"580 238 OFFCURVE",
"580 249 OFFCURVE",
"580 256 CURVE SMOOTH",
"580 436 OFFCURVE",
"461 528 OFFCURVE",
"305 528 CURVE SMOOTH",
"150 528 OFFCURVE",
"23 406 OFFCURVE",
"23 256 CURVE SMOOTH",
"23 107 OFFCURVE",
"150 -15 OFFCURVE",
"305 -15 CURVE SMOOTH",
"419 -15 OFFCURVE",
"513 22 OFFCURVE",
"571 119 CURVE",
"443 183 LINE",
"400 137 OFFCURVE",
"375 126 OFFCURVE",
"318 126 CURVE SMOOTH",
"273 126 OFFCURVE",
"207 153 OFFCURVE",
"207 232 CURVE"
);
},
{
closed = 1;
nodes = (
"212 330 LINE",
"215 377 OFFCURVE",
"249 413 OFFCURVE",
"310 413 CURVE SMOOTH",
"362 413 OFFCURVE",
"399 384 OFFCURVE",
"407 330 CURVE"
);
},
{
closed = 1;
nodes = (
"132 791 OFFCURVE",
"91 750 OFFCURVE",
"91 699 CURVE SMOOTH",
"91 648 OFFCURVE",
"132 607 OFFCURVE",
"183 607 CURVE SMOOTH",
"234 607 OFFCURVE",
"275 648 OFFCURVE",
"275 699 CURVE SMOOTH",
"275 750 OFFCURVE",
"234 791 OFFCURVE",
"183 791 CURVE SMOOTH"
);
},
{
closed = 1;
nodes = (
"369 791 OFFCURVE",
"328 750 OFFCURVE",
"328 699 CURVE SMOOTH",
"328 648 OFFCURVE",
"369 607 OFFCURVE",
"420 607 CURVE SMOOTH",
"471 607 OFFCURVE",
"512 648 OFFCURVE",
"512 699 CURVE SMOOTH",
"512 750 OFFCURVE",
"471 791 OFFCURVE",
"420 791 CURVE SMOOTH"
);
}
);
width = 603;
},
{
layerId = "2A961F25-8D0E-4F3D-9AC7-EA5E11B6DCD4";
name = Regular;
width = 600;
}
);
leftKerningGroup = c;
rightKerningGroup = c;
unicode = 00EB;
},
{
glyphname = edotaccent;
lastChange = "2015-12-23 09:57:27 +0000";
layers = (
{
layerId = "A4E552E4-62BE-43BB-A58F-34F0EE3B77B8";
name = Bold;
paths = (
{
closed = 1;
nodes = (
"579 232 LINE",
"580 238 OFFCURVE",
"580 249 OFFCURVE",
"580 256 CURVE SMOOTH",
"580 436 OFFCURVE",
"461 528 OFFCURVE",
"305 528 CURVE SMOOTH",
"150 528 OFFCURVE",
"23 406 OFFCURVE",
"23 256 CURVE SMOOTH",
"23 107 OFFCURVE",
"150 -15 OFFCURVE",
"305 -15 CURVE SMOOTH",
"419 -15 OFFCURVE",
"513 22 OFFCURVE",
"571 119 CURVE",
"443 183 LINE",
"400 137 OFFCURVE",
"375 126 OFFCURVE",
"318 126 CURVE SMOOTH",
"273 126 OFFCURVE",
"207 153 OFFCURVE",
"207 232 CURVE"
);
},
{
closed = 1;
nodes = (
"212 330 LINE",
"215 377 OFFCURVE",
"249 413 OFFCURVE",
"310 413 CURVE SMOOTH",
"362 413 OFFCURVE",
"399 384 OFFCURVE",
"407 330 CURVE"
);
},
{
closed = 1;
nodes = (
"250 791 OFFCURVE",
"209 750 OFFCURVE",
"209 699 CURVE SMOOTH",
"209 648 OFFCURVE",
"250 607 OFFCURVE",
"301 607 CURVE SMOOTH",
"352 607 OFFCURVE",
"393 648 OFFCURVE",
"393 699 CURVE SMOOTH",
"393 750 OFFCURVE",
"352 791 OFFCURVE",
"301 791 CURVE SMOOTH"
);
}
);
width = 603;
},
{
layerId = "2A961F25-8D0E-4F3D-9AC7-EA5E11B6DCD4";
name = Regular;
width = 600;
}
);
leftKerningGroup = c;
rightKerningGroup = c;
unicode = 0117;
},
{
glyphname = egrave;
lastChange = "2015-12-23 09:57:27 +0000";
layers = (
{
layerId = "A4E552E4-62BE-43BB-A58F-34F0EE3B77B8";
name = Bold;
paths = (
{
closed = 1;
nodes = (
"579 232 LINE",
"580 238 OFFCURVE",
"580 249 OFFCURVE",
"580 256 CURVE SMOOTH",
"580 436 OFFCURVE",
"461 528 OFFCURVE",
"305 528 CURVE SMOOTH",
"150 528 OFFCURVE",
"23 406 OFFCURVE",
"23 256 CURVE SMOOTH",
"23 107 OFFCURVE",
"150 -15 OFFCURVE",
"305 -15 CURVE SMOOTH",
"419 -15 OFFCURVE",
"513 22 OFFCURVE",
"571 119 CURVE",
"443 183 LINE",
"400 137 OFFCURVE",
"375 126 OFFCURVE",
"318 126 CURVE SMOOTH",
"273 126 OFFCURVE",
"207 153 OFFCURVE",
"207 232 CURVE"
);
},
{
closed = 1;
nodes = (
"212 330 LINE",
"215 377 OFFCURVE",
"249 413 OFFCURVE",
"310 413 CURVE SMOOTH",
"362 413 OFFCURVE",
"399 384 OFFCURVE",
"407 330 CURVE"
);
},
{
closed = 1;
nodes = (
"303 587 LINE",
"359 664 LINE",
"156 840 LINE",
"65 725 LINE"
);
}
);
width = 603;
},
{
layerId = "2A961F25-8D0E-4F3D-9AC7-EA5E11B6DCD4";
name = Regular;
width = 600;
}
);
leftKerningGroup = c;
rightKerningGroup = c;
unicode = 00E8;
},
{
glyphname = emacron;
lastChange = "2015-12-23 09:57:27 +0000";
layers = (
{
layerId = "A4E552E4-62BE-43BB-A58F-34F0EE3B77B8";
name = Bold;
paths = (
{
closed = 1;
nodes = (
"579 232 LINE",
"580 238 OFFCURVE",
"580 249 OFFCURVE",
"580 256 CURVE SMOOTH",
"580 436 OFFCURVE",
"461 528 OFFCURVE",
"305 528 CURVE SMOOTH",
"150 528 OFFCURVE",
"23 406 OFFCURVE",
"23 256 CURVE SMOOTH",
"23 107 OFFCURVE",
"150 -15 OFFCURVE",
"305 -15 CURVE SMOOTH",
"419 -15 OFFCURVE",
"513 22 OFFCURVE",
"571 119 CURVE",
"443 183 LINE",
"400 137 OFFCURVE",
"375 126 OFFCURVE",
"318 126 CURVE SMOOTH",
"273 126 OFFCURVE",
"207 153 OFFCURVE",
"207 232 CURVE"
);
},
{
closed = 1;
nodes = (
"212 330 LINE",
"215 377 OFFCURVE",
"249 413 OFFCURVE",
"310 413 CURVE SMOOTH",
"362 413 OFFCURVE",
"399 384 OFFCURVE",
"407 330 CURVE"
);
},
{
closed = 1;
nodes = (
"505 634 LINE",
"505 754 LINE",
"97 754 LINE",
"97 634 LINE"
);
}
);
width = 603;
},
{
layerId = "2A961F25-8D0E-4F3D-9AC7-EA5E11B6DCD4";
name = Regular;
width = 600;
}
);
leftKerningGroup = c;
rightKerningGroup = c;
unicode = 0113;
},
{
glyphname = eogonek;
lastChange = "2015-12-23 09:57:27 +0000";
layers = (
{
layerId = "A4E552E4-62BE-43BB-A58F-34F0EE3B77B8";
name = Bold;
paths = (
{
closed = 1;
nodes = (
"579 232 LINE",
"580 238 OFFCURVE",
"580 249 OFFCURVE",
"580 256 CURVE SMOOTH",
"580 436 OFFCURVE",
"461 528 OFFCURVE",
"305 528 CURVE SMOOTH",
"150 528 OFFCURVE",
"23 406 OFFCURVE",
"23 256 CURVE SMOOTH",
"23 107 OFFCURVE",
"150 -15 OFFCURVE",
"305 -15 CURVE SMOOTH",
"311 -15 OFFCURVE",
"318 -14 OFFCURVE",
"324 -14 CURVE",
"294 -52 OFFCURVE",
"256 -110 OFFCURVE",
"256 -158 CURVE SMOOTH",
"256 -245 OFFCURVE",
"330 -275 OFFCURVE",
"382 -275 CURVE SMOOTH",
"474 -275 OFFCURVE",
"519 -203 OFFCURVE",
"519 -203 CURVE",
"447 -149 LINE",
"447 -149 OFFCURVE",
"427 -179 OFFCURVE",
"396 -179 CURVE SMOOTH",
"379 -179 OFFCURVE",
"359 -165 OFFCURVE",
"359 -140 CURVE SMOOTH",
"359 -70 OFFCURVE",
"418 0 OFFCURVE",
"418 0 CURVE",
"481 19 OFFCURVE",
"533 56 OFFCURVE",
"571 119 CURVE",
"443 183 LINE",
"400 137 OFFCURVE",
"375 126 OFFCURVE",
"318 126 CURVE SMOOTH",
"273 126 OFFCURVE",
"207 153 OFFCURVE",
"207 232 CURVE"
);
},
{
closed = 1;
nodes = (
"212 330 LINE",
"215 377 OFFCURVE",
"249 413 OFFCURVE",
"310 413 CURVE SMOOTH",
"362 413 OFFCURVE",
"399 384 OFFCURVE",
"407 330 CURVE"
);
}
);
width = 603;
},
{
layerId = "2A961F25-8D0E-4F3D-9AC7-EA5E11B6DCD4";
name = Regular;
width = 600;
}
);
leftKerningGroup = c;
rightKerningGroup = c;
unicode = 0119;
},
{
glyphname = f;
lastChange = "2015-12-28 14:08:54 +0000";
layers = (
{
layerId = "A4E552E4-62BE-43BB-A58F-34F0EE3B77B8";
name = Bold;
paths = (
{
closed = 1;
nodes = (
"16 378 LINE",
"90 378 LINE",
"90 0 LINE",
"267 0 LINE",
"267 378 LINE",
"385 378 LINE",
"385 513 LINE",
"267 513 LINE",
"267 617 LINE SMOOTH",
"267 688 OFFCURVE",
"277 718 OFFCURVE",
"322 718 CURVE SMOOTH",
"351 718 OFFCURVE",
"375 704 OFFCURVE",
"375 704 CURVE",
"437 829 LINE",
"437 829 OFFCURVE",
"381 875 OFFCURVE",
"291 875 CURVE SMOOTH",
"163 875 OFFCURVE",
"91 772 OFFCURVE",
"90 622 CURVE SMOOTH",
"90 513 LINE",
"16 513 LINE"
);
}
);
width = 375;
},
{
layerId = "2A961F25-8D0E-4F3D-9AC7-EA5E11B6DCD4";
name = Regular;
paths = (
{
closed = 1;
nodes = (
"35 433 LINE",
"105 433 LINE",
"105 0 LINE",
"192 0 LINE",
"192 433 LINE",
"306 433 LINE",
"306 513 LINE",
"192 513 LINE",
"192 721 LINE SMOOTH",
"192 749 OFFCURVE",
"207 788 OFFCURVE",
"251 788 CURVE SMOOTH",
"284 788 OFFCURVE",
"314 768 OFFCURVE",
"314 768 CURVE",
"352 833 LINE",
"352 833 OFFCURVE",
"309 875 OFFCURVE",
"239 875 CURVE SMOOTH",
"178 875 OFFCURVE",
"105 825 OFFCURVE",
"105 699 CURVE SMOOTH",
"105 513 LINE",
"35 513 LINE"
);
}
);
width = 323;
}
);
rightKerningGroup = d;
unicode = 0066;
},
{
glyphname = g;
lastChange = "2016-02-10 23:52:19 +0000";
layers = (
{
layerId = "A4E552E4-62BE-43BB-A58F-34F0EE3B77B8";
name = Bold;
paths = (
{
closed = 1;
nodes = (
"40 -126 LINE",
"94 -251 OFFCURVE",
"217 -275 OFFCURVE",
"324 -275 CURVE SMOOTH",
"499 -275 OFFCURVE",
"626 -186 OFFCURVE",
"626 -14 CURVE SMOOTH",
"626 513 LINE",
"449 513 LINE",
"449 467 LINE",
"446 467 LINE",
"404 506 OFFCURVE",
"349 528 OFFCURVE",
"281 528 CURVE SMOOTH",
"131 528 OFFCURVE",
"26 406 OFFCURVE",
"26 256 CURVE SMOOTH",
"26 106 OFFCURVE",
"131 -15 OFFCURVE",
"281 -15 CURVE SMOOTH",
"351 -15 OFFCURVE",
"411 -5 OFFCURVE",
"449 37 CURVE",
"449 -1 LINE SMOOTH",
"449 -92 OFFCURVE",
"373 -121 OFFCURVE",
"324 -121 CURVE SMOOTH",
"247 -121 OFFCURVE",
"204 -86 OFFCURVE",
"185 -55 CURVE"
);
},
{
closed = 1;
nodes = (
"214 327 OFFCURVE",
"267 377 OFFCURVE",
"334 377 CURVE SMOOTH",
"400 377 OFFCURVE",
"453 327 OFFCURVE",
"453 256 CURVE SMOOTH",
"453 186 OFFCURVE",
"403 136 OFFCURVE",
"334 136 CURVE SMOOTH",
"262 136 OFFCURVE",
"214 186 OFFCURVE",
"214 256 CURVE SMOOTH"
);
}
);
width = 681;
},
{
layerId = "2A961F25-8D0E-4F3D-9AC7-EA5E11B6DCD4";
name = Regular;
paths = (
{
closed = 1;
nodes = (
"97 -160 LINE",
"153 -231 OFFCURVE",
"209 -276 OFFCURVE",
"318 -277 CURVE",
"478 -275 OFFCURVE",
"575 -193 OFFCURVE",
"573 -20 CURVE",
"575 513 LINE",
"486 513 LINE",
"486 456 LINE",
"485 456 LINE",
"437 506 OFFCURVE",
"382 528 OFFCURVE",
"318 528 CURVE SMOOTH",
"170 528 OFFCURVE",
"63 406 OFFCURVE",
"63 256 CURVE SMOOTH",
"63 106 OFFCURVE",
"170 -15 OFFCURVE",
"318 -15 CURVE SMOOTH",
"396 -15 OFFCURVE",
"458 18 OFFCURVE",
"488 58 CURVE",
"489 -7 LINE",
"488 -149 OFFCURVE",
"426 -197 OFFCURVE",
"318 -197 CURVE SMOOTH",
"243 -197 OFFCURVE",
"203 -166 OFFCURVE",
"166 -124 CURVE"
);
},
{
closed = 1;
nodes = (
"154 374 OFFCURVE",
"221 448 OFFCURVE",
"329 448 CURVE SMOOTH",
"417 448 OFFCURVE",
"490 374 OFFCURVE",
"490 256 CURVE SMOOTH",
"490 136 OFFCURVE",
"420 65 OFFCURVE",
"329 65 CURVE SMOOTH",
"221 65 OFFCURVE",
"154 138 OFFCURVE",
"154 256 CURVE SMOOTH"
);
}
);
width = 658;
}
);
leftKerningGroup = g;
leftMetricsKey = "=o+3";
rightKerningGroup = g;
rightMetricsKey = "=q-5";
unicode = 0067;
},
{
glyphname = gcommaaccent;
lastChange = "2015-12-23 09:57:27 +0000";
layers = (
{
layerId = "A4E552E4-62BE-43BB-A58F-34F0EE3B77B8";
name = Bold;
paths = (
{
closed = 1;
nodes = (
"390 607 OFFCURVE",
"430 647 OFFCURVE",
"430 697 CURVE SMOOTH",
"430 737 OFFCURVE",
"401 768 OFFCURVE",
"363 777 CURVE",
"375 842 OFFCURVE",
"422 887 OFFCURVE",
"422 887 CURVE",
"382 918 LINE",
"319 866 OFFCURVE",
"252 790 OFFCURVE",
"252 697 CURVE SMOOTH",
"252 647 OFFCURVE",
"292 607 OFFCURVE",
"342 607 CURVE SMOOTH"
);
},
{
closed = 1;
nodes = (
"37 -126 LINE",
"91 -251 OFFCURVE",
"214 -275 OFFCURVE",
"321 -275 CURVE SMOOTH",
"496 -275 OFFCURVE",
"623 -186 OFFCURVE",
"623 -14 CURVE SMOOTH",
"623 513 LINE",
"446 513 LINE",
"446 467 LINE",
"443 467 LINE",
"401 506 OFFCURVE",
"346 528 OFFCURVE",
"278 528 CURVE SMOOTH",
"128 528 OFFCURVE",
"23 406 OFFCURVE",
"23 256 CURVE SMOOTH",
"23 106 OFFCURVE",
"128 -15 OFFCURVE",
"278 -15 CURVE SMOOTH",
"348 -15 OFFCURVE",
"408 -5 OFFCURVE",
"446 37 CURVE",
"446 -1 LINE SMOOTH",
"446 -92 OFFCURVE",
"370 -121 OFFCURVE",
"321 -121 CURVE SMOOTH",
"244 -121 OFFCURVE",
"201 -86 OFFCURVE",
"182 -55 CURVE"
);
},
{
closed = 1;
nodes = (
"211 327 OFFCURVE",
"264 377 OFFCURVE",
"331 377 CURVE SMOOTH",
"397 377 OFFCURVE",
"450 327 OFFCURVE",
"450 256 CURVE SMOOTH",
"450 186 OFFCURVE",
"400 136 OFFCURVE",
"331 136 CURVE SMOOTH",
"259 136 OFFCURVE",
"211 186 OFFCURVE",
"211 256 CURVE SMOOTH"
);
}
);
width = 683;
},
{
layerId = "2A961F25-8D0E-4F3D-9AC7-EA5E11B6DCD4";
name = Regular;
width = 600;
}
);
leftKerningGroup = g;
rightKerningGroup = g;
unicode = 0123;
},
{
glyphname = h;
lastChange = "2016-02-10 23:52:19 +0000";
layers = (
{
layerId = "A4E552E4-62BE-43BB-A58F-34F0EE3B77B8";
name = Bold;
paths = (
{
closed = 1;
nodes = (
"242 290 LINE SMOOTH",
"242 341 OFFCURVE",
"294 390 OFFCURVE",
"347 390 CURVE SMOOTH",
"404 390 OFFCURVE",
"439 341 OFFCURVE",
"439 290 CURVE SMOOTH",
"439 0 LINE",
"616 0 LINE",
"616 338 LINE SMOOTH",
"616 481 OFFCURVE",
"485 528 OFFCURVE",
"391 528 CURVE SMOOTH",
"335 528 OFFCURVE",
"284 499 OFFCURVE",
"244 459 CURVE",
"242 459 LINE",
"242 860 LINE",
"65 860 LINE",
"65 0 LINE",
"242 0 LINE"
);
}
);
width = 666;
},
{
layerId = "2A961F25-8D0E-4F3D-9AC7-EA5E11B6DCD4";
name = Regular;
paths = (
{
closed = 1;
nodes = (
"180 315 LINE SMOOTH",
"180 363 OFFCURVE",
"241 448 OFFCURVE",
"358 448 CURVE SMOOTH",
"445 448 OFFCURVE",
"499 397 OFFCURVE",
"499 290 CURVE SMOOTH",
"499 0 LINE",
"586 0 LINE",
"586 338 LINE SMOOTH",
"586 461 OFFCURVE",
"473 528 OFFCURVE",
"367 528 CURVE SMOOTH",
"303 528 OFFCURVE",
"215 500 OFFCURVE",
"182 450 CURVE",
"180 450 LINE",
"180 860 LINE",
"93 860 LINE",
"93 0 LINE",
"180 0 LINE"
);
}
);
width = 668;
}
);
leftMetricsKey = "=n+5";
rightKerningGroup = b;
rightMetricsKey = "=n";
unicode = 0068;
},
{
glyphname = i;
lastChange = "2016-02-10 23:52:19 +0000";
layers = (
{
layerId = "A4E552E4-62BE-43BB-A58F-34F0EE3B77B8";
name = Bold;
paths = (
{
closed = 1;
nodes = (
"256 0 LINE",
"79 0 LINE",
"79 513 LINE",
"256 513 LINE"
);
},
{
closed = 1;
nodes = (
"112 830 OFFCURVE",
"65 783 OFFCURVE",
"65 725 CURVE SMOOTH",
"65 667 OFFCURVE",
"112 620 OFFCURVE",
"170 620 CURVE SMOOTH",
"228 620 OFFCURVE",
"275 667 OFFCURVE",
"275 725 CURVE SMOOTH",
"275 783 OFFCURVE",
"228 830 OFFCURVE",
"170 830 CURVE SMOOTH"
);
}
);
width = 325;
},
{
layerId = "2A961F25-8D0E-4F3D-9AC7-EA5E11B6DCD4";
name = Regular;
paths = (
{
closed = 1;
nodes = (
"195 0 LINE",
"108 0 LINE",
"108 513 LINE",
"195 513 LINE"
);
},
{
closed = 1;
nodes = (
"119 774 OFFCURVE",
"93 748 OFFCURVE",
"93 715 CURVE SMOOTH",
"93 683 OFFCURVE",
"119 657 OFFCURVE",
"152 657 CURVE SMOOTH",
"184 657 OFFCURVE",
"210 683 OFFCURVE",
"210 715 CURVE SMOOTH",
"210 748 OFFCURVE",
"184 774 OFFCURVE",
"152 774 CURVE SMOOTH"
);
}
);
width = 292;
}
);
leftKerningGroup = i;
leftMetricsKey = "=n+5";
rightKerningGroup = d;
rightMetricsKey = "=n";
unicode = 0069;
},
{
glyphname = dotlessi;
lastChange = "2015-12-23 09:57:27 +0000";
layers = (
{
layerId = "A4E552E4-62BE-43BB-A58F-34F0EE3B77B8";
name = Bold;
paths = (
{
closed = 1;
nodes = (
"223 513 LINE",
"46 513 LINE",
"46 0 LINE",
"223 0 LINE"
);
}
);
width = 269;
},
{
layerId = "2A961F25-8D0E-4F3D-9AC7-EA5E11B6DCD4";
name = Regular;
width = 600;
}
);
leftKerningGroup = i;
rightKerningGroup = d;
unicode = 0131;
},
{
glyphname = iacute;
lastChange = "2015-12-23 09:57:27 +0000";
layers = (
{
layerId = "A4E552E4-62BE-43BB-A58F-34F0EE3B77B8";
name = Bold;
paths = (
{
closed = 1;
nodes = (
"237 0 LINE",
"60 0 LINE",
"60 513 LINE",
"237 513 LINE"
);
},
{
closed = 1;
nodes = (
"384 725 LINE",
"293 840 LINE",
"90 664 LINE",
"146 587 LINE"
);
}
);
width = 297;
},
{
layerId = "2A961F25-8D0E-4F3D-9AC7-EA5E11B6DCD4";
name = Regular;
width = 600;
}
);
leftKerningGroup = i;
rightKerningGroup = d;
unicode = 00ED;
},
{
glyphname = icircumflex;
lastChange = "2015-12-23 09:57:27 +0000";
layers = (
{
layerId = "A4E552E4-62BE-43BB-A58F-34F0EE3B77B8";
name = Bold;
paths = (
{
closed = 1;
nodes = (
"237 0 LINE",
"60 0 LINE",
"60 513 LINE",
"237 513 LINE"
);
},
{
closed = 1;
nodes = (
"149 699 LINE",
"302 587 LINE",
"370 678 LINE",
"149 840 LINE",
"-72 678 LINE",
"-4 587 LINE"
);
}
);
width = 297;
},
{
layerId = "2A961F25-8D0E-4F3D-9AC7-EA5E11B6DCD4";
name = Regular;
width = 600;
}
);
leftKerningGroup = Icircumflex;
rightKerningGroup = Icircumflex;
unicode = 00EE;
},
{
glyphname = idieresis;
lastChange = "2015-12-23 09:57:27 +0000";
layers = (
{
layerId = "A4E552E4-62BE-43BB-A58F-34F0EE3B77B8";
name = Bold;
paths = (
{
closed = 1;
nodes = (
"237 0 LINE",
"60 0 LINE",
"60 513 LINE",
"237 513 LINE"
);
},
{
closed = 1;
nodes = (
"-21 791 OFFCURVE",
"-62 750 OFFCURVE",
"-62 699 CURVE SMOOTH",
"-62 648 OFFCURVE",
"-21 607 OFFCURVE",
"30 607 CURVE SMOOTH",
"81 607 OFFCURVE",
"122 648 OFFCURVE",
"122 699 CURVE SMOOTH",
"122 750 OFFCURVE",
"81 791 OFFCURVE",
"30 791 CURVE SMOOTH"
);
},
{
closed = 1;
nodes = (
"216 791 OFFCURVE",
"175 750 OFFCURVE",
"175 699 CURVE SMOOTH",
"175 648 OFFCURVE",
"216 607 OFFCURVE",
"267 607 CURVE SMOOTH",
"318 607 OFFCURVE",
"359 648 OFFCURVE",
"359 699 CURVE SMOOTH",
"359 750 OFFCURVE",
"318 791 OFFCURVE",
"267 791 CURVE SMOOTH"
);
}
);
width = 297;
},
{
layerId = "2A961F25-8D0E-4F3D-9AC7-EA5E11B6DCD4";
name = Regular;
width = 600;
}
);
leftKerningGroup = Icircumflex;
rightKerningGroup = Icircumflex;
unicode = 00EF;
},
{
glyphname = igrave;
lastChange = "2015-12-23 09:57:27 +0000";
layers = (
{
layerId = "A4E552E4-62BE-43BB-A58F-34F0EE3B77B8";
name = Bold;
paths = (
{
closed = 1;
nodes = (
"237 0 LINE",
"60 0 LINE",
"60 513 LINE",
"237 513 LINE"
);
},
{
closed = 1;
nodes = (
"151 587 LINE",
"207 664 LINE",
"4 840 LINE",
"-87 725 LINE"
);
}
);
width = 297;
},
{
layerId = "2A961F25-8D0E-4F3D-9AC7-EA5E11B6DCD4";
name = Regular;
width = 600;
}
);
leftKerningGroup = i;
rightKerningGroup = d;
unicode = 00EC;
},
{
glyphname = imacron;
lastChange = "2015-12-23 09:57:27 +0000";
layers = (
{
layerId = "A4E552E4-62BE-43BB-A58F-34F0EE3B77B8";
name = Bold;
paths = (
{
closed = 1;
nodes = (
"237 0 LINE",
"60 0 LINE",
"60 513 LINE",
"237 513 LINE"
);
},
{
closed = 1;
nodes = (
"353 634 LINE",
"353 754 LINE",
"-55 754 LINE",
"-55 634 LINE"
);
}
);
width = 297;
},
{
layerId = "2A961F25-8D0E-4F3D-9AC7-EA5E11B6DCD4";
name = Regular;
width = 600;
}
);
leftKerningGroup = Icircumflex;
rightKerningGroup = Icircumflex;
unicode = 012B;
},
{
glyphname = iogonek;
lastChange = "2015-12-23 09:57:27 +0000";
layers = (
{
layerId = "A4E552E4-62BE-43BB-A58F-34F0EE3B77B8";
name = Bold;
paths = (
{
closed = 1;
nodes = (
"29 -101 OFFCURVE",
"79 -35 OFFCURVE",
"109 0 CURVE",
"60 0 LINE",
"60 513 LINE",
"237 513 LINE",
"237 0 LINE",
"191 0 LINE SMOOTH",
"191 0 OFFCURVE",
"132 -70 OFFCURVE",
"132 -140 CURVE SMOOTH",
"132 -165 OFFCURVE",
"152 -179 OFFCURVE",
"169 -179 CURVE SMOOTH",
"200 -179 OFFCURVE",
"220 -149 OFFCURVE",
"220 -149 CURVE",
"292 -203 LINE",
"292 -203 OFFCURVE",
"247 -275 OFFCURVE",
"155 -275 CURVE SMOOTH",
"103 -275 OFFCURVE",
"29 -245 OFFCURVE",
"29 -158 CURVE SMOOTH"
);
},
{
closed = 1;
nodes = (
"93 830 OFFCURVE",
"46 783 OFFCURVE",
"46 725 CURVE SMOOTH",
"46 667 OFFCURVE",
"93 620 OFFCURVE",
"151 620 CURVE SMOOTH",
"209 620 OFFCURVE",
"256 667 OFFCURVE",
"256 725 CURVE SMOOTH",
"256 783 OFFCURVE",
"209 830 OFFCURVE",
"151 830 CURVE SMOOTH"
);
}
);
width = 297;
},
{
layerId = "2A961F25-8D0E-4F3D-9AC7-EA5E11B6DCD4";
name = Regular;
width = 600;
}
);
leftKerningGroup = i;
rightKerningGroup = d;
unicode = 012F;
},
{
glyphname = j;
lastChange = "2015-12-29 11:45:29 +0000";
layers = (
{
layerId = "A4E552E4-62BE-43BB-A58F-34F0EE3B77B8";
name = Bold;
paths = (
{
closed = 1;
nodes = (
"266 -79 LINE SMOOTH",
"266 -170 OFFCURVE",
"222 -275 OFFCURVE",
"81 -275 CURVE SMOOTH",
"-3 -275 OFFCURVE",
"-35 -254 OFFCURVE",
"-60 -243 CURVE",
"-5 -100 LINE",
"-5 -100 OFFCURVE",
"18 -115 OFFCURVE",
"40 -115 CURVE SMOOTH",
"70 -115 OFFCURVE",
"89 -93 OFFCURVE",
"89 -45 CURVE SMOOTH",
"89 513 LINE",
"266 513 LINE"
);
},
{
closed = 1;
nodes = (
"122 830 OFFCURVE",
"75 783 OFFCURVE",
"75 725 CURVE SMOOTH",
"75 667 OFFCURVE",
"122 620 OFFCURVE",
"180 620 CURVE SMOOTH",
"238 620 OFFCURVE",
"285 667 OFFCURVE",
"285 725 CURVE SMOOTH",
"285 783 OFFCURVE",
"238 830 OFFCURVE",
"180 830 CURVE SMOOTH"
);
}
);
width = 345;
},
{
layerId = "2A961F25-8D0E-4F3D-9AC7-EA5E11B6DCD4";
name = Regular;
paths = (
{
closed = 1;
nodes = (
"206 -130 LINE SMOOTH",
"206 -217 OFFCURVE",
"141 -275 OFFCURVE",
"63 -275 CURVE SMOOTH",
"-2 -275 OFFCURVE",
"-49 -242 OFFCURVE",
"-49 -242 CURVE",
"-16 -175 LINE",
"-16 -175 OFFCURVE",
"24 -196 OFFCURVE",
"54 -196 CURVE SMOOTH",
"107 -196 OFFCURVE",
"119 -167 OFFCURVE",
"119 -102 CURVE SMOOTH",
"119 513 LINE",
"206 513 LINE"
);
},
{
closed = 1;
nodes = (
"130 774 OFFCURVE",
"104 748 OFFCURVE",
"104 715 CURVE SMOOTH",
"104 683 OFFCURVE",
"130 657 OFFCURVE",
"163 657 CURVE SMOOTH",
"195 657 OFFCURVE",
"221 683 OFFCURVE",
"221 715 CURVE SMOOTH",
"221 748 OFFCURVE",
"195 774 OFFCURVE",
"163 774 CURVE SMOOTH"
);
}
);
width = 309;
}
);
rightKerningGroup = d;
rightMetricsKey = "=|n";
unicode = 006A;
},
{
glyphname = k;
lastChange = "2016-01-31 21:54:26 +0000";
layers = (
{
layerId = "A4E552E4-62BE-43BB-A58F-34F0EE3B77B8";
name = Bold;
paths = (
{
closed = 1;
nodes = (
"242 334 LINE",
"242 860 LINE",
"65 860 LINE",
"65 0 LINE",
"242 0 LINE",
"242 205 LINE",
"447 0 LINE",
"675 0 LINE",
"407 268 LINE",
"651 513 LINE",
"421 513 LINE"
);
}
);
width = 655;
},
{
layerId = "2A961F25-8D0E-4F3D-9AC7-EA5E11B6DCD4";
name = Regular;
paths = (
{
closed = 1;
nodes = (
"180 306 LINE",
"180 860 LINE",
"93 860 LINE",
"93 0 LINE",
"180 0 LINE",
"180 240 LINE",
"420 0 LINE",
"545 0 LINE",
"271 274 LINE",
"509 513 LINE",
"388 513 LINE"
);
}
);
width = 540;
}
);
leftMetricsKey = "=n+5";
rightKerningGroup = d;
unicode = 006B;
},
{
glyphname = kcommaaccent;
lastChange = "2015-12-23 09:57:27 +0000";
layers = (
{
layerId = "A4E552E4-62BE-43BB-A58F-34F0EE3B77B8";
name = Bold;
paths = (
{
closed = 1;
nodes = (
"237 334 LINE",
"237 860 LINE",
"60 860 LINE",
"60 0 LINE",
"237 0 LINE",
"237 205 LINE",
"442 0 LINE",
"670 0 LINE",
"402 268 LINE",
"646 513 LINE",
"416 513 LINE"
);
},
{
closed = 1;
nodes = (
"274 -40 OFFCURVE",
"234 -80 OFFCURVE",
"234 -130 CURVE SMOOTH",
"234 -170 OFFCURVE",
"263 -201 OFFCURVE",
"301 -210 CURVE",
"289 -275 OFFCURVE",
"242 -320 OFFCURVE",
"242 -320 CURVE",
"282 -351 LINE",
"345 -299 OFFCURVE",
"412 -223 OFFCURVE",
"412 -130 CURVE SMOOTH",
"412 -80 OFFCURVE",
"372 -40 OFFCURVE",
"322 -40 CURVE SMOOTH"
);
}
);
width = 646;
},
{
layerId = "2A961F25-8D0E-4F3D-9AC7-EA5E11B6DCD4";
name = Regular;
width = 600;
}
);
rightKerningGroup = d;
unicode = 0137;
},
{
glyphname = l;
lastChange = "2016-02-10 23:52:19 +0000";
layers = (
{
layerId = "A4E552E4-62BE-43BB-A58F-34F0EE3B77B8";
name = Bold;
paths = (
{
closed = 1;
nodes = (
"244 860 LINE",
"67 860 LINE",
"67 0 LINE",
"244 0 LINE"
);
}
);
width = 294;
},
{
layerId = "2A961F25-8D0E-4F3D-9AC7-EA5E11B6DCD4";
name = Regular;
paths = (
{
closed = 1;
nodes = (
"182 860 LINE",
"95 860 LINE",
"95 0 LINE",
"182 0 LINE"
);
}
);
width = 264;
}
);
leftKerningGroup = i;
leftMetricsKey = "=n+7";
rightKerningGroup = d;
rightMetricsKey = "=n";
unicode = 006C;
},
{
glyphname = lacute;
lastChange = "2015-12-23 09:57:27 +0000";
layers = (
{
layerId = "A4E552E4-62BE-43BB-A58F-34F0EE3B77B8";
name = Bold;
paths = (
{
closed = 1;
nodes = (
"237 0 LINE",
"60 0 LINE",
"60 860 LINE",
"237 860 LINE"
);
},
{
closed = 1;
nodes = (
"354 1072 LINE",
"263 1187 LINE",
"60 1011 LINE",
"116 934 LINE"
);
}
);
width = 297;
},
{
layerId = "2A961F25-8D0E-4F3D-9AC7-EA5E11B6DCD4";
name = Regular;
width = 600;
}
);
leftKerningGroup = i;
rightKerningGroup = d;
unicode = 013A;
},
{
glyphname = lcaron;
lastChange = "2015-12-23 09:57:27 +0000";
layers = (
{
layerId = "A4E552E4-62BE-43BB-A58F-34F0EE3B77B8";
name = Bold;
paths = (
{
closed = 1;
nodes = (
"237 860 LINE",
"60 860 LINE",
"60 0 LINE",
"237 0 LINE"
);
},
{
closed = 1;
nodes = (
"322 824 OFFCURVE",
"282 784 OFFCURVE",
"282 734 CURVE SMOOTH",
"282 694 OFFCURVE",
"311 663 OFFCURVE",
"349 654 CURVE",
"337 589 OFFCURVE",
"290 544 OFFCURVE",
"290 544 CURVE",
"330 513 LINE",
"393 565 OFFCURVE",
"460 641 OFFCURVE",
"460 734 CURVE SMOOTH",
"460 784 OFFCURVE",
"420 824 OFFCURVE",
"370 824 CURVE SMOOTH"
);
}
);
width = 297;
},
{
layerId = "2A961F25-8D0E-4F3D-9AC7-EA5E11B6DCD4";
name = Regular;
width = 600;
}
);
rightKerningGroup = d;
unicode = 013E;
},
{
glyphname = lcommaaccent;
lastChange = "2015-12-23 09:57:27 +0000";
layers = (
{
layerId = "A4E552E4-62BE-43BB-A58F-34F0EE3B77B8";
name = Bold;
paths = (
{
closed = 1;
nodes = (
"237 860 LINE",
"60 860 LINE",
"60 0 LINE",
"237 0 LINE"
);
},
{
closed = 1;
nodes = (
"99 -40 OFFCURVE",
"59 -80 OFFCURVE",
"59 -130 CURVE SMOOTH",
"59 -170 OFFCURVE",
"88 -201 OFFCURVE",
"126 -210 CURVE",
"114 -275 OFFCURVE",
"67 -320 OFFCURVE",
"67 -320 CURVE",
"107 -351 LINE",
"170 -299 OFFCURVE",
"237 -223 OFFCURVE",
"237 -130 CURVE SMOOTH",
"237 -80 OFFCURVE",
"197 -40 OFFCURVE",
"147 -40 CURVE SMOOTH"
);
}
);
width = 297;
},
{
layerId = "2A961F25-8D0E-4F3D-9AC7-EA5E11B6DCD4";
name = Regular;
width = 600;
}
);
leftKerningGroup = i;
rightKerningGroup = d;
unicode = 013C;
},
{
glyphname = lslash;
lastChange = "2015-12-23 09:57:27 +0000";
layers = (
{
layerId = "A4E552E4-62BE-43BB-A58F-34F0EE3B77B8";
name = Bold;
paths = (
{
closed = 1;
nodes = (
"273 449 LINE",
"349 509 LINE",
"349 662 LINE",
"273 602 LINE",
"273 860 LINE",
"96 860 LINE",
"96 463 LINE",
"20 403 LINE",
"20 250 LINE",
"96 310 LINE",
"96 0 LINE",
"273 0 LINE"
);
}
);
width = 369;
},
{
layerId = "2A961F25-8D0E-4F3D-9AC7-EA5E11B6DCD4";
name = Regular;
width = 600;
}
);
rightKerningGroup = d;
unicode = 0142;
},
{
glyphname = m;
lastChange = "2016-02-10 23:52:19 +0000";
layers = (
{
layerId = "A4E552E4-62BE-43BB-A58F-34F0EE3B77B8";
name = Bold;
paths = (
{
closed = 1;
nodes = (
"237 300 LINE SMOOTH",
"237 341 OFFCURVE",
"260 386 OFFCURVE",
"319 386 CURVE SMOOTH",
"382 386 OFFCURVE",
"409 341 OFFCURVE",
"409 290 CURVE SMOOTH",
"409 0 LINE",
"586 0 LINE",
"586 306 LINE",
"588 345 OFFCURVE",
"612 386 OFFCURVE",
"668 386 CURVE SMOOTH",
"731 386 OFFCURVE",
"758 341 OFFCURVE",
"758 290 CURVE SMOOTH",
"758 0 LINE",
"935 0 LINE",
"935 338 LINE SMOOTH",
"935 481 OFFCURVE",
"829 528 OFFCURVE",
"735 528 CURVE SMOOTH",
"679 528 OFFCURVE",
"619 499 OFFCURVE",
"565 434 CURVE",
"529 503 OFFCURVE",
"454 528 OFFCURVE",
"386 528 CURVE SMOOTH",
"330 528 OFFCURVE",
"279 499 OFFCURVE",
"239 459 CURVE",
"237 459 LINE",
"237 513 LINE",
"60 513 LINE",
"60 0 LINE",
"237 0 LINE"
);
}
);
width = 985;
},
{
background = {
paths = (
{
closed = 0;
nodes = (
"499.016 448 LINE",
"499.016 445.53 OFFCURVE",
"499.016 396.135 OFFCURVE",
"499.016 290 CURVE SMOOTH",
"499.016 0 LINE",
"499.016 0 LINE",
"499.016 338 LINE SMOOTH",
"499.016 461 OFFCURVE",
"499.016 528 OFFCURVE",
"499.016 528 CURVE SMOOTH",
"499.016 528 OFFCURVE",
"499.016 522.345 OFFCURVE",
"499.016 479.345 CURVE"
);
}
);
};
layerId = "2A961F25-8D0E-4F3D-9AC7-EA5E11B6DCD4";
name = Regular;
paths = (
{
closed = 1;
nodes = (
"175 317 LINE SMOOTH",
"175 397 OFFCURVE",
"250 448 OFFCURVE",
"312 448 CURVE SMOOTH",
"399 448 OFFCURVE",
"453 397 OFFCURVE",
"453 290 CURVE SMOOTH",
"453 0 LINE",
"540 0 LINE",
"540 317 LINE SMOOTH",
"540 397 OFFCURVE",
"615 448 OFFCURVE",
"677 448 CURVE SMOOTH",
"764 448 OFFCURVE",
"818 397 OFFCURVE",
"818 290 CURVE SMOOTH",
"818 0 LINE",
"905 0 LINE",
"905 338 LINE SMOOTH",
"905 461 OFFCURVE",
"792 528 OFFCURVE",
"706 528 CURVE SMOOTH",
"642 528 OFFCURVE",
"575 513 OFFCURVE",
"516 433 CURVE",
"467 513 OFFCURVE",
"392 528 OFFCURVE",
"334 528 CURVE SMOOTH",
"272 528 OFFCURVE",
"211 499 OFFCURVE",
"176 450 CURVE",
"175 450 LINE",
"175 513 LINE",
"88 513 LINE",
"88 0 LINE",
"175 0 LINE SMOOTH"
);
}
);
width = 987;
}
);
leftKerningGroup = r;
leftMetricsKey = "=n";
rightKerningGroup = b;
rightMetricsKey = "=n";
unicode = 006D;
},
{
glyphname = n;
lastChange = "2015-12-29 11:47:01 +0000";
layers = (
{
layerId = "A4E552E4-62BE-43BB-A58F-34F0EE3B77B8";
name = Bold;
paths = (
{
closed = 1;
nodes = (
"237 290 LINE SMOOTH",
"237 341 OFFCURVE",
"289 390 OFFCURVE",
"342 390 CURVE SMOOTH",
"399 390 OFFCURVE",
"434 341 OFFCURVE",
"434 290 CURVE SMOOTH",
"434 0 LINE",
"611 0 LINE",
"611 338 LINE SMOOTH",
"611 481 OFFCURVE",
"480 528 OFFCURVE",
"386 528 CURVE SMOOTH",
"330 528 OFFCURVE",
"279 499 OFFCURVE",
"239 459 CURVE",
"237 459 LINE",
"237 513 LINE",
"60 513 LINE",
"60 0 LINE",
"237 0 LINE"
);
}
);
width = 661;
},
{
layerId = "2A961F25-8D0E-4F3D-9AC7-EA5E11B6DCD4";
name = Regular;
paths = (
{
closed = 1;
nodes = (
"175 315 LINE SMOOTH",
"175 363 OFFCURVE",
"236 448 OFFCURVE",
"353 448 CURVE SMOOTH",
"440 448 OFFCURVE",
"494 397 OFFCURVE",
"494 290 CURVE SMOOTH",
"494 0 LINE",
"581 0 LINE",
"581 338 LINE SMOOTH",
"581 461 OFFCURVE",
"468 528 OFFCURVE",
"362 528 CURVE SMOOTH",
"298 528 OFFCURVE",
"210 500 OFFCURVE",
"177 450 CURVE",
"175 450 LINE",
"175 513 LINE",
"88 513 LINE",
"88 0 LINE",
"175 0 LINE"
);
}
);
width = 663;
}
);
leftKerningGroup = r;
rightKerningGroup = b;
unicode = 006E;
},
{
glyphname = nacute;
lastChange = "2015-12-23 09:57:56 +0000";
layers = (
{
layerId = "A4E552E4-62BE-43BB-A58F-34F0EE3B77B8";
name = Bold;
paths = (
{
closed = 1;
nodes = (
"237 0 LINE",
"60 0 LINE",
"60 513 LINE",
"237 513 LINE",
"237 459 LINE",
"239 459 LINE",
"279 499 OFFCURVE",
"330 528 OFFCURVE",
"386 528 CURVE SMOOTH",
"480 528 OFFCURVE",
"611 481 OFFCURVE",
"611 338 CURVE SMOOTH",
"611 0 LINE",
"434 0 LINE",
"434 290 LINE SMOOTH",
"434 341 OFFCURVE",
"399 390 OFFCURVE",
"342 390 CURVE SMOOTH",
"289 390 OFFCURVE",
"237 341 OFFCURVE",
"237 290 CURVE SMOOTH"
);
},
{
closed = 1;
nodes = (
"565 725 LINE",
"474 840 LINE",
"271 664 LINE",
"327 587 LINE"
);
}
);
width = 661;
},
{
layerId = "2A961F25-8D0E-4F3D-9AC7-EA5E11B6DCD4";
name = Regular;
width = 600;
}
);
leftKerningGroup = r;
rightKerningGroup = b;
unicode = 0144;
},
{
glyphname = ncaron;
lastChange = "2015-12-23 09:57:56 +0000";
layers = (
{
layerId = "A4E552E4-62BE-43BB-A58F-34F0EE3B77B8";
name = Bold;
paths = (
{
closed = 1;
nodes = (
"237 0 LINE",
"60 0 LINE",
"60 513 LINE",
"237 513 LINE",
"237 459 LINE",
"239 459 LINE",
"279 499 OFFCURVE",
"330 528 OFFCURVE",
"386 528 CURVE SMOOTH",
"480 528 OFFCURVE",
"611 481 OFFCURVE",
"611 338 CURVE SMOOTH",
"611 0 LINE",
"434 0 LINE",
"434 290 LINE SMOOTH",
"434 341 OFFCURVE",
"399 390 OFFCURVE",
"342 390 CURVE SMOOTH",
"289 390 OFFCURVE",
"237 341 OFFCURVE",
"237 290 CURVE SMOOTH"
);
},
{
closed = 1;
nodes = (
"330 587 LINE",
"551 749 LINE",
"483 840 LINE",
"330 728 LINE",
"177 840 LINE",
"109 749 LINE"
);
}
);
width = 661;
},
{
layerId = "2A961F25-8D0E-4F3D-9AC7-EA5E11B6DCD4";
name = Regular;
width = 600;
}
);
leftKerningGroup = r;
rightKerningGroup = b;
unicode = 0148;
},
{
glyphname = ncommaaccent;
lastChange = "2015-12-23 09:57:56 +0000";
layers = (
{
layerId = "A4E552E4-62BE-43BB-A58F-34F0EE3B77B8";
name = Bold;
paths = (
{
closed = 1;
nodes = (
"237 290 LINE SMOOTH",
"237 341 OFFCURVE",
"289 390 OFFCURVE",
"342 390 CURVE SMOOTH",
"399 390 OFFCURVE",
"434 341 OFFCURVE",
"434 290 CURVE SMOOTH",
"434 0 LINE",
"611 0 LINE",
"611 338 LINE SMOOTH",
"611 481 OFFCURVE",
"480 528 OFFCURVE",
"386 528 CURVE SMOOTH",
"330 528 OFFCURVE",
"279 499 OFFCURVE",
"239 459 CURVE",
"237 459 LINE",
"237 513 LINE",
"60 513 LINE",
"60 0 LINE",
"237 0 LINE"
);
},
{
closed = 1;
nodes = (
"281 -40 OFFCURVE",
"241 -80 OFFCURVE",
"241 -130 CURVE SMOOTH",
"241 -170 OFFCURVE",
"270 -201 OFFCURVE",
"308 -210 CURVE",
"296 -275 OFFCURVE",
"249 -320 OFFCURVE",
"249 -320 CURVE",
"289 -351 LINE",
"352 -299 OFFCURVE",
"419 -223 OFFCURVE",
"419 -130 CURVE SMOOTH",
"419 -80 OFFCURVE",
"379 -40 OFFCURVE",
"329 -40 CURVE SMOOTH"
);
}
);
width = 661;
},
{
layerId = "2A961F25-8D0E-4F3D-9AC7-EA5E11B6DCD4";
name = Regular;
width = 600;
}
);
leftKerningGroup = r;
rightKerningGroup = b;
unicode = 0146;
},
{
glyphname = ntilde;
lastChange = "2015-12-23 09:57:56 +0000";
layers = (
{
layerId = "A4E552E4-62BE-43BB-A58F-34F0EE3B77B8";
name = Bold;
paths = (
{
closed = 1;
nodes = (
"237 0 LINE",
"60 0 LINE",
"60 513 LINE",
"237 513 LINE",
"237 459 LINE",
"239 459 LINE",
"279 499 OFFCURVE",
"330 528 OFFCURVE",
"386 528 CURVE SMOOTH",
"480 528 OFFCURVE",
"611 481 OFFCURVE",
"611 338 CURVE SMOOTH",
"611 0 LINE",
"434 0 LINE",
"434 290 LINE SMOOTH",
"434 341 OFFCURVE",
"399 390 OFFCURVE",
"342 390 CURVE SMOOTH",
"289 390 OFFCURVE",
"237 341 OFFCURVE",
"237 290 CURVE SMOOTH"
);
},
{
closed = 1;
nodes = (
"321 642 OFFCURVE",
"386 615 OFFCURVE",
"425 615 CURVE SMOOTH",
"535 615 OFFCURVE",
"561 787 OFFCURVE",
"561 787 CURVE SMOOTH",
"460 787 LINE SMOOTH",
"460 787 OFFCURVE",
"447 741 OFFCURVE",
"415 741 CURVE SMOOTH",
"379 741 OFFCURVE",
"339 760 OFFCURVE",
"339 760 CURVE SMOOTH",
"339 760 OFFCURVE",
"274 787 OFFCURVE",
"235 787 CURVE SMOOTH",
"125 787 OFFCURVE",
"99 615 OFFCURVE",
"99 615 CURVE",
"200 615 LINE",
"200 615 OFFCURVE",
"213 661 OFFCURVE",
"245 661 CURVE SMOOTH",
"281 661 OFFCURVE",
"321 642 OFFCURVE",
"321 642 CURVE SMOOTH"
);
}
);
width = 661;
},
{
layerId = "2A961F25-8D0E-4F3D-9AC7-EA5E11B6DCD4";
name = Regular;
width = 600;
}
);
leftKerningGroup = r;
rightKerningGroup = b;
unicode = 00F1;
},
{
glyphname = o;
lastChange = "2015-12-29 12:56:04 +0000";
layers = (
{
layerId = "A4E552E4-62BE-43BB-A58F-34F0EE3B77B8";
name = Bold;
paths = (
{
closed = 1;
nodes = (
"23 98 OFFCURVE",
"147 -15 OFFCURVE",
"332 -15 CURVE SMOOTH",
"509 -15 OFFCURVE",
"638 98 OFFCURVE",
"638 256 CURVE SMOOTH",
"638 416 OFFCURVE",
"502 528 OFFCURVE",
"332 528 CURVE SMOOTH",
"159 528 OFFCURVE",
"23 416 OFFCURVE",
"23 256 CURVE SMOOTH"
);
},
{
closed = 1;
nodes = (
"211 327 OFFCURVE",
"264 377 OFFCURVE",
"331 377 CURVE SMOOTH",
"397 377 OFFCURVE",
"450 327 OFFCURVE",
"450 256 CURVE SMOOTH",
"450 186 OFFCURVE",
"400 136 OFFCURVE",
"331 136 CURVE SMOOTH",
"259 136 OFFCURVE",
"211 186 OFFCURVE",
"211 256 CURVE SMOOTH"
);
}
);
width = 661;
},
{
layerId = "2A961F25-8D0E-4F3D-9AC7-EA5E11B6DCD4";
name = Regular;
paths = (
{
closed = 1;
nodes = (
"60 98 OFFCURVE",
"180 -15 OFFCURVE",
"341 -15 CURVE SMOOTH",
"502 -15 OFFCURVE",
"622 98 OFFCURVE",
"622 257 CURVE SMOOTH",
"622 416 OFFCURVE",
"496 528 OFFCURVE",
"341 528 CURVE SMOOTH",
"186 528 OFFCURVE",
"60 416 OFFCURVE",
"60 257 CURVE"
);
},
{
closed = 1;
nodes = (
"148 369 OFFCURVE",
"234 450 OFFCURVE",
"341 450 CURVE SMOOTH",
"448 450 OFFCURVE",
"534 369 OFFCURVE",
"534 257 CURVE SMOOTH",
"534 146 OFFCURVE",
"453 63 OFFCURVE",
"341 63 CURVE SMOOTH",
"229 63 OFFCURVE",
"148 146 OFFCURVE",
"148 257 CURVE SMOOTH"
);
}
);
width = 682;
}
);
leftKerningGroup = c;
rightKerningGroup = c;
unicode = 006F;
},
{
glyphname = oacute;
lastChange = "2015-12-23 09:57:56 +0000";
layers = (
{
layerId = "A4E552E4-62BE-43BB-A58F-34F0EE3B77B8";
name = Bold;
paths = (
{
closed = 1;
nodes = (
"23 416 OFFCURVE",
"159 528 OFFCURVE",
"332 528 CURVE SMOOTH",
"502 528 OFFCURVE",
"638 416 OFFCURVE",
"638 256 CURVE SMOOTH",
"638 98 OFFCURVE",
"509 -15 OFFCURVE",
"332 -15 CURVE SMOOTH",
"147 -15 OFFCURVE",
"23 98 OFFCURVE",
"23 256 CURVE SMOOTH"
);
},
{
closed = 1;
nodes = (
"211 186 OFFCURVE",
"259 136 OFFCURVE",
"331 136 CURVE SMOOTH",
"400 136 OFFCURVE",
"450 186 OFFCURVE",
"450 256 CURVE SMOOTH",
"450 327 OFFCURVE",
"397 377 OFFCURVE",
"331 377 CURVE SMOOTH",
"264 377 OFFCURVE",
"211 327 OFFCURVE",
"211 256 CURVE SMOOTH"
);
},
{
closed = 1;
nodes = (
"526 725 LINE",
"435 840 LINE",
"232 664 LINE",
"288 587 LINE"
);
}
);
width = 661;
},
{
layerId = "2A961F25-8D0E-4F3D-9AC7-EA5E11B6DCD4";
name = Regular;
width = 600;
}
);
leftKerningGroup = c;
rightKerningGroup = c;
unicode = 00F3;
},
{
glyphname = ocircumflex;
lastChange = "2015-12-23 09:57:56 +0000";
layers = (
{
layerId = "A4E552E4-62BE-43BB-A58F-34F0EE3B77B8";
name = Bold;
paths = (
{
closed = 1;
nodes = (
"23 416 OFFCURVE",
"159 528 OFFCURVE",
"332 528 CURVE SMOOTH",
"502 528 OFFCURVE",
"638 416 OFFCURVE",
"638 256 CURVE SMOOTH",
"638 98 OFFCURVE",
"509 -15 OFFCURVE",
"332 -15 CURVE SMOOTH",
"147 -15 OFFCURVE",
"23 98 OFFCURVE",
"23 256 CURVE SMOOTH"
);
},
{
closed = 1;
nodes = (
"211 186 OFFCURVE",
"259 136 OFFCURVE",
"331 136 CURVE SMOOTH",
"400 136 OFFCURVE",
"450 186 OFFCURVE",
"450 256 CURVE SMOOTH",
"450 327 OFFCURVE",
"397 377 OFFCURVE",
"331 377 CURVE SMOOTH",
"264 377 OFFCURVE",
"211 327 OFFCURVE",
"211 256 CURVE SMOOTH"
);
},
{
closed = 1;
nodes = (
"330 699 LINE",
"483 587 LINE",
"551 678 LINE",
"330 840 LINE",
"109 678 LINE",
"177 587 LINE"
);
}
);
width = 661;
},
{
layerId = "2A961F25-8D0E-4F3D-9AC7-EA5E11B6DCD4";
name = Regular;
width = 600;
}
);
leftKerningGroup = c;
rightKerningGroup = c;
unicode = 00F4;
},
{
glyphname = odieresis;
lastChange = "2015-12-23 09:57:56 +0000";
layers = (
{
layerId = "A4E552E4-62BE-43BB-A58F-34F0EE3B77B8";
name = Bold;
paths = (
{
closed = 1;
nodes = (
"23 416 OFFCURVE",
"159 528 OFFCURVE",
"332 528 CURVE SMOOTH",
"502 528 OFFCURVE",
"638 416 OFFCURVE",
"638 256 CURVE SMOOTH",
"638 98 OFFCURVE",
"509 -15 OFFCURVE",
"332 -15 CURVE SMOOTH",
"147 -15 OFFCURVE",
"23 98 OFFCURVE",
"23 256 CURVE SMOOTH"
);
},
{
closed = 1;
nodes = (
"211 186 OFFCURVE",
"259 136 OFFCURVE",
"331 136 CURVE SMOOTH",
"400 136 OFFCURVE",
"450 186 OFFCURVE",
"450 256 CURVE SMOOTH",
"450 327 OFFCURVE",
"397 377 OFFCURVE",
"331 377 CURVE SMOOTH",
"264 377 OFFCURVE",
"211 327 OFFCURVE",
"211 256 CURVE SMOOTH"
);
},
{
closed = 1;
nodes = (
"161 791 OFFCURVE",
"120 750 OFFCURVE",
"120 699 CURVE SMOOTH",
"120 648 OFFCURVE",
"161 607 OFFCURVE",
"212 607 CURVE SMOOTH",
"263 607 OFFCURVE",
"304 648 OFFCURVE",
"304 699 CURVE SMOOTH",
"304 750 OFFCURVE",
"263 791 OFFCURVE",
"212 791 CURVE SMOOTH"
);
},
{
closed = 1;
nodes = (
"398 791 OFFCURVE",
"357 750 OFFCURVE",
"357 699 CURVE SMOOTH",
"357 648 OFFCURVE",
"398 607 OFFCURVE",
"449 607 CURVE SMOOTH",
"500 607 OFFCURVE",
"541 648 OFFCURVE",
"541 699 CURVE SMOOTH",
"541 750 OFFCURVE",
"500 791 OFFCURVE",
"449 791 CURVE SMOOTH"
);
}
);
width = 661;
},
{
layerId = "2A961F25-8D0E-4F3D-9AC7-EA5E11B6DCD4";
name = Regular;
width = 600;
}
);
leftKerningGroup = c;
rightKerningGroup = c;
unicode = 00F6;
},
{
glyphname = ograve;
lastChange = "2015-12-23 09:57:56 +0000";
layers = (
{
layerId = "A4E552E4-62BE-43BB-A58F-34F0EE3B77B8";
name = Bold;
paths = (
{
closed = 1;
nodes = (
"23 416 OFFCURVE",
"159 528 OFFCURVE",
"332 528 CURVE SMOOTH",
"502 528 OFFCURVE",
"638 416 OFFCURVE",
"638 256 CURVE SMOOTH",
"638 98 OFFCURVE",
"509 -15 OFFCURVE",
"332 -15 CURVE SMOOTH",
"147 -15 OFFCURVE",
"23 98 OFFCURVE",
"23 256 CURVE SMOOTH"
);
},
{
closed = 1;
nodes = (
"211 186 OFFCURVE",
"259 136 OFFCURVE",
"331 136 CURVE SMOOTH",
"400 136 OFFCURVE",
"450 186 OFFCURVE",
"450 256 CURVE SMOOTH",
"450 327 OFFCURVE",
"397 377 OFFCURVE",
"331 377 CURVE SMOOTH",
"264 377 OFFCURVE",
"211 327 OFFCURVE",
"211 256 CURVE SMOOTH"
);
},
{
closed = 1;
nodes = (
"332 587 LINE",
"388 664 LINE",
"185 840 LINE",
"94 725 LINE"
);
}
);
width = 661;
},
{
layerId = "2A961F25-8D0E-4F3D-9AC7-EA5E11B6DCD4";
name = Regular;
width = 600;
}
);
leftKerningGroup = c;
rightKerningGroup = c;
unicode = 00F2;
},
{
glyphname = ohungarumlaut;
lastChange = "2015-12-23 09:57:56 +0000";
layers = (
{
layerId = "A4E552E4-62BE-43BB-A58F-34F0EE3B77B8";
name = Bold;
paths = (
{
closed = 1;
nodes = (
"23 416 OFFCURVE",
"159 528 OFFCURVE",
"332 528 CURVE SMOOTH",
"502 528 OFFCURVE",
"638 416 OFFCURVE",
"638 256 CURVE SMOOTH",
"638 98 OFFCURVE",
"509 -15 OFFCURVE",
"332 -15 CURVE SMOOTH",
"147 -15 OFFCURVE",
"23 98 OFFCURVE",
"23 256 CURVE SMOOTH"
);
},
{
closed = 1;
nodes = (
"211 186 OFFCURVE",
"259 136 OFFCURVE",
"331 136 CURVE SMOOTH",
"400 136 OFFCURVE",
"450 186 OFFCURVE",
"450 256 CURVE SMOOTH",
"450 327 OFFCURVE",
"397 377 OFFCURVE",
"331 377 CURVE SMOOTH",
"264 377 OFFCURVE",
"211 327 OFFCURVE",
"211 256 CURVE SMOOTH"
);
},
{
closed = 1;
nodes = (
"378 756 LINE",
"296 860 LINE",
"123 664 LINE",
"179 587 LINE"
);
},
{
closed = 1;
nodes = (
"589 756 LINE",
"507 860 LINE",
"334 664 LINE",
"390 587 LINE"
);
}
);
width = 661;
},
{
layerId = "2A961F25-8D0E-4F3D-9AC7-EA5E11B6DCD4";
name = Regular;
width = 600;
}
);
leftKerningGroup = c;
rightKerningGroup = c;
unicode = 0151;
},
{
glyphname = omacron;
lastChange = "2015-12-23 09:57:56 +0000";
layers = (
{
layerId = "A4E552E4-62BE-43BB-A58F-34F0EE3B77B8";
name = Bold;
paths = (
{
closed = 1;
nodes = (
"23 416 OFFCURVE",
"159 528 OFFCURVE",
"332 528 CURVE SMOOTH",
"502 528 OFFCURVE",
"638 416 OFFCURVE",
"638 256 CURVE SMOOTH",
"638 98 OFFCURVE",
"509 -15 OFFCURVE",
"332 -15 CURVE SMOOTH",
"147 -15 OFFCURVE",
"23 98 OFFCURVE",
"23 256 CURVE SMOOTH"
);
},
{
closed = 1;
nodes = (
"211 186 OFFCURVE",
"259 136 OFFCURVE",
"331 136 CURVE SMOOTH",
"400 136 OFFCURVE",
"450 186 OFFCURVE",
"450 256 CURVE SMOOTH",
"450 327 OFFCURVE",
"397 377 OFFCURVE",
"331 377 CURVE SMOOTH",
"264 377 OFFCURVE",
"211 327 OFFCURVE",
"211 256 CURVE SMOOTH"
);
},
{
closed = 1;
nodes = (
"534 634 LINE",
"534 754 LINE",
"126 754 LINE",
"126 634 LINE"
);
}
);
width = 661;
},
{
layerId = "2A961F25-8D0E-4F3D-9AC7-EA5E11B6DCD4";
name = Regular;
width = 600;
}
);
leftKerningGroup = c;
rightKerningGroup = c;
unicode = 014D;
},
{
glyphname = oslash;
lastChange = "2015-12-23 09:57:56 +0000";
layers = (
{
layerId = "A4E552E4-62BE-43BB-A58F-34F0EE3B77B8";
name = Bold;
paths = (
{
closed = 1;
nodes = (
"533 465 LINE",
"479 505 OFFCURVE",
"409 528 OFFCURVE",
"332 528 CURVE SMOOTH",
"159 528 OFFCURVE",
"23 416 OFFCURVE",
"23 256 CURVE SMOOTH",
"23 194 OFFCURVE",
"42 139 OFFCURVE",
"76 95 CURVE",
"-7 28 LINE",
"38 -26 LINE",
"127 46 LINE",
"179 7 OFFCURVE",
"250 -15 OFFCURVE",
"332 -15 CURVE SMOOTH",
"509 -15 OFFCURVE",
"638 98 OFFCURVE",
"638 256 CURVE SMOOTH",
"638 317 OFFCURVE",
"618 372 OFFCURVE",
"583 415 CURVE",
"668 484 LINE",
"623 538 LINE"
);
},
{
closed = 1;
nodes = (
"211 327 OFFCURVE",
"264 377 OFFCURVE",
"331 377 CURVE SMOOTH",
"356 377 OFFCURVE",
"380 369 OFFCURVE",
"399 356 CURVE",
"218 210 LINE",
"213 224 OFFCURVE",
"211 239 OFFCURVE",
"211 256 CURVE SMOOTH"
);
},
{
closed = 1;
nodes = (
"304 136 OFFCURVE",
"281 143 OFFCURVE",
"262 155 CURVE",
"442 301 LINE",
"447 287 OFFCURVE",
"450 272 OFFCURVE",
"450 256 CURVE SMOOTH",
"450 186 OFFCURVE",
"400 136 OFFCURVE",
"331 136 CURVE SMOOTH"
);
}
);
width = 661;
},
{
layerId = "2A961F25-8D0E-4F3D-9AC7-EA5E11B6DCD4";
name = Regular;
width = 600;
}
);
leftKerningGroup = c;
rightKerningGroup = c;
unicode = 00F8;
},
{
glyphname = otilde;
lastChange = "2015-12-23 09:57:56 +0000";
layers = (
{
layerId = "A4E552E4-62BE-43BB-A58F-34F0EE3B77B8";
name = Bold;
paths = (
{
closed = 1;
nodes = (
"23 416 OFFCURVE",
"159 528 OFFCURVE",
"332 528 CURVE SMOOTH",
"502 528 OFFCURVE",
"638 416 OFFCURVE",
"638 256 CURVE SMOOTH",
"638 98 OFFCURVE",
"509 -15 OFFCURVE",
"332 -15 CURVE SMOOTH",
"147 -15 OFFCURVE",
"23 98 OFFCURVE",
"23 256 CURVE SMOOTH"
);
},
{
closed = 1;
nodes = (
"211 186 OFFCURVE",
"259 136 OFFCURVE",
"331 136 CURVE SMOOTH",
"400 136 OFFCURVE",
"450 186 OFFCURVE",
"450 256 CURVE SMOOTH",
"450 327 OFFCURVE",
"397 377 OFFCURVE",
"331 377 CURVE SMOOTH",
"264 377 OFFCURVE",
"211 327 OFFCURVE",
"211 256 CURVE SMOOTH"
);
},
{
closed = 1;
nodes = (
"321 642 OFFCURVE",
"386 615 OFFCURVE",
"425 615 CURVE SMOOTH",
"535 615 OFFCURVE",
"561 787 OFFCURVE",
"561 787 CURVE SMOOTH",
"460 787 LINE SMOOTH",
"460 787 OFFCURVE",
"447 741 OFFCURVE",
"415 741 CURVE SMOOTH",
"379 741 OFFCURVE",
"339 760 OFFCURVE",
"339 760 CURVE SMOOTH",
"339 760 OFFCURVE",
"274 787 OFFCURVE",
"235 787 CURVE SMOOTH",
"125 787 OFFCURVE",
"99 615 OFFCURVE",
"99 615 CURVE",
"200 615 LINE",
"200 615 OFFCURVE",
"213 661 OFFCURVE",
"245 661 CURVE SMOOTH",
"281 661 OFFCURVE",
"321 642 OFFCURVE",
"321 642 CURVE SMOOTH"
);
}
);
width = 661;
},
{
layerId = "2A961F25-8D0E-4F3D-9AC7-EA5E11B6DCD4";
name = Regular;
width = 600;
}
);
leftKerningGroup = c;
rightKerningGroup = c;
unicode = 00F5;
},
{
glyphname = oe;
lastChange = "2015-12-23 09:57:56 +0000";
layers = (
{
layerId = "A4E552E4-62BE-43BB-A58F-34F0EE3B77B8";
name = Bold;
paths = (
{
closed = 1;
nodes = (
"997 232 LINE",
"998 238 OFFCURVE",
"998 249 OFFCURVE",
"998 256 CURVE SMOOTH",
"998 436 OFFCURVE",
"879 528 OFFCURVE",
"723 528 CURVE SMOOTH",
"594 528 OFFCURVE",
"520 446 OFFCURVE",
"520 446 CURVE SMOOTH",
"520 446 OFFCURVE",
"449 528 OFFCURVE",
"326 528 CURVE SMOOTH",
"153 528 OFFCURVE",
"23 416 OFFCURVE",
"23 256 CURVE SMOOTH",
"23 98 OFFCURVE",
"141 -15 OFFCURVE",
"326 -15 CURVE SMOOTH",
"453 -15 OFFCURVE",
"521 66 OFFCURVE",
"521 66 CURVE SMOOTH",
"521 66 OFFCURVE",
"603 -15 OFFCURVE",
"723 -15 CURVE SMOOTH",
"837 -15 OFFCURVE",
"931 22 OFFCURVE",
"989 119 CURVE",
"861 183 LINE",
"818 137 OFFCURVE",
"793 126 OFFCURVE",
"736 126 CURVE SMOOTH",
"691 126 OFFCURVE",
"625 153 OFFCURVE",
"625 232 CURVE"
);
},
{
closed = 1;
nodes = (
"208 327 OFFCURVE",
"261 377 OFFCURVE",
"328 377 CURVE SMOOTH",
"394 377 OFFCURVE",
"447 327 OFFCURVE",
"447 256 CURVE SMOOTH",
"447 186 OFFCURVE",
"397 136 OFFCURVE",
"328 136 CURVE SMOOTH",
"256 136 OFFCURVE",
"208 186 OFFCURVE",
"208 256 CURVE SMOOTH"
);
},
{
closed = 1;
nodes = (
"630 330 LINE",
"633 377 OFFCURVE",
"667 413 OFFCURVE",
"728 413 CURVE SMOOTH",
"780 413 OFFCURVE",
"817 384 OFFCURVE",
"825 330 CURVE"
);
}
);
width = 1021;
},
{
layerId = "2A961F25-8D0E-4F3D-9AC7-EA5E11B6DCD4";
name = Regular;
width = 600;
}
);
leftKerningGroup = c;
rightKerningGroup = c;
unicode = 0153;
},
{
glyphname = p;
lastChange = "2016-02-10 23:52:19 +0000";
layers = (
{
layerId = "A4E552E4-62BE-43BB-A58F-34F0EE3B77B8";
name = Bold;
paths = (
{
closed = 1;
nodes = (
"665 407 OFFCURVE",
"560 528 OFFCURVE",
"410 528 CURVE SMOOTH",
"340 528 OFFCURVE",
"280 497 OFFCURVE",
"242 455 CURVE",
"240 455 LINE",
"240 513 LINE",
"65 513 LINE",
"65 -260 LINE",
"242 -260 LINE",
"242 49 LINE",
"284 8 OFFCURVE",
"341 -15 OFFCURVE",
"410 -15 CURVE SMOOTH",
"560 -15 OFFCURVE",
"665 107 OFFCURVE",
"665 257 CURVE SMOOTH"
);
},
{
closed = 1;
nodes = (
"477 186 OFFCURVE",
"424 136 OFFCURVE",
"357 136 CURVE SMOOTH",
"291 136 OFFCURVE",
"238 186 OFFCURVE",
"238 257 CURVE SMOOTH",
"238 327 OFFCURVE",
"288 377 OFFCURVE",
"357 377 CURVE SMOOTH",
"429 377 OFFCURVE",
"477 327 OFFCURVE",
"477 257 CURVE SMOOTH"
);
}
);
width = 688;
},
{
layerId = "2A961F25-8D0E-4F3D-9AC7-EA5E11B6DCD4";
name = Regular;
paths = (
{
closed = 1;
nodes = (
"605 406 OFFCURVE",
"498 528 OFFCURVE",
"350 528 CURVE SMOOTH",
"286 528 OFFCURVE",
"231 506 OFFCURVE",
"183 456 CURVE",
"182 456 LINE",
"182 513 LINE",
"93 513 LINE",
"93 -280 LINE",
"180 -280 LINE",
"180 63 LINE",
"222 13 OFFCURVE",
"286 -15 OFFCURVE",
"350 -15 CURVE SMOOTH",
"498 -15 OFFCURVE",
"605 106 OFFCURVE",
"605 256 CURVE SMOOTH"
);
},
{
closed = 1;
nodes = (
"514 138 OFFCURVE",
"447 65 OFFCURVE",
"339 65 CURVE SMOOTH",
"248 65 OFFCURVE",
"178 138 OFFCURVE",
"178 256 CURVE SMOOTH",
"178 374 OFFCURVE",
"251 448 OFFCURVE",
"339 448 CURVE SMOOTH",
"447 448 OFFCURVE",
"514 374 OFFCURVE",
"514 256 CURVE SMOOTH"
);
}
);
width = 665;
}
);
leftKerningGroup = r;
leftMetricsKey = "=n+5";
rightKerningGroup = b;
rightMetricsKey = "=o";
unicode = 0070;
},
{
glyphname = thorn;
lastChange = "2015-12-23 09:57:56 +0000";
layers = (
{
layerId = "A4E552E4-62BE-43BB-A58F-34F0EE3B77B8";
name = Bold;
paths = (
{
closed = 1;
nodes = (
"660 406 OFFCURVE",
"555 528 OFFCURVE",
"405 528 CURVE SMOOTH",
"336 528 OFFCURVE",
"279 505 OFFCURVE",
"237 464 CURVE",
"237 860 LINE",
"60 860 LINE",
"60 -260 LINE",
"235 -260 LINE",
"235 58 LINE",
"237 58 LINE",
"275 16 OFFCURVE",
"335 -15 OFFCURVE",
"405 -15 CURVE SMOOTH",
"555 -15 OFFCURVE",
"660 106 OFFCURVE",
"660 256 CURVE SMOOTH"
);
},
{
closed = 1;
nodes = (
"472 186 OFFCURVE",
"424 136 OFFCURVE",
"352 136 CURVE SMOOTH",
"283 136 OFFCURVE",
"233 186 OFFCURVE",
"233 256 CURVE SMOOTH",
"233 327 OFFCURVE",
"286 377 OFFCURVE",
"352 377 CURVE SMOOTH",
"419 377 OFFCURVE",
"472 327 OFFCURVE",
"472 256 CURVE SMOOTH"
);
}
);
width = 683;
},
{
layerId = "2A961F25-8D0E-4F3D-9AC7-EA5E11B6DCD4";
name = Regular;
width = 600;
}
);
rightKerningGroup = b;
unicode = 00FE;
},
{
glyphname = q;
lastChange = "2015-12-28 10:40:08 +0000";
layers = (
{
layerId = "A4E552E4-62BE-43BB-A58F-34F0EE3B77B8";
name = Bold;
paths = (
{
closed = 1;
nodes = (
"23 107 OFFCURVE",
"128 -15 OFFCURVE",
"278 -15 CURVE SMOOTH",
"347 -15 OFFCURVE",
"404 8 OFFCURVE",
"446 49 CURVE",
"446 -260 LINE",
"623 -260 LINE",
"623 513 LINE",
"448 513 LINE",
"448 455 LINE",
"446 455 LINE",
"408 497 OFFCURVE",
"348 528 OFFCURVE",
"278 528 CURVE SMOOTH",
"128 528 OFFCURVE",
"23 407 OFFCURVE",
"23 257 CURVE SMOOTH"
);
},
{
closed = 1;
nodes = (
"211 327 OFFCURVE",
"259 377 OFFCURVE",
"331 377 CURVE SMOOTH",
"400 377 OFFCURVE",
"450 327 OFFCURVE",
"450 257 CURVE SMOOTH",
"450 186 OFFCURVE",
"397 136 OFFCURVE",
"331 136 CURVE SMOOTH",
"264 136 OFFCURVE",
"211 186 OFFCURVE",
"211 257 CURVE SMOOTH"
);
}
);
width = 683;
},
{
layerId = "2A961F25-8D0E-4F3D-9AC7-EA5E11B6DCD4";
name = Regular;
paths = (
{
closed = 1;
nodes = (
"60 106 OFFCURVE",
"167 -15 OFFCURVE",
"315 -15 CURVE SMOOTH",
"379 -15 OFFCURVE",
"443 13 OFFCURVE",
"485 70 CURVE",
"485 -280 LINE",
"572 -280 LINE",
"572 513 LINE",
"483 513 LINE",
"484 444 LINE",
"483 444 LINE",
"441 506 OFFCURVE",
"379 528 OFFCURVE",
"315 528 CURVE SMOOTH",
"167 528 OFFCURVE",
"60 406 OFFCURVE",
"60 256 CURVE SMOOTH"
);
},
{
closed = 1;
nodes = (
"151 374 OFFCURVE",
"218 448 OFFCURVE",
"326 448 CURVE SMOOTH",
"414 448 OFFCURVE",
"487 363 OFFCURVE",
"487 256 CURVE SMOOTH",
"487 138 OFFCURVE",
"417 65 OFFCURVE",
"326 65 CURVE SMOOTH",
"218 65 OFFCURVE",
"151 138 OFFCURVE",
"151 256 CURVE SMOOTH"
);
}
);
width = 660;
}
);
leftKerningGroup = d;
leftMetricsKey = "=o";
rightKerningGroup = d;
rightMetricsKey = "=|n";
unicode = 0071;
},
{
glyphname = r;
lastChange = "2016-02-10 23:52:19 +0000";
layers = (
{
layerId = "A4E552E4-62BE-43BB-A58F-34F0EE3B77B8";
name = Bold;
paths = (
{
closed = 1;
nodes = (
"237 270 LINE SMOOTH",
"237 283 OFFCURVE",
"250 374 OFFCURVE",
"342 374 CURVE SMOOTH",
"401 374 OFFCURVE",
"434 346 OFFCURVE",
"434 346 CURVE",
"508 496 LINE",
"508 496 OFFCURVE",
"462 528 OFFCURVE",
"396 528 CURVE SMOOTH",
"295 528 OFFCURVE",
"239 439 OFFCURVE",
"239 439 CURVE SMOOTH",
"237 439 LINE",
"237 513 LINE",
"60 513 LINE",
"60 0 LINE",
"237 0 LINE"
);
}
);
width = 498;
},
{
layerId = "2A961F25-8D0E-4F3D-9AC7-EA5E11B6DCD4";
name = Regular;
paths = (
{
closed = 1;
nodes = (
"175 298 LINE SMOOTH",
"175 340 OFFCURVE",
"237 448 OFFCURVE",
"331 448 CURVE SMOOTH",
"391 448 OFFCURVE",
"437 412 OFFCURVE",
"437 412 CURVE",
"472 485 LINE",
"472 485 OFFCURVE",
"420 528 OFFCURVE",
"338 528 CURVE SMOOTH",
"276 528 OFFCURVE",
"212 490 OFFCURVE",
"177 450 CURVE",
"175 450 LINE",
"175 513 LINE",
"88 513 LINE",
"88 0 LINE",
"175 0 LINE"
);
}
);
width = 477;
}
);
leftKerningGroup = r;
leftMetricsKey = "=n";
rightKerningGroup = r;
unicode = 0072;
},
{
glyphname = racute;
lastChange = "2015-12-23 09:57:56 +0000";
layers = (
{
layerId = "A4E552E4-62BE-43BB-A58F-34F0EE3B77B8";
name = Bold;
paths = (
{
closed = 1;
nodes = (
"237 0 LINE",
"60 0 LINE",
"60 513 LINE",
"237 513 LINE",
"237 439 LINE",
"239 439 LINE",
"239 439 OFFCURVE",
"295 528 OFFCURVE",
"396 528 CURVE SMOOTH",
"462 528 OFFCURVE",
"508 496 OFFCURVE",
"508 496 CURVE",
"434 346 LINE",
"434 346 OFFCURVE",
"401 374 OFFCURVE",
"342 374 CURVE SMOOTH",
"250 374 OFFCURVE",
"237 283 OFFCURVE",
"237 270 CURVE SMOOTH"
);
},
{
closed = 1;
nodes = (
"444 725 LINE",
"353 840 LINE",
"150 664 LINE",
"206 587 LINE"
);
}
);
width = 498;
},
{
layerId = "2A961F25-8D0E-4F3D-9AC7-EA5E11B6DCD4";
name = Regular;
width = 600;
}
);
leftKerningGroup = r;
rightKerningGroup = r;
unicode = 0155;
},
{
glyphname = rcaron;
lastChange = "2015-12-23 09:57:56 +0000";
layers = (
{
layerId = "A4E552E4-62BE-43BB-A58F-34F0EE3B77B8";
name = Bold;
paths = (
{
closed = 1;
nodes = (
"237 0 LINE",
"60 0 LINE",
"60 513 LINE",
"237 513 LINE",
"237 439 LINE",
"239 439 LINE",
"239 439 OFFCURVE",
"295 528 OFFCURVE",
"396 528 CURVE SMOOTH",
"462 528 OFFCURVE",
"508 496 OFFCURVE",
"508 496 CURVE",
"434 346 LINE",
"434 346 OFFCURVE",
"401 374 OFFCURVE",
"342 374 CURVE SMOOTH",
"250 374 OFFCURVE",
"237 283 OFFCURVE",
"237 270 CURVE SMOOTH"
);
},
{
closed = 1;
nodes = (
"249 587 LINE",
"470 749 LINE",
"402 840 LINE",
"249 728 LINE",
"96 840 LINE",
"28 749 LINE"
);
}
);
width = 498;
},
{
layerId = "2A961F25-8D0E-4F3D-9AC7-EA5E11B6DCD4";
name = Regular;
width = 600;
}
);
leftKerningGroup = r;
rightKerningGroup = r;
unicode = 0159;
},
{
glyphname = rcommaaccent;
lastChange = "2015-12-23 09:57:56 +0000";
layers = (
{
layerId = "A4E552E4-62BE-43BB-A58F-34F0EE3B77B8";
name = Bold;
paths = (
{
closed = 1;
nodes = (
"237 270 LINE SMOOTH",
"237 283 OFFCURVE",
"250 374 OFFCURVE",
"342 374 CURVE SMOOTH",
"401 374 OFFCURVE",
"434 346 OFFCURVE",
"434 346 CURVE",
"508 496 LINE",
"508 496 OFFCURVE",
"462 528 OFFCURVE",
"396 528 CURVE SMOOTH",
"295 528 OFFCURVE",
"239 439 OFFCURVE",
"239 439 CURVE SMOOTH",
"237 439 LINE",
"237 513 LINE",
"60 513 LINE",
"60 0 LINE",
"237 0 LINE"
);
},
{
closed = 1;
nodes = (
"100 -40 OFFCURVE",
"60 -80 OFFCURVE",
"60 -130 CURVE SMOOTH",
"60 -170 OFFCURVE",
"89 -201 OFFCURVE",
"127 -210 CURVE",
"115 -275 OFFCURVE",
"68 -320 OFFCURVE",
"68 -320 CURVE",
"108 -351 LINE",
"171 -299 OFFCURVE",
"238 -223 OFFCURVE",
"238 -130 CURVE SMOOTH",
"238 -80 OFFCURVE",
"198 -40 OFFCURVE",
"148 -40 CURVE SMOOTH"
);
}
);
width = 498;
},
{
layerId = "2A961F25-8D0E-4F3D-9AC7-EA5E11B6DCD4";
name = Regular;
width = 600;
}
);
leftKerningGroup = r;
rightKerningGroup = r;
unicode = 0157;
},
{
glyphname = s;
lastChange = "2016-01-27 12:51:27 +0000";
layers = (
{
layerId = "A4E552E4-62BE-43BB-A58F-34F0EE3B77B8";
name = Bold;
paths = (
{
closed = 1;
nodes = (
"148 528 OFFCURVE",
"59 468 OFFCURVE",
"59 363 CURVE SMOOTH",
"59 286 OFFCURVE",
"111 250 OFFCURVE",
"163 223 CURVE SMOOTH",
"221 193 OFFCURVE",
"277 190 OFFCURVE",
"277 153 CURVE SMOOTH",
"277 119 OFFCURVE",
"247 116 OFFCURVE",
"222 116 CURVE SMOOTH",
"165 116 OFFCURVE",
"95 175 OFFCURVE",
"95 175 CURVE",
"23 54 LINE",
"23 54 OFFCURVE",
"97 -15 OFFCURVE",
"221 -15 CURVE SMOOTH",
"326 -15 OFFCURVE",
"464 9 OFFCURVE",
"464 160 CURVE SMOOTH",
"464 265 OFFCURVE",
"376 303 OFFCURVE",
"308 324 CURVE SMOOTH",
"264 338 OFFCURVE",
"228 346 OFFCURVE",
"228 373 CURVE SMOOTH",
"228 397 OFFCURVE",
"244 404 OFFCURVE",
"283 404 CURVE SMOOTH",
"337 404 OFFCURVE",
"397 372 OFFCURVE",
"397 372 CURVE",
"455 488 LINE",
"455 488 OFFCURVE",
"382 528 OFFCURVE",
"283 528 CURVE SMOOTH"
);
}
);
width = 492;
},
{
layerId = "2A961F25-8D0E-4F3D-9AC7-EA5E11B6DCD4";
name = Regular;
paths = (
{
closed = 1;
nodes = (
"184 528 OFFCURVE",
"74 488 OFFCURVE",
"74 386 CURVE SMOOTH",
"74 303 OFFCURVE",
"145 274 OFFCURVE",
"246 236 CURVE SMOOTH",
"317 209 OFFCURVE",
"371 188 OFFCURVE",
"371 138 CURVE SMOOTH",
"371 98 OFFCURVE",
"334 58 OFFCURVE",
"259 58 CURVE SMOOTH",
"187 58 OFFCURVE",
"113 95 OFFCURVE",
"77 128 CURVE",
"35 62 LINE",
"83 22 OFFCURVE",
"174 -15 OFFCURVE",
"266 -15 CURVE SMOOTH",
"403 -15 OFFCURVE",
"457 67 OFFCURVE",
"457 141 CURVE SMOOTH",
"457 222 OFFCURVE",
"392 268 OFFCURVE",
"284 307 CURVE SMOOTH",
"215 332 OFFCURVE",
"161 343 OFFCURVE",
"161 387 CURVE SMOOTH",
"161 431 OFFCURVE",
"216 450 OFFCURVE",
"265 450 CURVE SMOOTH",
"318 450 OFFCURVE",
"378 427 OFFCURVE",
"404 404 CURVE",
"438 470 LINE",
"441 467 OFFCURVE",
"371 528 OFFCURVE",
"268 528 CURVE SMOOTH"
);
}
);
width = 506;
}
);
leftKerningGroup = s;
rightKerningGroup = s;
unicode = 0073;
},
{
glyphname = sacute;
lastChange = "2015-12-23 09:57:56 +0000";
layers = (
{
layerId = "A4E552E4-62BE-43BB-A58F-34F0EE3B77B8";
name = Bold;
paths = (
{
closed = 1;
nodes = (
"148 528 OFFCURVE",
"59 468 OFFCURVE",
"59 363 CURVE SMOOTH",
"59 286 OFFCURVE",
"111 250 OFFCURVE",
"163 223 CURVE SMOOTH",
"221 193 OFFCURVE",
"277 190 OFFCURVE",
"277 153 CURVE SMOOTH",
"277 119 OFFCURVE",
"247 116 OFFCURVE",
"222 116 CURVE SMOOTH",
"165 116 OFFCURVE",
"95 175 OFFCURVE",
"95 175 CURVE",
"23 54 LINE",
"23 54 OFFCURVE",
"97 -15 OFFCURVE",
"221 -15 CURVE SMOOTH",
"326 -15 OFFCURVE",
"464 9 OFFCURVE",
"464 160 CURVE SMOOTH",
"464 265 OFFCURVE",
"376 303 OFFCURVE",
"308 324 CURVE SMOOTH",
"264 338 OFFCURVE",
"228 346 OFFCURVE",
"228 373 CURVE SMOOTH",
"228 397 OFFCURVE",
"244 404 OFFCURVE",
"283 404 CURVE SMOOTH",
"337 404 OFFCURVE",
"397 372 OFFCURVE",
"397 372 CURVE",
"455 488 LINE",
"455 488 OFFCURVE",
"382 528 OFFCURVE",
"283 528 CURVE SMOOTH"
);
},
{
closed = 1;
nodes = (
"433 725 LINE",
"342 840 LINE",
"139 664 LINE",
"195 587 LINE"
);
}
);
width = 492;
},
{
layerId = "2A961F25-8D0E-4F3D-9AC7-EA5E11B6DCD4";
name = Regular;
width = 600;
}
);
leftKerningGroup = s;
rightKerningGroup = s;
unicode = 015B;
},
{
glyphname = scaron;
lastChange = "2015-12-23 09:57:56 +0000";
layers = (
{
layerId = "A4E552E4-62BE-43BB-A58F-34F0EE3B77B8";
name = Bold;
paths = (
{
closed = 1;
nodes = (
"148 528 OFFCURVE",
"59 468 OFFCURVE",
"59 363 CURVE SMOOTH",
"59 286 OFFCURVE",
"111 250 OFFCURVE",
"163 223 CURVE SMOOTH",
"221 193 OFFCURVE",
"277 190 OFFCURVE",
"277 153 CURVE SMOOTH",
"277 119 OFFCURVE",
"247 116 OFFCURVE",
"222 116 CURVE SMOOTH",
"165 116 OFFCURVE",
"95 175 OFFCURVE",
"95 175 CURVE",
"23 54 LINE",
"23 54 OFFCURVE",
"97 -15 OFFCURVE",
"221 -15 CURVE SMOOTH",
"326 -15 OFFCURVE",
"464 9 OFFCURVE",
"464 160 CURVE SMOOTH",
"464 265 OFFCURVE",
"376 303 OFFCURVE",
"308 324 CURVE SMOOTH",
"264 338 OFFCURVE",
"228 346 OFFCURVE",
"228 373 CURVE SMOOTH",
"228 397 OFFCURVE",
"244 404 OFFCURVE",
"283 404 CURVE SMOOTH",
"337 404 OFFCURVE",
"397 372 OFFCURVE",
"397 372 CURVE",
"455 488 LINE",
"455 488 OFFCURVE",
"382 528 OFFCURVE",
"283 528 CURVE SMOOTH"
);
},
{
closed = 1;
nodes = (
"246 587 LINE",
"467 749 LINE",
"399 840 LINE",
"246 728 LINE",
"93 840 LINE",
"25 749 LINE"
);
}
);
width = 492;
},
{
layerId = "2A961F25-8D0E-4F3D-9AC7-EA5E11B6DCD4";
name = Regular;
width = 600;
}
);
leftKerningGroup = s;
rightKerningGroup = s;
unicode = 0161;
},
{
glyphname = scommaaccent;
lastChange = "2015-12-23 09:57:56 +0000";
layers = (
{
layerId = "A4E552E4-62BE-43BB-A58F-34F0EE3B77B8";
name = Bold;
paths = (
{
closed = 1;
nodes = (
"148 528 OFFCURVE",
"59 468 OFFCURVE",
"59 363 CURVE SMOOTH",
"59 286 OFFCURVE",
"111 250 OFFCURVE",
"163 223 CURVE SMOOTH",
"221 193 OFFCURVE",
"277 190 OFFCURVE",
"277 153 CURVE SMOOTH",
"277 119 OFFCURVE",
"247 116 OFFCURVE",
"222 116 CURVE SMOOTH",
"165 116 OFFCURVE",
"95 175 OFFCURVE",
"95 175 CURVE",
"23 54 LINE",
"23 54 OFFCURVE",
"97 -15 OFFCURVE",
"221 -15 CURVE SMOOTH",
"326 -15 OFFCURVE",
"464 9 OFFCURVE",
"464 160 CURVE SMOOTH",
"464 265 OFFCURVE",
"376 303 OFFCURVE",
"308 324 CURVE SMOOTH",
"264 338 OFFCURVE",
"228 346 OFFCURVE",
"228 373 CURVE SMOOTH",
"228 397 OFFCURVE",
"244 404 OFFCURVE",
"283 404 CURVE SMOOTH",
"337 404 OFFCURVE",
"397 372 OFFCURVE",
"397 372 CURVE",
"455 488 LINE",
"455 488 OFFCURVE",
"382 528 OFFCURVE",
"283 528 CURVE SMOOTH"
);
},
{
closed = 1;
nodes = (
"295 -40 OFFCURVE",
"335 -80 OFFCURVE",
"335 -130 CURVE SMOOTH",
"335 -223 OFFCURVE",
"268 -299 OFFCURVE",
"205 -351 CURVE",
"165 -320 LINE",
"165 -320 OFFCURVE",
"212 -275 OFFCURVE",
"224 -210 CURVE",
"186 -201 OFFCURVE",
"157 -170 OFFCURVE",
"157 -130 CURVE SMOOTH",
"157 -80 OFFCURVE",
"197 -40 OFFCURVE",
"245 -40 CURVE SMOOTH"
);
}
);
width = 492;
},
{
layerId = "2A961F25-8D0E-4F3D-9AC7-EA5E11B6DCD4";
name = Regular;
width = 600;
}
);
leftKerningGroup = s;
rightKerningGroup = s;
unicode = 0219;
},
{
glyphname = germandbls;
lastChange = "2015-12-23 09:57:56 +0000";
layers = (
{
layerId = "A4E552E4-62BE-43BB-A58F-34F0EE3B77B8";
name = Bold;
paths = (
{
closed = 1;
nodes = (
"326 -15 LINE",
"504 -15 OFFCURVE",
"633 97 OFFCURVE",
"633 255 CURVE SMOOTH",
"633 356 OFFCURVE",
"581 423 OFFCURVE",
"501 460 CURVE",
"562 494 OFFCURVE",
"601 551 OFFCURVE",
"601 630 CURVE SMOOTH",
"601 768 OFFCURVE",
"497 872 OFFCURVE",
"343 875 CURVE SMOOTH",
"209 875 OFFCURVE",
"90 772 OFFCURVE",
"90 622 CURVE SMOOTH",
"90 460 LINE",
"24 460 LINE",
"24 325 LINE",
"90 325 LINE",
"90 0 LINE",
"267 0 LINE",
"267 636 LINE SMOOTH",
"267 695 OFFCURVE",
"309 726 OFFCURVE",
"343 726 CURVE SMOOTH",
"401 726 OFFCURVE",
"434 690 OFFCURVE",
"434 630 CURVE SMOOTH",
"434 567 OFFCURVE",
"384 524 OFFCURVE",
"326 524 CURVE",
"326 389 LINE",
"402 389 OFFCURVE",
"445 338 OFFCURVE",
"445 264 CURVE SMOOTH",
"445 194 OFFCURVE",
"395 147 OFFCURVE",
"326 147 CURVE"
);
}
);
width = 656;
},
{
layerId = "2A961F25-8D0E-4F3D-9AC7-EA5E11B6DCD4";
name = Regular;
width = 600;
}
);
rightKerningGroup = d;
unicode = 00DF;
},
{
glyphname = t;
lastChange = "2016-02-10 23:52:19 +0000";
layers = (
{
layerId = "A4E552E4-62BE-43BB-A58F-34F0EE3B77B8";
name = Bold;
paths = (
{
closed = 1;
nodes = (
"16 378 LINE",
"90 378 LINE",
"90 181 LINE SMOOTH",
"90 90 OFFCURVE",
"124 -15 OFFCURVE",
"265 -15 CURVE SMOOTH",
"338 -15 OFFCURVE",
"395 17 OFFCURVE",
"395 17 CURVE",
"351 160 LINE",
"351 160 OFFCURVE",
"330 144 OFFCURVE",
"307 144 CURVE SMOOTH",
"279 144 OFFCURVE",
"267 167 OFFCURVE",
"267 215 CURVE SMOOTH",
"267 378 LINE",
"375 378 LINE",
"375 513 LINE",
"267 513 LINE",
"267 704 LINE",
"90 704 LINE",
"90 513 LINE",
"16 513 LINE"
);
}
);
width = 430;
},
{
layerId = "2A961F25-8D0E-4F3D-9AC7-EA5E11B6DCD4";
name = Regular;
paths = (
{
closed = 1;
nodes = (
"35 433 LINE",
"105 433 LINE",
"105 124 LINE SMOOTH",
"105 26 OFFCURVE",
"162 -15 OFFCURVE",
"231 -15 CURVE SMOOTH",
"289 -15 OFFCURVE",
"327 18 OFFCURVE",
"327 18 CURVE",
"302 88 LINE",
"302 88 OFFCURVE",
"273 64 OFFCURVE",
"239 64 CURVE SMOOTH",
"204 64 OFFCURVE",
"192 93 OFFCURVE",
"192 130 CURVE SMOOTH",
"192 433 LINE",
"306 433 LINE",
"306 513 LINE",
"192 513 LINE",
"192 704 LINE",
"105 704 LINE",
"105 513 LINE",
"35 513 LINE"
);
}
);
width = 362;
}
);
leftKerningGroup = t;
leftMetricsKey = "=f";
rightKerningGroup = t;
rightMetricsKey = "=35";
unicode = 0074;
},
{
glyphname = tcaron;
lastChange = "2015-12-23 09:57:56 +0000";
layers = (
{
layerId = "A4E552E4-62BE-43BB-A58F-34F0EE3B77B8";
name = Bold;
paths = (
{
closed = 1;
nodes = (
"16 378 LINE",
"90 378 LINE",
"90 181 LINE SMOOTH",
"90 90 OFFCURVE",
"124 -15 OFFCURVE",
"265 -15 CURVE SMOOTH",
"338 -15 OFFCURVE",
"395 17 OFFCURVE",
"395 17 CURVE",
"351 160 LINE",
"351 160 OFFCURVE",
"330 144 OFFCURVE",
"307 144 CURVE SMOOTH",
"279 144 OFFCURVE",
"267 167 OFFCURVE",
"267 215 CURVE SMOOTH",
"267 378 LINE",
"375 378 LINE",
"375 513 LINE",
"267 513 LINE",
"267 704 LINE",
"90 704 LINE",
"90 513 LINE",
"16 513 LINE"
);
},
{
closed = 1;
nodes = (
"428 824 OFFCURVE",
"388 784 OFFCURVE",
"388 734 CURVE SMOOTH",
"388 694 OFFCURVE",
"417 663 OFFCURVE",
"455 654 CURVE",
"443 589 OFFCURVE",
"396 544 OFFCURVE",
"396 544 CURVE",
"436 513 LINE",
"499 565 OFFCURVE",
"566 641 OFFCURVE",
"566 734 CURVE SMOOTH",
"566 784 OFFCURVE",
"526 824 OFFCURVE",
"476 824 CURVE SMOOTH"
);
}
);
width = 436;
},
{
layerId = "2A961F25-8D0E-4F3D-9AC7-EA5E11B6DCD4";
name = Regular;
width = 600;
}
);
rightKerningGroup = d;
unicode = 0165;
},
{
glyphname = tcommaaccent;
lastChange = "2015-12-23 09:57:56 +0000";
layers = (
{
layerId = "A4E552E4-62BE-43BB-A58F-34F0EE3B77B8";
name = Bold;
paths = (
{
closed = 1;
nodes = (
"16 378 LINE",
"90 378 LINE",
"90 181 LINE SMOOTH",
"90 90 OFFCURVE",
"124 -15 OFFCURVE",
"265 -15 CURVE SMOOTH",
"338 -15 OFFCURVE",
"395 17 OFFCURVE",
"395 17 CURVE",
"351 160 LINE",
"351 160 OFFCURVE",
"330 144 OFFCURVE",
"307 144 CURVE SMOOTH",
"279 144 OFFCURVE",
"267 167 OFFCURVE",
"267 215 CURVE SMOOTH",
"267 378 LINE",
"375 378 LINE",
"375 513 LINE",
"267 513 LINE",
"267 704 LINE",
"90 704 LINE",
"90 513 LINE",
"16 513 LINE"
);
},
{
closed = 1;
nodes = (
"148 -40 OFFCURVE",
"108 -80 OFFCURVE",
"108 -130 CURVE SMOOTH",
"108 -170 OFFCURVE",
"137 -201 OFFCURVE",
"175 -210 CURVE",
"163 -275 OFFCURVE",
"116 -320 OFFCURVE",
"116 -320 CURVE",
"156 -351 LINE",
"219 -299 OFFCURVE",
"286 -223 OFFCURVE",
"286 -130 CURVE SMOOTH",
"286 -80 OFFCURVE",
"246 -40 OFFCURVE",
"196 -40 CURVE SMOOTH"
);
}
);
width = 395;
},
{
layerId = "2A961F25-8D0E-4F3D-9AC7-EA5E11B6DCD4";
name = Regular;
width = 600;
}
);
leftKerningGroup = t;
rightKerningGroup = t;
unicode = 0163;
},
{
glyphname = u;
lastChange = "2016-02-10 23:52:19 +0000";
layers = (
{
layerId = "A4E552E4-62BE-43BB-A58F-34F0EE3B77B8";
name = Bold;
paths = (
{
closed = 1;
nodes = (
"227 513 LINE",
"50 513 LINE",
"50 226 LINE SMOOTH",
"50 54 OFFCURVE",
"136 -15 OFFCURVE",
"328 -15 CURVE SMOOTH",
"520 -15 OFFCURVE",
"606 54 OFFCURVE",
"606 226 CURVE SMOOTH",
"606 513 LINE",
"429 513 LINE",
"429 269 LINE SMOOTH",
"429 168 OFFCURVE",
"402 129 OFFCURVE",
"328 129 CURVE SMOOTH",
"254 129 OFFCURVE",
"227 168 OFFCURVE",
"227 269 CURVE SMOOTH"
);
}
);
width = 656;
},
{
layerId = "2A961F25-8D0E-4F3D-9AC7-EA5E11B6DCD4";
name = Regular;
paths = (
{
closed = 1;
nodes = (
"169 513 LINE",
"82 513 LINE",
"82 255 LINE SMOOTH",
"82 112 OFFCURVE",
"144 -15 OFFCURVE",
"330 -15 CURVE SMOOTH",
"516 -15 OFFCURVE",
"578 112 OFFCURVE",
"578 255 CURVE SMOOTH",
"578 513 LINE",
"491 513 LINE",
"491 269 LINE SMOOTH",
"491 150 OFFCURVE",
"454 65 OFFCURVE",
"330 65 CURVE SMOOTH",
"206 65 OFFCURVE",
"169 150 OFFCURVE",
"169 269 CURVE SMOOTH"
);
}
);
width = 660;
}
);
leftKerningGroup = u;
leftMetricsKey = "=|n";
rightKerningGroup = u;
rightMetricsKey = "=n";
unicode = 0075;
},
{
glyphname = uacute;
lastChange = "2015-12-23 09:57:56 +0000";
layers = (
{
layerId = "A4E552E4-62BE-43BB-A58F-34F0EE3B77B8";
name = Bold;
paths = (
{
closed = 1;
nodes = (
"227 269 LINE SMOOTH",
"227 168 OFFCURVE",
"254 129 OFFCURVE",
"328 129 CURVE SMOOTH",
"402 129 OFFCURVE",
"429 168 OFFCURVE",
"429 269 CURVE SMOOTH",
"429 513 LINE",
"606 513 LINE",
"606 226 LINE SMOOTH",
"606 54 OFFCURVE",
"520 -15 OFFCURVE",
"328 -15 CURVE SMOOTH",
"136 -15 OFFCURVE",
"50 54 OFFCURVE",
"50 226 CURVE SMOOTH",
"50 513 LINE",
"227 513 LINE"
);
},
{
closed = 1;
nodes = (
"563 725 LINE",
"472 840 LINE",
"269 664 LINE",
"325 587 LINE"
);
}
);
width = 656;
},
{
layerId = "2A961F25-8D0E-4F3D-9AC7-EA5E11B6DCD4";
name = Regular;
width = 600;
}
);
leftKerningGroup = u;
rightKerningGroup = u;
unicode = 00FA;
},
{
glyphname = ucircumflex;
lastChange = "2015-12-23 09:57:56 +0000";
layers = (
{
layerId = "A4E552E4-62BE-43BB-A58F-34F0EE3B77B8";
name = Bold;
paths = (
{
closed = 1;
nodes = (
"227 269 LINE SMOOTH",
"227 168 OFFCURVE",
"254 129 OFFCURVE",
"328 129 CURVE SMOOTH",
"402 129 OFFCURVE",
"429 168 OFFCURVE",
"429 269 CURVE SMOOTH",
"429 513 LINE",
"606 513 LINE",
"606 226 LINE SMOOTH",
"606 54 OFFCURVE",
"520 -15 OFFCURVE",
"328 -15 CURVE SMOOTH",
"136 -15 OFFCURVE",
"50 54 OFFCURVE",
"50 226 CURVE SMOOTH",
"50 513 LINE",
"227 513 LINE"
);
},
{
closed = 1;
nodes = (
"328 699 LINE",
"481 587 LINE",
"549 678 LINE",
"328 840 LINE",
"107 678 LINE",
"175 587 LINE"
);
}
);
width = 656;
},
{
layerId = "2A961F25-8D0E-4F3D-9AC7-EA5E11B6DCD4";
name = Regular;
width = 600;
}
);
leftKerningGroup = u;
rightKerningGroup = u;
unicode = 00FB;
},
{
glyphname = udieresis;
lastChange = "2015-12-23 09:57:56 +0000";
layers = (
{
layerId = "A4E552E4-62BE-43BB-A58F-34F0EE3B77B8";
name = Bold;
paths = (
{
closed = 1;
nodes = (
"227 269 LINE SMOOTH",
"227 168 OFFCURVE",
"254 129 OFFCURVE",
"328 129 CURVE SMOOTH",
"402 129 OFFCURVE",
"429 168 OFFCURVE",
"429 269 CURVE SMOOTH",
"429 513 LINE",
"606 513 LINE",
"606 226 LINE SMOOTH",
"606 54 OFFCURVE",
"520 -15 OFFCURVE",
"328 -15 CURVE SMOOTH",
"136 -15 OFFCURVE",
"50 54 OFFCURVE",
"50 226 CURVE SMOOTH",
"50 513 LINE",
"227 513 LINE"
);
},
{
closed = 1;
nodes = (
"158 791 OFFCURVE",
"117 750 OFFCURVE",
"117 699 CURVE SMOOTH",
"117 648 OFFCURVE",
"158 607 OFFCURVE",
"209 607 CURVE SMOOTH",
"260 607 OFFCURVE",
"301 648 OFFCURVE",
"301 699 CURVE SMOOTH",
"301 750 OFFCURVE",
"260 791 OFFCURVE",
"209 791 CURVE SMOOTH"
);
},
{
closed = 1;
nodes = (
"395 791 OFFCURVE",
"354 750 OFFCURVE",
"354 699 CURVE SMOOTH",
"354 648 OFFCURVE",
"395 607 OFFCURVE",
"446 607 CURVE SMOOTH",
"497 607 OFFCURVE",
"538 648 OFFCURVE",
"538 699 CURVE SMOOTH",
"538 750 OFFCURVE",
"497 791 OFFCURVE",
"446 791 CURVE SMOOTH"
);
}
);
width = 656;
},
{
layerId = "2A961F25-8D0E-4F3D-9AC7-EA5E11B6DCD4";
name = Regular;
width = 600;
}
);
leftKerningGroup = u;
rightKerningGroup = u;
unicode = 00FC;
},
{
glyphname = ugrave;
lastChange = "2015-12-23 09:57:56 +0000";
layers = (
{
layerId = "A4E552E4-62BE-43BB-A58F-34F0EE3B77B8";
name = Bold;
paths = (
{
closed = 1;
nodes = (
"227 269 LINE SMOOTH",
"227 168 OFFCURVE",
"254 129 OFFCURVE",
"328 129 CURVE SMOOTH",
"402 129 OFFCURVE",
"429 168 OFFCURVE",
"429 269 CURVE SMOOTH",
"429 513 LINE",
"606 513 LINE",
"606 226 LINE SMOOTH",
"606 54 OFFCURVE",
"520 -15 OFFCURVE",
"328 -15 CURVE SMOOTH",
"136 -15 OFFCURVE",
"50 54 OFFCURVE",
"50 226 CURVE SMOOTH",
"50 513 LINE",
"227 513 LINE"
);
},
{
closed = 1;
nodes = (
"330 587 LINE",
"386 664 LINE",
"183 840 LINE",
"92 725 LINE"
);
}
);
width = 656;
},
{
layerId = "2A961F25-8D0E-4F3D-9AC7-EA5E11B6DCD4";
name = Regular;
width = 600;
}
);
leftKerningGroup = u;
rightKerningGroup = u;
unicode = 00F9;
},
{
glyphname = uhungarumlaut;
lastChange = "2015-12-23 09:57:56 +0000";
layers = (
{
layerId = "A4E552E4-62BE-43BB-A58F-34F0EE3B77B8";
name = Bold;
paths = (
{
closed = 1;
nodes = (
"227 269 LINE SMOOTH",
"227 168 OFFCURVE",
"254 129 OFFCURVE",
"328 129 CURVE SMOOTH",
"402 129 OFFCURVE",
"429 168 OFFCURVE",
"429 269 CURVE SMOOTH",
"429 513 LINE",
"606 513 LINE",
"606 226 LINE SMOOTH",
"606 54 OFFCURVE",
"520 -15 OFFCURVE",
"328 -15 CURVE SMOOTH",
"136 -15 OFFCURVE",
"50 54 OFFCURVE",
"50 226 CURVE SMOOTH",
"50 513 LINE",
"227 513 LINE"
);
},
{
closed = 1;
nodes = (
"376 756 LINE",
"294 860 LINE",
"121 664 LINE",
"177 587 LINE"
);
},
{
closed = 1;
nodes = (
"587 756 LINE",
"505 860 LINE",
"332 664 LINE",
"388 587 LINE"
);
}
);
width = 656;
},
{
layerId = "2A961F25-8D0E-4F3D-9AC7-EA5E11B6DCD4";
name = Regular;
width = 600;
}
);
leftKerningGroup = u;
rightKerningGroup = u;
unicode = 0171;
},
{
glyphname = umacron;
lastChange = "2015-12-23 09:57:56 +0000";
layers = (
{
layerId = "A4E552E4-62BE-43BB-A58F-34F0EE3B77B8";
name = Bold;
paths = (
{
closed = 1;
nodes = (
"227 269 LINE SMOOTH",
"227 168 OFFCURVE",
"254 129 OFFCURVE",
"328 129 CURVE SMOOTH",
"402 129 OFFCURVE",
"429 168 OFFCURVE",
"429 269 CURVE SMOOTH",
"429 513 LINE",
"606 513 LINE",
"606 226 LINE SMOOTH",
"606 54 OFFCURVE",
"520 -15 OFFCURVE",
"328 -15 CURVE SMOOTH",
"136 -15 OFFCURVE",
"50 54 OFFCURVE",
"50 226 CURVE SMOOTH",
"50 513 LINE",
"227 513 LINE"
);
},
{
closed = 1;
nodes = (
"532 634 LINE",
"532 754 LINE",
"124 754 LINE",
"124 634 LINE"
);
}
);
width = 656;
},
{
layerId = "2A961F25-8D0E-4F3D-9AC7-EA5E11B6DCD4";
name = Regular;
width = 600;
}
);
leftKerningGroup = u;
rightKerningGroup = u;
unicode = 016B;
},
{
glyphname = uogonek;
lastChange = "2015-12-23 09:57:56 +0000";
layers = (
{
layerId = "A4E552E4-62BE-43BB-A58F-34F0EE3B77B8";
name = Bold;
paths = (
{
closed = 1;
nodes = (
"221 -245 OFFCURVE",
"295 -275 OFFCURVE",
"347 -275 CURVE SMOOTH",
"439 -275 OFFCURVE",
"484 -203 OFFCURVE",
"484 -203 CURVE",
"412 -149 LINE",
"412 -149 OFFCURVE",
"392 -179 OFFCURVE",
"361 -179 CURVE SMOOTH",
"344 -179 OFFCURVE",
"324 -165 OFFCURVE",
"324 -140 CURVE SMOOTH",
"324 -89 OFFCURVE",
"355 -38 OFFCURVE",
"372 -14 CURVE",
"533 -3 OFFCURVE",
"606 68 OFFCURVE",
"606 226 CURVE SMOOTH",
"606 513 LINE",
"429 513 LINE",
"429 269 LINE SMOOTH",
"429 168 OFFCURVE",
"402 129 OFFCURVE",
"328 129 CURVE SMOOTH",
"254 129 OFFCURVE",
"227 168 OFFCURVE",
"227 269 CURVE SMOOTH",
"227 513 LINE",
"50 513 LINE",
"50 226 LINE SMOOTH",
"50 66 OFFCURVE",
"124 -5 OFFCURVE",
"290 -14 CURVE",
"259 -51 OFFCURVE",
"221 -108 OFFCURVE",
"221 -158 CURVE SMOOTH"
);
}
);
width = 656;
},
{
layerId = "2A961F25-8D0E-4F3D-9AC7-EA5E11B6DCD4";
name = Regular;
width = 600;
}
);
leftKerningGroup = u;
rightKerningGroup = u;
unicode = 0173;
},
{
glyphname = uring;
lastChange = "2015-12-23 09:57:56 +0000";
layers = (
{
layerId = "A4E552E4-62BE-43BB-A58F-34F0EE3B77B8";
name = Bold;
paths = (
{
closed = 1;
nodes = (
"227 513 LINE",
"50 513 LINE",
"50 226 LINE SMOOTH",
"50 54 OFFCURVE",
"136 -15 OFFCURVE",
"328 -15 CURVE SMOOTH",
"520 -15 OFFCURVE",
"606 54 OFFCURVE",
"606 226 CURVE SMOOTH",
"606 513 LINE",
"429 513 LINE",
"429 269 LINE SMOOTH",
"429 168 OFFCURVE",
"402 129 OFFCURVE",
"328 129 CURVE SMOOTH",
"254 129 OFFCURVE",
"227 168 OFFCURVE",
"227 269 CURVE SMOOTH"
);
},
{
closed = 1;
nodes = (
"167 649 OFFCURVE",
"232 590 OFFCURVE",
"328 590 CURVE SMOOTH",
"422 590 OFFCURVE",
"489 649 OFFCURVE",
"489 733 CURVE SMOOTH",
"489 816 OFFCURVE",
"419 875 OFFCURVE",
"328 875 CURVE SMOOTH",
"238 875 OFFCURVE",
"167 816 OFFCURVE",
"167 733 CURVE SMOOTH"
);
},
{
closed = 1;
nodes = (
"267 767 OFFCURVE",
"295 795 OFFCURVE",
"328 795 CURVE SMOOTH",
"362 795 OFFCURVE",
"389 767 OFFCURVE",
"389 733 CURVE SMOOTH",
"389 698 OFFCURVE",
"363 669 OFFCURVE",
"328 669 CURVE SMOOTH",
"292 669 OFFCURVE",
"267 698 OFFCURVE",
"267 733 CURVE SMOOTH"
);
}
);
width = 656;
},
{
layerId = "2A961F25-8D0E-4F3D-9AC7-EA5E11B6DCD4";
name = Regular;
width = 600;
}
);
leftKerningGroup = u;
rightKerningGroup = u;
unicode = 016F;
},
{
glyphname = v;
lastChange = "2016-02-10 23:52:19 +0000";
layers = (
{
layerId = "A4E552E4-62BE-43BB-A58F-34F0EE3B77B8";
name = Bold;
paths = (
{
closed = 1;
nodes = (
"255 0 LINE",
"375 0 LINE",
"650 513 LINE",
"440 513 LINE",
"315 234 LINE",
"190 513 LINE",
"-20 513 LINE"
);
}
);
width = 630;
},
{
layerId = "2A961F25-8D0E-4F3D-9AC7-EA5E11B6DCD4";
name = Regular;
paths = (
{
closed = 1;
nodes = (
"220 0 LINE",
"311 0 LINE",
"536 513 LINE",
"436 513 LINE",
"266 84 LINE",
"96 513 LINE",
"-5 513 LINE"
);
}
);
width = 531;
}
);
leftKerningGroup = v;
leftMetricsKey = "=|k";
rightKerningGroup = v;
rightMetricsKey = "=k";
unicode = 0076;
},
{
glyphname = w;
lastChange = "2016-02-10 23:52:19 +0000";
layers = (
{
layerId = "A4E552E4-62BE-43BB-A58F-34F0EE3B77B8";
name = Bold;
paths = (
{
closed = 1;
nodes = (
"611 0 LINE",
"731 0 LINE",
"1006 513 LINE",
"802 513 LINE",
"677 236 LINE",
"554 513 LINE",
"432 513 LINE",
"309 236 LINE",
"184 513 LINE",
"-20 513 LINE",
"255 0 LINE",
"375 0 LINE",
"493 265 LINE"
);
}
);
width = 986;
},
{
layerId = "2A961F25-8D0E-4F3D-9AC7-EA5E11B6DCD4";
name = Regular;
paths = (
{
closed = 1;
nodes = (
"632 0 LINE",
"729 0 LINE",
"955 513 LINE",
"855 513 LINE",
"683 84 LINE",
"515 513 LINE",
"436 513 LINE",
"268 84 LINE",
"96 513 LINE",
"-5 513 LINE",
"221 0 LINE",
"318 0 LINE",
"475.835 384.149 LINE"
);
}
);
width = 950;
}
);
leftKerningGroup = v;
leftMetricsKey = "=|k";
rightKerningGroup = v;
rightMetricsKey = "=k";
unicode = 0077;
},
{
glyphname = x;
lastChange = "2016-01-31 21:54:26 +0000";
layers = (
{
layerId = "A4E552E4-62BE-43BB-A58F-34F0EE3B77B8";
name = Bold;
paths = (
{
closed = 1;
nodes = (
"606 513 LINE",
"399 513 LINE",
"310 394 LINE",
"221 513 LINE",
"14 513 LINE",
"202 268 LINE",
"-17 0 LINE",
"197 0 LINE",
"310 145 LINE",
"423 0 LINE",
"637 0 LINE",
"418 268 LINE"
);
}
);
width = 620;
},
{
layerId = "2A961F25-8D0E-4F3D-9AC7-EA5E11B6DCD4";
name = Regular;
paths = (
{
closed = 1;
nodes = (
"521 513 LINE",
"414 513 LINE",
"265 316 LINE",
"116 513 LINE",
"9 513 LINE",
"209 260 LINE",
"-2 0 LINE",
"112 0 LINE",
"263 203 LINE",
"418 0 LINE",
"532 0 LINE",
"320 260 LINE"
);
}
);
width = 530;
}
);
leftMetricsKey = "=|k+3";
rightKerningGroup = d;
rightMetricsKey = "=k+3";
unicode = 0078;
},
{
glyphname = y;
lastChange = "2016-02-10 23:52:19 +0000";
layers = (
{
layerId = "A4E552E4-62BE-43BB-A58F-34F0EE3B77B8";
name = Bold;
paths = (
{
closed = 1;
nodes = (
"186 513 LINE",
"-18 513 LINE",
"225 80 LINE",
"48 -260 LINE",
"252 -260 LINE",
"655 513 LINE",
"451 513 LINE",
"329 250 LINE"
);
}
);
width = 635;
},
{
layerId = "2A961F25-8D0E-4F3D-9AC7-EA5E11B6DCD4";
name = Regular;
paths = (
{
closed = 1;
nodes = (
"101 513 LINE",
"-3 513 LINE",
"239 80 LINE",
"62 -260 LINE",
"160 -260 LINE",
"563 513 LINE",
"458 513 LINE",
"288 165 LINE"
);
}
);
width = 558;
}
);
leftKerningGroup = v;
leftMetricsKey = "=|k+2";
rightKerningGroup = v;
rightMetricsKey = "=k";
unicode = 0079;
},
{
glyphname = yacute;
lastChange = "2015-12-23 09:57:56 +0000";
layers = (
{
layerId = "A4E552E4-62BE-43BB-A58F-34F0EE3B77B8";
name = Bold;
paths = (
{
closed = 1;
nodes = (
"184 513 LINE",
"-20 513 LINE",
"223 80 LINE",
"46 -260 LINE",
"250 -260 LINE",
"653 513 LINE",
"449 513 LINE",
"327 250 LINE"
);
},
{
closed = 1;
nodes = (
"513 725 LINE",
"422 840 LINE",
"219 664 LINE",
"275 587 LINE"
);
}
);
width = 633;
},
{
layerId = "2A961F25-8D0E-4F3D-9AC7-EA5E11B6DCD4";
name = Regular;
width = 600;
}
);
leftKerningGroup = v;
rightKerningGroup = v;
unicode = 00FD;
},
